<?xml version="1.0" standalone="no"?> <!DOCTYPE svg PUBLIC "-//W3C//DTD SVG 20010904//EN" "http://www.w3.org/TR/2001/REC-SVG-20010904/DTD/svg10.dtd"> <svg version="1.0" xmlns="http://www.w3.org/2000/svg" width="1800.000000pt" height="1260.000000pt" viewBox="0 0 1800.000000 1260.000000" preserveAspectRatio="xMidYMid meet"> <g transform="translate(0.000000,1260.000000) scale(0.100000,-0.100000)" fill="#ffffff" stroke="none"> <path d="M10717 12587 c-4 -12 -293 -192 -440 -276 -23 -13 -61 -37 -85 -52 -24 -16 -45 -29 -48 -29 -2 0 -23 -12 -47 -27 -23 -15 -51 -33 -63 -39 -11 -6 -51 -30 -90 -53 -38 -23 -78 -47 -89 -54 -24 -15 -93 -57 -120 -75 -11 -6 -27 -15 -35 -19 -13 -5 -82 -47 -165 -101 -11 -6 -27 -15 -35 -19 -8 -3 -33 -18 -55 -32 -68 -44 -79 -51 -100 -61 -11 -6 -33 -19 -50 -30 -16 -11 -50 -31 -75 -45 -25 -14 -58 -34 -75 -45 -16 -10 -48 -28 -70 -40 -22 -12 -59 -35 -83 -51 -24 -16 -45 -29 -47 -29 -2 0 -36 -20 -74 -45 -38 -25 -72 -45 -75 -45 -3 0 -24 -13 -48 -29 -24 -16 -62 -39 -86 -52 -52 -29 -64 -36 -119 -72 -24 -15 -45 -27 -47 -27 -3 0 -24 -12 -48 -27 -51 -33 -45 -30 -220 -134 -76 -45 -138 -86 -138 -90 0 -4 30 -61 66 -126 37 -65 85 -152 106 -193 22 -41 43 -79 48 -85 4 -5 24 -41 45 -80 21 -38 49 -88 62 -110 12 -22 29 -53 37 -70 8 -16 28 -52 44 -80 16 -27 46 -81 67 -120 21 -38 49 -88 61 -110 33 -59 47 -82 89 -160 21 -38 49 -88 62 -110 12 -22 29 -53 37 -70 8 -16 28 -52 45 -80 16 -27 40 -70 52 -95 12 -25 32 -61 44 -80 24 -39 66 -115 128 -230 22 -41 43 -79 47 -85 4 -5 25 -41 45 -80 39 -71 49 -89 89 -160 46 -83 85 -152 121 -220 21 -38 41 -74 45 -80 9 -12 48 -82 103 -185 22 -41 48 -88 58 -105 10 -16 25 -43 33 -60 8 -16 29 -52 45 -80 17 -27 37 -63 45 -80 8 -16 28 -52 44 -80 16 -27 46 -81 67 -120 21 -38 49 -88 61 -110 24 -43 27 -48 94 -170 24 -44 54 -97 67 -117 12 -21 23 -40 23 -43 0 -3 41 -77 90 -165 50 -88 90 -162 90 -164 0 -3 13 -27 29 -54 30 -51 35 -60 166 -297 42 -77 89 -160 102 -185 33 -59 118 -212 153 -275 15 -27 51 -93 80 -145 29 -52 67 -120 83 -150 17 -30 38 -68 48 -85 10 -16 29 -51 42 -76 14 -25 35 -63 47 -85 13 -21 41 -73 63 -114 22 -41 43 -79 47 -85 7 -10 20 -33 105 -190 21 -38 46 -83 56 -100 10 -16 27 -48 39 -70 21 -37 53 -96 106 -190 27 -47 35 -62 93 -170 24 -44 47 -84 51 -90 7 -10 20 -33 105 -190 21 -38 47 -83 57 -100 10 -16 22 -39 27 -51 5 -11 17 -28 26 -37 15 -16 152 -17 1776 -17 1503 0 1760 2 1765 14 3 8 -6 33 -21 56 -14 22 -30 51 -36 63 -5 12 -17 36 -27 52 -10 17 -36 62 -57 100 -85 157 -98 180 -105 190 -4 6 -27 46 -51 90 -59 109 -67 124 -93 170 -12 22 -40 72 -61 110 -21 39 -46 84 -56 100 -10 17 -27 48 -39 70 -12 22 -35 63 -50 90 -15 28 -44 82 -65 120 -21 39 -49 86 -62 105 -12 19 -23 38 -23 42 0 4 -14 31 -31 60 -17 29 -47 82 -67 118 -19 36 -43 79 -53 95 -10 17 -29 53 -44 80 -14 28 -30 57 -35 65 -16 23 -121 213 -131 235 -5 11 -19 36 -30 55 -12 19 -37 63 -55 97 -19 34 -47 85 -64 113 -16 28 -30 53 -30 56 0 2 -11 21 -23 42 -13 20 -43 73 -67 117 -24 44 -52 94 -61 110 -10 17 -25 44 -33 60 -8 17 -29 55 -47 85 -45 79 -269 482 -314 565 -21 39 -41 75 -45 80 -4 6 -22 37 -41 70 -18 33 -43 78 -56 100 -12 22 -26 47 -30 55 -3 8 -45 85 -93 170 -122 217 -136 243 -195 350 -29 52 -62 113 -75 134 -12 22 -33 60 -47 85 -13 25 -35 64 -47 86 -12 22 -40 72 -61 110 -21 39 -41 75 -45 80 -4 6 -25 44 -47 85 -22 41 -73 134 -113 205 -40 72 -84 150 -98 175 -14 25 -28 50 -32 55 -4 6 -25 44 -47 85 -22 41 -50 91 -61 110 -12 19 -27 46 -35 60 -77 142 -103 189 -118 215 -10 17 -29 51 -42 76 -14 25 -35 63 -47 85 -13 21 -36 64 -52 94 -17 30 -45 80 -64 111 -19 31 -34 59 -34 62 0 3 -20 40 -45 81 -25 42 -45 79 -45 81 0 2 -20 39 -45 81 -25 41 -45 78 -45 81 0 3 -15 31 -34 62 -18 31 -49 85 -68 121 -19 36 -65 118 -101 182 -37 64 -67 119 -67 122 0 3 -18 36 -41 72 -22 37 -45 77 -50 88 -5 12 -20 39 -32 61 -13 22 -38 66 -56 99 -18 32 -46 81 -62 108 -16 27 -29 51 -29 54 0 2 -40 76 -90 164 -49 88 -90 163 -90 167 0 3 -6 14 -14 22 -7 9 -37 61 -66 116 -29 55 -64 117 -77 137 -12 21 -23 40 -23 42 0 3 -14 29 -31 58 -34 57 -85 149 -103 185 -13 26 -22 29 -29 10z"/> <path d="M7655 9654 c-11 -9 -33 -23 -50 -30 -16 -8 -43 -23 -60 -34 -16 -11 -39 -24 -50 -30 -29 -15 -104 -59 -150 -89 -22 -14 -56 -34 -75 -44 -19 -11 -54 -32 -78 -48 -24 -16 -45 -29 -47 -29 -3 0 -393 -231 -556 -329 -19 -12 -43 -25 -54 -30 -11 -5 -36 -20 -55 -33 -19 -13 -42 -27 -50 -31 -8 -4 -24 -13 -35 -20 -38 -22 -280 -168 -295 -177 -40 -26 -617 -367 -630 -373 -8 -4 -24 -13 -35 -20 -11 -7 -38 -24 -60 -37 -23 -14 -50 -31 -60 -38 -11 -6 -29 -17 -40 -22 -11 -6 -33 -19 -50 -29 -16 -11 -47 -29 -67 -40 -69 -38 -118 -71 -118 -81 0 -5 14 -33 30 -62 17 -29 38 -66 46 -83 8 -16 24 -46 36 -65 11 -19 39 -69 61 -110 22 -41 48 -88 58 -105 10 -16 25 -43 33 -60 8 -16 28 -52 45 -80 16 -27 40 -70 52 -95 12 -25 32 -61 44 -80 12 -19 39 -66 60 -105 21 -38 49 -88 62 -110 12 -22 29 -53 37 -70 14 -27 42 -78 108 -195 49 -88 67 -120 103 -185 21 -38 51 -92 67 -120 16 -27 36 -63 44 -80 8 -16 28 -52 45 -80 16 -27 37 -63 45 -80 8 -16 23 -43 33 -60 9 -16 37 -66 61 -110 24 -44 52 -93 62 -110 10 -16 22 -39 27 -50 5 -11 34 -64 65 -119 31 -54 56 -100 56 -102 0 -3 11 -21 23 -42 13 -20 42 -71 64 -112 49 -91 100 -184 124 -225 9 -16 34 -61 54 -100 21 -38 41 -75 46 -81 5 -6 23 -37 40 -70 52 -98 95 -177 128 -232 17 -29 31 -54 31 -56 0 -2 25 -47 55 -100 30 -54 74 -132 97 -174 23 -42 50 -93 61 -112 11 -19 33 -60 48 -90 l29 -55 0 -370 c0 -203 3 -380 6 -393 l6 -22 372 2 371 3 3 379 c1 260 6 383 13 393 10 11 251 13 1390 13 1338 0 1379 1 1379 19 0 10 -11 35 -25 55 -14 20 -25 39 -25 42 0 3 -26 51 -58 107 -32 57 -61 110 -65 118 -4 8 -15 28 -25 44 -10 17 -36 62 -57 100 -64 119 -96 175 -126 227 -16 27 -29 51 -29 53 0 2 -13 26 -29 53 -29 49 -68 118 -111 197 -12 22 -31 58 -44 80 -12 22 -40 72 -61 110 -21 39 -46 84 -56 100 -10 17 -29 50 -42 75 -14 25 -39 70 -56 100 -18 30 -39 69 -47 85 -8 17 -25 48 -38 70 -13 22 -40 72 -61 110 -21 39 -41 75 -45 80 -4 6 -23 39 -42 75 -59 109 -94 173 -116 210 -11 19 -30 53 -42 75 -21 37 -53 96 -106 190 -44 78 -77 138 -140 254 -25 45 -38 69 -101 181 -17 30 -41 73 -53 95 -12 22 -29 54 -39 70 -10 17 -35 62 -56 100 -21 39 -49 88 -61 110 -38 67 -49 87 -89 160 -20 39 -41 75 -45 80 -7 10 -43 75 -113 205 -36 67 -54 99 -94 165 -6 11 -28 52 -48 90 -21 39 -41 75 -46 81 -5 6 -26 42 -46 80 -20 38 -47 87 -59 109 -13 22 -32 58 -44 80 -43 79 -82 148 -111 197 -16 27 -29 51 -29 53 0 2 -14 28 -31 57 -17 29 -51 91 -76 138 -25 47 -50 90 -54 96 -5 6 -20 31 -33 55 -13 24 -35 65 -50 92 -34 61 -66 119 -134 242 -103 186 -107 190 -147 159z"/> <path d="M3965 6474 c-324 -195 -599 -360 -610 -365 -11 -5 -33 -18 -50 -29 -16 -11 -39 -24 -50 -30 -11 -5 -29 -16 -40 -22 -17 -12 -37 -24 -120 -75 -11 -7 -29 -17 -40 -23 -25 -14 -48 -28 -102 -63 -24 -15 -46 -27 -50 -27 -5 0 -39 -20 -76 -45 -38 -25 -72 -45 -75 -45 -4 0 -37 -20 -74 -44 -37 -24 -71 -45 -76 -47 -5 -2 -156 -92 -336 -199 -312 -187 -342 -209 -317 -235 8 -9 23 -37 109 -195 19 -36 54 -99 77 -140 23 -41 57 -102 75 -135 18 -33 53 -95 76 -137 24 -43 44 -80 44 -84 0 -3 8 -18 18 -32 11 -15 32 -52 47 -82 16 -30 36 -63 44 -72 13 -17 110 -18 1768 -18 1475 0 1754 2 1759 14 4 11 -49 125 -76 161 -4 6 -27 46 -50 90 -24 44 -52 94 -62 110 -10 17 -21 36 -25 44 -3 8 -30 57 -60 109 -29 51 -72 128 -95 170 -23 42 -50 93 -61 112 -11 19 -35 63 -53 97 -19 34 -47 85 -64 113 -16 28 -30 53 -30 55 0 2 -20 38 -45 79 -25 42 -45 78 -45 81 0 2 -14 27 -30 55 -17 28 -45 79 -64 113 -18 34 -43 78 -54 97 -12 19 -28 49 -36 65 -8 17 -29 53 -45 80 -17 28 -35 59 -40 70 -5 11 -34 64 -65 119 -31 54 -56 100 -56 101 0 2 -20 38 -45 79 -25 42 -45 79 -45 81 0 3 -11 22 -23 43 -13 20 -43 73 -67 117 -24 44 -56 103 -72 130 -16 28 -36 65 -44 83 -10 23 -21 32 -37 31 -12 0 -287 -160 -612 -355z"/> <path d="M6008 4319 c-17 -9 -18 -51 -18 -658 0 -356 -3 -650 -6 -653 -3 -4 -40 15 -83 42 -145 90 -314 157 -491 195 -168 36 -469 36 -617 0 -34 -8 -71 -15 -82 -15 -11 0 -35 -6 -53 -14 -18 -7 -51 -19 -73 -26 -67 -21 -223 -93 -315 -147 -187 -109 -410 -335 -534 -541 -74 -123 -154 -307 -176 -402 -4 -19 -13 -55 -19 -80 -57 -232 -55 -552 5 -780 67 -253 147 -418 300 -620 65 -87 186 -212 274 -284 121 -99 317 -207 470 -258 204 -69 290 -81 545 -75 201 5 255 11 355 38 121 32 313 115 416 180 34 22 66 39 73 39 7 0 11 -29 11 -89 0 -63 4 -92 14 -100 9 -8 116 -11 372 -9 l359 3 0 2130 0 2130 -355 2 c-229 2 -361 -1 -372 -8z m-638 -1809 c227 -82 398 -229 514 -440 136 -249 140 -597 8 -843 -113 -210 -285 -365 -482 -435 -135 -48 -160 -52 -298 -52 -140 0 -175 6 -310 56 -188 68 -371 230 -470 414 -89 166 -135 419 -101 555 5 22 14 60 18 85 37 184 169 388 336 518 71 55 82 63 155 98 139 67 232 84 421 78 108 -3 137 -8 209 -34z"/> <path d="M10698 4323 c-10 -2 -18 -10 -18 -16 2 -349 -7 -1287 -12 -1292 -4 -4 -45 15 -90 42 -217 130 -421 193 -682 212 -140 11 -315 1 -426 -23 -36 -8 -76 -17 -90 -19 -51 -10 -220 -76 -315 -124 -195 -98 -404 -274 -541 -455 -41 -53 -74 -99 -74 -102 0 -3 -11 -21 -24 -40 -70 -103 -150 -302 -199 -491 -20 -79 -47 -293 -47 -375 0 -89 35 -338 61 -430 11 -41 24 -88 28 -105 18 -64 114 -267 168 -352 78 -126 214 -284 322 -377 231 -197 465 -309 751 -362 147 -27 495 -17 625 18 22 6 56 14 75 19 97 22 294 109 389 173 29 20 57 36 61 36 13 0 17 -27 19 -109 0 -41 5 -79 9 -83 5 -5 170 -7 368 -6 l359 3 0 2130 0 2130 -350 1 c-192 1 -358 0 -367 -3z m-649 -1813 c49 -16 112 -43 140 -60 29 -16 54 -30 58 -30 25 0 183 -150 243 -230 129 -174 181 -331 182 -545 0 -203 -38 -336 -150 -510 -105 -165 -269 -289 -477 -361 -70 -24 -99 -28 -225 -32 -121 -3 -157 0 -220 16 -186 49 -336 145 -469 301 -49 57 -51 60 -102 157 -187 356 -117 804 171 1082 101 98 210 167 328 209 100 35 160 42 310 37 101 -4 138 -9 211 -34z"/> <path d="M1445 3270 c-117 -10 -214 -30 -345 -72 -136 -44 -333 -140 -386 -189 -11 -10 -24 -19 -30 -19 -15 0 -175 -139 -236 -205 -30 -33 -68 -73 -83 -90 -67 -72 -255 -392 -255 -434 0 -5 -7 -22 -15 -37 -8 -16 -15 -37 -15 -46 0 -10 -6 -32 -14 -50 -76 -180 -90 -658 -26 -888 62 -228 114 -346 229 -523 185 -284 475 -519 776 -629 190 -70 244 -79 495 -85 256 -6 317 1 530 66 109 33 260 102 339 156 30 20 60 34 68 31 9 -4 13 -30 13 -95 0 -86 1 -91 23 -96 12 -3 177 -4 367 -3 l345 3 3 1579 c1 1069 -1 1583 -8 1591 -14 17 -680 21 -710 5 -18 -10 -20 -21 -20 -116 0 -123 -7 -131 -74 -86 -109 72 -393 192 -455 192 -14 0 -46 6 -71 14 -42 13 -121 21 -280 30 -36 2 -110 0 -165 -4z m419 -761 c48 -16 109 -43 137 -60 27 -16 52 -29 56 -29 8 0 82 -59 141 -114 88 -82 184 -222 223 -328 50 -132 62 -198 62 -338 0 -105 -5 -152 -21 -210 -54 -196 -125 -318 -261 -448 -83 -79 -130 -111 -234 -161 -125 -60 -192 -75 -352 -79 -146 -3 -188 3 -315 49 -211 77 -396 251 -497 469 -162 350 -87 757 191 1034 84 83 150 129 256 179 143 66 206 78 396 71 113 -4 143 -9 218 -35z"/> <path d="M13151 3269 c-69 -5 -148 -15 -177 -24 -29 -8 -62 -15 -74 -15 -39 0 -202 -61 -325 -121 -378 -186 -675 -531 -806 -934 -69 -214 -83 -302 -83 -535 0 -232 13 -316 83 -535 114 -353 379 -689 701 -888 83 -51 238 -126 285 -138 16 -4 44 -12 60 -17 147 -49 241 -62 461 -62 177 0 254 7 349 32 22 6 56 14 75 19 39 8 108 32 155 53 124 56 178 84 228 117 32 22 63 37 68 33 5 -3 9 -39 9 -80 0 -125 -37 -114 386 -114 l364 0 10 26 c13 33 13 3123 1 3143 -8 13 -67 15 -358 17 -260 2 -355 0 -373 -9 -24 -12 -25 -17 -28 -120 -2 -70 -7 -107 -14 -107 -6 0 -34 15 -62 34 -118 78 -373 186 -441 186 -11 0 -41 6 -66 14 -25 8 -85 17 -135 20 -49 4 -107 8 -129 10 -22 2 -96 0 -164 -5z m356 -744 c19 -8 42 -15 50 -15 21 0 138 -59 205 -103 70 -47 166 -141 223 -218 50 -68 135 -237 135 -268 0 -11 8 -40 18 -63 25 -62 25 -384 -1 -442 -9 -21 -17 -48 -17 -59 0 -37 -99 -221 -158 -292 -123 -151 -237 -230 -422 -292 -79 -26 -96 -28 -245 -28 -149 0 -166 2 -248 29 -48 16 -102 36 -120 45 -79 41 -183 116 -243 177 -56 57 -136 166 -157 214 -4 8 -11 22 -16 30 -21 32 -61 150 -77 225 -48 228 6 488 147 695 132 196 374 355 579 381 86 12 305 1 347 -16z"/> <path d="M16395 3269 c-60 -5 -138 -15 -172 -24 -34 -8 -70 -15 -80 -15 -21 0 -161 -44 -208 -65 -16 -8 -46 -21 -65 -29 -65 -29 -172 -96 -240 -151 -86 -69 -214 -228 -245 -305 -4 -8 -12 -26 -18 -40 -95 -217 -105 -472 -27 -700 68 -199 221 -375 402 -463 95 -46 116 -54 342 -122 26 -8 58 -15 71 -15 12 0 42 -7 65 -15 23 -8 54 -15 69 -15 14 0 55 -6 91 -15 36 -8 112 -22 170 -30 337 -52 442 -83 526 -157 115 -101 97 -285 -41 -402 -49 -42 -79 -59 -185 -103 -64 -26 -336 -26 -430 0 -119 34 -200 78 -265 142 -74 75 -101 124 -130 240 l-22 90 -372 3 c-251 1 -378 -1 -392 -9 -18 -9 -19 -17 -13 -82 4 -40 11 -83 16 -97 5 -14 13 -43 18 -65 31 -147 132 -324 256 -449 78 -78 212 -178 278 -207 12 -5 28 -13 36 -19 8 -5 31 -15 50 -23 19 -8 48 -20 65 -26 85 -36 210 -67 356 -90 85 -14 528 -14 622 -1 521 75 850 302 986 680 43 120 54 194 54 375 0 203 -6 232 -85 394 -81 168 -298 349 -510 426 -112 41 -262 85 -290 85 -12 0 -44 6 -72 14 -28 8 -80 20 -116 26 -36 6 -103 18 -150 26 -47 9 -110 20 -140 24 -142 22 -297 67 -386 114 -100 52 -144 114 -144 205 0 132 80 216 252 266 78 23 426 24 478 2 19 -8 55 -23 79 -33 55 -23 134 -99 156 -150 10 -22 27 -79 40 -129 l22 -90 374 0 374 0 -3 55 c-7 104 -51 248 -111 364 -176 333 -508 543 -946 596 -117 14 -274 18 -390 9z"/> <path d="M7132 3228 c-16 -16 -18 -3119 -2 -3149 10 -18 25 -19 374 -19 323 0 365 2 370 16 3 9 6 721 6 1584 0 1420 -1 1568 -16 1574 -9 3 -174 6 -368 6 -260 0 -355 -3 -364 -12z"/> </g> </svg>