<?xml version="1.0" standalone="no"?> <!DOCTYPE svg PUBLIC "-//W3C//DTD SVG 20010904//EN" "http://www.w3.org/TR/2001/REC-SVG-20010904/DTD/svg10.dtd"> <svg version="1.0" xmlns="http://www.w3.org/2000/svg" width="1800.000000pt" height="2088.000000pt" viewBox="0 0 1800.000000 2088.000000" preserveAspectRatio="xMidYMid meet"> <g transform="translate(0.000000,2088.000000) scale(0.100000,-0.100000)" fill="#ffffff" stroke="none"> <path d="M13455 20865 c-6 -10 -33 -17 -75 -21 -216 -18 -595 -112 -860 -214 -30 -12 -66 -25 -80 -30 -76 -24 -480 -212 -560 -260 -8 -5 -85 -50 -170 -101 -179 -106 -345 -216 -435 -287 -5 -4 -39 -30 -75 -57 -377 -286 -741 -679 -1005 -1085 -48 -74 -96 -147 -106 -162 -11 -15 -19 -30 -19 -33 0 -3 -12 -24 -26 -47 -72 -113 -304 -578 -304 -607 0 -5 -13 -39 -29 -77 -64 -150 -162 -466 -196 -629 -9 -44 -22 -107 -30 -140 -47 -204 -69 -556 -53 -835 8 -148 14 -198 25 -207 62 -50 652 -4 923 72 25 7 74 20 110 30 149 40 407 134 509 184 9 5 68 34 131 65 173 85 345 183 474 271 79 54 335 243 366 270 239 211 358 328 499 490 92 106 195 232 223 275 10 14 40 57 68 95 130 179 263 397 364 595 24 47 48 94 54 105 17 29 86 181 111 245 13 30 29 69 36 85 8 17 34 86 59 155 127 359 185 602 243 1020 18 135 25 650 9 783 l-8 67 -81 0 c-62 0 -85 -4 -92 -15z"/> <path d="M13070 15834 c-148 -6 -453 -47 -595 -78 -33 -8 -96 -21 -140 -31 -105 -22 -191 -44 -238 -61 -20 -8 -46 -14 -56 -14 -16 0 -110 -29 -356 -110 -33 -10 -105 -36 -160 -55 -55 -20 -111 -40 -125 -45 -14 -5 -50 -18 -80 -30 -30 -12 -66 -25 -80 -30 -35 -12 -115 -43 -180 -69 -30 -13 -71 -29 -90 -36 -19 -7 -71 -27 -115 -45 -82 -33 -89 -36 -235 -91 -47 -17 -116 -44 -155 -60 -80 -32 -311 -109 -400 -133 -33 -9 -82 -23 -110 -30 -111 -31 -167 -39 -315 -43 -124 -3 -176 0 -260 15 -110 21 -311 71 -383 96 -281 99 -432 155 -511 190 -32 14 -65 26 -73 26 -8 0 -27 6 -41 14 -15 8 -81 36 -147 61 -66 26 -151 60 -189 76 -38 16 -73 29 -79 29 -6 0 -61 20 -122 44 -60 24 -139 53 -175 64 -36 12 -96 32 -135 46 -65 22 -106 35 -285 87 -36 11 -85 23 -110 28 -25 5 -92 20 -150 34 -115 28 -230 48 -415 72 -160 20 -573 21 -750 0 -282 -32 -394 -49 -500 -73 -60 -13 -130 -28 -155 -32 -57 -9 -173 -38 -203 -49 -20 -8 -55 -18 -167 -49 -74 -21 -295 -102 -415 -152 -950 -401 -1737 -1051 -2326 -1925 -41 -61 -79 -119 -86 -130 -7 -11 -30 -49 -51 -85 -22 -36 -52 -87 -67 -114 -15 -28 -40 -70 -54 -95 -88 -152 -264 -535 -348 -756 -8 -22 -21 -56 -29 -75 -21 -56 -64 -181 -78 -230 -8 -25 -30 -101 -51 -170 -20 -69 -43 -152 -52 -185 -8 -33 -21 -80 -28 -105 -15 -55 -38 -156 -60 -270 -9 -47 -23 -112 -30 -145 -8 -33 -21 -108 -29 -168 -9 -59 -22 -153 -31 -210 -99 -685 -99 -1658 0 -2412 8 -60 22 -166 30 -235 9 -69 22 -159 30 -200 7 -41 21 -120 30 -175 21 -128 43 -244 60 -320 7 -33 21 -98 30 -145 9 -47 25 -121 35 -165 61 -260 72 -305 85 -350 8 -27 21 -81 30 -120 10 -38 23 -88 30 -110 7 -22 21 -69 30 -105 10 -36 30 -108 46 -160 16 -52 37 -120 46 -150 8 -30 22 -71 29 -90 7 -19 28 -84 47 -145 59 -184 90 -275 163 -467 15 -41 29 -77 59 -158 8 -19 37 -93 66 -165 28 -71 58 -148 66 -170 8 -22 32 -78 54 -124 21 -46 39 -87 39 -92 0 -5 15 -41 34 -81 19 -40 58 -125 86 -188 60 -132 261 -539 321 -650 23 -41 60 -111 84 -155 45 -84 98 -179 115 -205 6 -8 13 -22 17 -30 8 -17 112 -192 146 -244 12 -19 35 -57 51 -83 43 -69 265 -406 323 -488 27 -38 92 -130 144 -204 52 -73 107 -152 123 -175 24 -34 167 -228 193 -261 4 -6 50 -66 102 -135 52 -69 106 -139 120 -157 14 -17 51 -61 81 -98 349 -428 744 -817 1052 -1038 180 -128 364 -235 533 -307 28 -12 59 -26 70 -30 34 -15 197 -67 260 -83 118 -31 172 -39 320 -53 321 -29 758 32 1110 153 39 14 84 28 100 32 17 5 100 36 185 71 85 34 171 69 190 76 39 14 114 46 175 74 36 16 130 55 340 141 177 71 448 157 620 194 44 10 100 24 124 31 25 8 57 14 73 14 16 0 73 7 126 15 320 48 713 61 972 30 201 -24 351 -45 415 -60 267 -62 365 -91 595 -175 47 -17 99 -36 115 -42 17 -6 39 -17 50 -25 11 -7 26 -13 33 -13 14 0 28 -6 145 -59 37 -17 72 -31 78 -31 6 0 23 -6 37 -14 38 -21 131 -62 178 -79 21 -8 80 -31 129 -52 134 -55 265 -103 340 -126 75 -22 357 -88 425 -99 207 -34 502 -47 673 -31 144 14 323 43 402 65 28 8 75 21 105 29 30 9 80 25 110 37 30 12 67 25 81 30 15 4 80 34 145 65 470 228 891 588 1385 1185 47 57 199 251 234 299 11 15 48 66 82 112 221 299 723 1026 723 1045 0 3 13 24 29 47 40 60 151 245 151 253 0 4 6 15 14 23 12 14 35 53 133 231 8 14 25 45 39 70 76 135 238 453 309 605 26 55 57 123 70 150 48 103 84 183 119 270 21 50 43 104 51 120 17 39 74 181 90 225 7 19 23 59 35 89 25 62 81 215 115 316 13 39 28 81 33 95 25 63 45 139 40 151 -3 8 -25 24 -49 36 -24 11 -91 44 -149 72 -184 89 -326 171 -515 298 -187 126 -326 229 -444 329 -19 16 -57 49 -85 73 -193 165 -485 477 -642 686 -65 87 -62 83 -151 213 -205 298 -444 790 -528 1087 -10 33 -23 76 -30 95 -7 19 -20 64 -30 100 -9 36 -23 88 -31 116 -8 28 -14 59 -14 69 0 10 -6 41 -14 69 -14 48 -20 85 -60 336 -35 216 -49 468 -43 777 5 289 11 372 43 573 42 266 42 268 104 506 27 104 85 282 144 444 29 79 107 251 176 390 354 710 958 1385 1659 1855 57 38 105 75 108 81 4 12 -49 97 -112 177 -78 100 -214 267 -250 307 -67 75 -336 342 -399 395 -32 28 -75 64 -95 81 -54 46 -319 244 -326 244 -4 0 -24 13 -44 28 -40 32 -101 70 -256 163 -111 67 -345 184 -488 245 -72 31 -138 59 -146 64 -9 4 -32 13 -51 19 -19 7 -75 27 -125 45 -125 46 -362 119 -415 129 -14 2 -68 16 -120 30 -52 13 -135 32 -185 41 -49 10 -121 23 -160 31 -255 52 -861 93 -1165 79z"/> </g> </svg>