<?xml version="1.0" standalone="no"?> <!DOCTYPE svg PUBLIC "-//W3C//DTD SVG 20010904//EN" "http://www.w3.org/TR/2001/REC-SVG-20010904/DTD/svg10.dtd"> <svg version="1.0" xmlns="http://www.w3.org/2000/svg" width="1800.000000pt" height="657.000000pt" viewBox="0 0 1800.000000 657.000000" preserveAspectRatio="xMidYMid meet"> <g transform="translate(0.000000,657.000000) scale(0.100000,-0.100000)" fill="#ffffff" stroke="none"> <path d="M2965 6320 c-66 -4 -140 -12 -165 -19 -25 -6 -64 -11 -88 -11 -23 0 -68 -6 -100 -14 -31 -8 -88 -22 -127 -31 -122 -29 -268 -74 -421 -129 -78 -28 -263 -117 -394 -188 -71 -40 -267 -168 -350 -231 -176 -132 -444 -399 -580 -577 -59 -78 -210 -304 -210 -314 0 -4 -11 -24 -25 -46 -26 -41 -109 -204 -142 -280 -11 -25 -30 -66 -41 -91 -12 -26 -24 -59 -28 -75 -4 -15 -13 -39 -20 -53 -8 -14 -14 -34 -14 -43 0 -10 -6 -32 -14 -50 -8 -18 -22 -62 -31 -98 -10 -36 -24 -85 -31 -109 -8 -25 -14 -55 -14 -69 0 -13 -7 -51 -15 -85 -37 -160 -49 -299 -50 -577 0 -308 12 -420 75 -705 74 -335 218 -675 418 -985 416 -643 1052 -1103 1807 -1308 232 -62 334 -79 581 -93 339 -20 647 5 929 75 158 40 188 48 225 61 19 7 76 28 125 45 50 18 115 44 145 57 30 14 75 34 100 45 118 52 371 198 451 260 20 15 40 28 43 28 4 0 32 20 64 45 31 25 63 45 70 45 7 0 48 -26 90 -58 85 -65 183 -130 222 -148 8 -4 22 -13 30 -19 88 -72 547 -276 710 -315 19 -5 67 -17 105 -28 120 -33 252 -62 287 -62 18 0 62 -8 98 -17 96 -24 701 -24 808 0 40 9 87 17 104 17 40 0 186 34 368 85 82 23 189 62 325 117 62 25 268 127 315 156 19 12 42 25 50 29 26 11 242 155 302 201 66 50 55 52 186 -37 203 -139 322 -209 484 -288 118 -57 201 -91 378 -152 91 -32 407 -110 447 -111 17 0 62 -7 100 -17 98 -24 712 -23 821 1 40 9 87 16 104 16 51 0 317 67 468 117 166 56 407 162 535 236 139 81 220 133 359 234 32 24 64 43 70 43 7 0 48 -26 92 -58 87 -64 173 -122 179 -122 2 0 23 -13 47 -29 65 -43 161 -96 278 -152 144 -70 172 -81 275 -119 50 -17 106 -38 125 -45 44 -17 209 -62 275 -75 49 -10 80 -16 265 -47 73 -13 167 -16 410 -16 335 -1 366 2 670 64 106 21 284 74 400 119 30 12 67 25 81 30 14 4 34 12 45 18 10 6 44 22 74 35 69 31 160 75 180 87 8 5 67 40 130 77 131 77 360 238 390 274 3 3 32 29 65 56 98 81 185 169 324 328 79 90 244 325 323 461 32 55 136 264 168 339 32 75 96 259 124 360 37 132 45 167 61 255 9 52 21 115 27 140 27 123 33 723 7 835 -5 22 -13 74 -19 116 -18 152 -101 455 -170 624 -56 135 -124 281 -162 345 -11 19 -32 57 -47 83 -135 247 -349 514 -586 731 -60 55 -112 103 -115 106 -3 4 -50 40 -105 81 -115 87 -203 144 -360 236 -64 37 -322 160 -365 174 -14 4 -50 17 -80 29 -88 34 -227 76 -340 103 -156 38 -201 47 -232 47 -18 0 -69 7 -113 16 -103 21 -623 25 -725 5 -36 -7 -99 -17 -140 -22 -69 -8 -194 -34 -280 -57 -19 -6 -60 -17 -90 -25 -80 -22 -254 -82 -335 -117 -88 -37 -349 -169 -405 -204 -35 -23 -72 -45 -82 -51 -27 -16 -128 -86 -190 -132 -65 -49 -85 -52 -125 -20 -52 44 -171 125 -270 185 -110 68 -420 227 -467 241 -17 5 -56 19 -86 31 -30 12 -68 26 -85 30 -16 5 -61 18 -100 30 -413 123 -860 157 -1305 100 -386 -49 -818 -200 -1152 -401 -54 -33 -100 -59 -102 -59 -5 0 -133 -93 -208 -151 -20 -16 -46 -29 -57 -29 -11 0 -57 28 -102 61 -130 98 -349 232 -489 300 -51 25 -215 93 -290 121 -115 43 -134 50 -170 58 -19 4 -78 19 -130 33 -149 39 -235 57 -271 57 -19 0 -72 8 -119 16 -106 20 -596 23 -705 4 -38 -6 -104 -15 -145 -20 -123 -14 -313 -59 -485 -115 -217 -72 -325 -118 -490 -212 -22 -12 -53 -29 -70 -37 -63 -30 -310 -192 -363 -238 -18 -15 -42 -28 -53 -28 -11 0 -46 19 -77 43 -31 23 -68 50 -82 60 -14 9 -43 29 -65 45 -22 15 -47 31 -55 35 -8 4 -35 20 -60 37 -75 48 -225 127 -335 175 -33 14 -73 32 -88 40 -16 8 -36 15 -46 15 -9 0 -21 4 -26 9 -6 5 -46 21 -90 35 -44 15 -89 31 -100 36 -11 5 -31 11 -45 13 -14 3 -70 16 -125 30 -167 43 -233 57 -267 57 -18 0 -68 7 -110 15 -93 18 -435 26 -603 15z m495 -655 c176 -19 253 -34 420 -82 184 -52 449 -170 587 -259 32 -21 88 -57 126 -82 37 -24 67 -51 67 -59 0 -9 -28 -54 -63 -102 -147 -200 -308 -482 -377 -661 -69 -180 -120 -329 -120 -352 0 -10 -6 -32 -14 -50 -8 -18 -22 -71 -31 -118 -9 -47 -21 -103 -25 -125 -5 -22 -17 -98 -27 -170 -32 -233 -19 -707 27 -925 36 -174 43 -208 52 -229 5 -14 13 -43 18 -65 4 -23 13 -54 19 -71 5 -16 24 -70 41 -120 17 -49 38 -102 46 -117 8 -14 14 -31 14 -37 0 -5 20 -52 45 -104 25 -52 45 -97 45 -101 0 -3 19 -38 43 -78 24 -40 46 -80 50 -88 26 -53 170 -269 229 -343 21 -27 38 -52 38 -56 0 -18 -264 -178 -405 -246 -156 -74 -209 -95 -340 -135 -314 -95 -460 -115 -800 -106 -309 9 -378 20 -660 106 -92 28 -126 40 -210 74 -370 151 -762 452 -1001 771 -76 101 -111 154 -195 295 -16 28 -127 254 -144 295 -9 22 -25 67 -36 100 -10 33 -24 75 -30 94 -26 77 -66 272 -84 411 -39 290 -1 762 80 990 7 19 20 60 29 90 74 237 235 533 405 745 227 283 517 519 821 666 69 34 138 68 153 75 16 8 37 14 47 14 10 0 21 4 24 9 3 4 36 18 73 30 64 20 89 28 223 64 210 58 575 80 840 52z m3930 -6 c253 -27 500 -100 755 -224 187 -90 395 -225 395 -257 0 -10 -37 -69 -83 -130 -46 -62 -96 -135 -113 -162 -16 -27 -36 -61 -45 -75 -24 -39 -101 -181 -120 -221 -45 -94 -83 -177 -90 -200 -4 -14 -17 -50 -29 -80 -12 -30 -25 -69 -30 -86 -4 -18 -11 -37 -15 -44 -4 -6 -13 -35 -20 -63 -7 -29 -22 -88 -33 -132 -71 -281 -96 -522 -89 -840 6 -285 48 -568 112 -770 7 -22 21 -67 31 -100 67 -222 178 -456 352 -742 17 -28 90 -132 129 -185 24 -31 43 -65 43 -75 0 -17 -81 -74 -235 -168 -150 -91 -443 -212 -590 -245 -22 -5 -59 -14 -82 -19 -24 -6 -62 -16 -85 -22 -201 -49 -707 -49 -948 2 -103 22 -281 74 -419 124 -74 27 -292 136 -354 176 -32 22 -60 39 -62 39 -10 0 -155 103 -155 110 0 4 16 30 35 56 36 52 212 315 232 349 32 54 138 268 169 344 20 47 40 95 45 106 12 29 38 102 55 160 8 28 20 66 25 85 10 33 22 80 47 190 66 280 89 677 57 974 -18 167 -56 377 -92 501 -39 139 -46 162 -59 193 -8 18 -14 38 -14 45 0 35 -154 372 -211 462 -10 17 -22 37 -26 45 -14 31 -147 238 -199 310 -58 81 -64 98 -36 123 21 19 122 87 129 87 3 0 33 17 67 38 55 34 232 124 311 157 204 87 465 152 685 173 95 9 448 4 560 -9z m3827 7 c84 -8 156 -17 162 -20 5 -3 35 -10 68 -15 216 -34 551 -163 759 -293 34 -21 64 -38 67 -38 10 0 141 -91 149 -103 8 -13 -8 -59 -26 -72 -18 -14 -215 -314 -259 -395 -68 -126 -83 -156 -129 -265 -60 -143 -90 -223 -118 -315 -58 -198 -75 -275 -121 -570 -17 -111 -23 -477 -10 -600 26 -237 31 -267 74 -471 16 -74 21 -89 71 -244 51 -157 66 -199 77 -210 5 -5 9 -15 9 -22 0 -14 96 -211 150 -308 76 -136 234 -375 252 -383 5 -2 15 -20 24 -40 18 -43 23 -38 -145 -144 -189 -120 -434 -233 -616 -283 -33 -9 -82 -22 -110 -30 -141 -39 -245 -52 -481 -61 -208 -8 -478 8 -548 32 -21 8 -51 14 -65 14 -15 0 -47 6 -72 14 -24 7 -71 21 -104 31 -124 36 -287 100 -400 158 -79 40 -324 184 -357 211 -28 21 -22 42 40 124 61 82 152 216 152 226 0 3 13 24 29 48 35 53 160 299 196 388 14 36 30 74 34 85 32 79 86 253 115 370 8 33 19 78 25 100 30 121 50 295 56 490 6 223 -6 540 -25 640 -50 259 -94 423 -160 595 -12 30 -25 67 -30 81 -4 14 -12 34 -18 45 -5 10 -42 84 -81 164 -97 198 -147 283 -268 451 -45 64 -83 123 -83 131 0 34 355 250 497 302 21 7 81 29 133 48 52 20 122 43 155 53 33 9 76 22 95 27 190 58 544 81 837 54z m3781 4 c238 -12 324 -27 577 -102 698 -207 1306 -780 1560 -1468 7 -19 20 -53 28 -75 17 -45 68 -234 91 -340 46 -210 47 -721 2 -905 -8 -30 -22 -88 -31 -128 -16 -71 -69 -239 -98 -312 -144 -370 -367 -689 -659 -948 -94 -83 -126 -108 -242 -190 -169 -119 -417 -240 -626 -307 -169 -54 -211 -65 -239 -65 -14 0 -42 -5 -61 -11 -55 -17 -312 -38 -470 -38 -153 -1 -386 20 -433 38 -16 6 -40 11 -54 11 -27 0 -67 11 -233 62 -161 49 -381 147 -519 230 -34 21 -65 38 -67 38 -13 0 -144 105 -144 115 0 7 23 43 51 81 162 219 307 474 399 704 12 30 28 70 36 88 8 18 14 40 14 48 0 9 6 28 14 42 23 45 93 301 115 427 46 254 59 684 28 930 -9 72 -21 146 -27 165 -5 19 -10 49 -10 66 0 18 -6 54 -14 80 -8 27 -22 81 -31 119 -20 82 -43 157 -62 202 -7 17 -13 36 -13 42 0 6 -6 25 -14 43 -8 18 -24 58 -36 88 -50 125 -134 294 -191 385 -14 22 -29 47 -33 55 -18 38 -73 119 -163 241 -34 48 -63 93 -63 102 0 32 445 297 500 297 9 0 20 4 25 9 15 15 244 94 320 111 22 5 58 13 80 19 102 26 210 43 315 50 169 12 165 12 378 1z m-9775 -1069 c77 -115 109 -171 177 -311 28 -58 57 -118 65 -133 8 -16 15 -33 15 -39 0 -5 6 -24 14 -41 42 -97 91 -285 123 -472 24 -146 25 -587 0 -740 -30 -184 -59 -302 -109 -438 -15 -43 -28 -84 -28 -90 0 -13 -152 -319 -180 -362 -11 -16 -23 -37 -27 -45 -3 -8 -19 -31 -35 -51 -15 -20 -28 -40 -28 -44 0 -13 -61 -85 -72 -85 -13 0 -23 12 -102 130 -89 134 -159 263 -216 405 -18 44 -39 94 -46 112 -8 17 -14 38 -14 46 0 8 -7 31 -15 50 -21 50 -75 265 -75 298 0 15 -7 55 -16 89 -13 51 -15 113 -11 373 2 189 8 336 16 372 17 87 77 324 91 365 30 83 40 110 75 195 41 99 139 291 161 316 8 8 14 18 14 22 0 9 58 96 97 144 20 25 39 40 47 37 8 -3 43 -49 79 -103z m3837 67 c41 -56 110 -158 110 -163 0 -3 12 -24 27 -48 36 -57 125 -238 156 -317 44 -112 117 -351 117 -383 0 -11 6 -43 14 -71 22 -76 46 -325 46 -461 0 -129 -31 -422 -49 -468 -6 -16 -11 -39 -11 -52 0 -24 -12 -67 -61 -225 -52 -164 -130 -343 -203 -464 -20 -32 -36 -60 -36 -62 0 -2 -13 -22 -28 -46 -16 -24 -46 -69 -66 -100 -23 -35 -45 -58 -56 -58 -15 0 -71 73 -115 150 -6 10 -16 24 -22 31 -55 70 -253 502 -253 554 0 8 -6 29 -14 47 -24 58 -64 242 -87 408 -18 122 -18 447 0 570 19 138 48 285 72 365 11 39 24 84 28 100 18 65 88 239 134 335 33 69 162 284 204 340 21 28 44 50 53 50 9 0 27 -15 40 -32z m3899 -20 c81 -108 225 -367 266 -478 151 -411 175 -542 175 -945 0 -232 -3 -298 -19 -385 -62 -340 -154 -593 -312 -860 -91 -154 -143 -225 -165 -225 -12 0 -37 26 -72 75 -29 41 -56 82 -59 90 -4 8 -23 42 -43 75 -83 137 -189 386 -235 550 -78 280 -85 333 -85 683 0 356 2 370 85 687 43 162 138 384 239 555 44 76 116 183 146 218 20 22 39 13 79 -40z"/> </g> </svg>