<?xml version="1.0" standalone="no"?> <!DOCTYPE svg PUBLIC "-//W3C//DTD SVG 20010904//EN" "http://www.w3.org/TR/2001/REC-SVG-20010904/DTD/svg10.dtd"> <svg version="1.0" xmlns="http://www.w3.org/2000/svg" width="1800.000000pt" height="540.000000pt" viewBox="0 0 1800.000000 540.000000" preserveAspectRatio="xMidYMid meet"> <g transform="translate(0.000000,540.000000) scale(0.100000,-0.100000)" fill="#ffffff" stroke="none"> <path d="M16 5344 c-3 -9 -6 -1215 -6 -2680 l0 -2664 3625 0 3625 0 -2 2677 -3 2678 -3616 3 c-3292 2 -3617 1 -3623 -14z m2446 -1141 l258 -257 0 -531 0 -530 -115 -115 c-63 -63 -115 -119 -115 -125 0 -5 52 -62 115 -125 l116 -116 -1 -529 0 -530 -258 -258 -258 -257 -639 2 -640 3 -3 1800 c-1 990 0 1806 3 1813 3 9 141 12 642 12 l637 0 258 -257z m3628 -3 l260 -261 0 -522 0 -523 -186 -186 -187 -186 7 -44 c4 -24 13 -63 20 -88 8 -25 21 -74 30 -110 10 -36 23 -87 31 -115 7 -27 21 -79 30 -115 10 -36 23 -85 30 -110 7 -25 20 -74 29 -110 10 -36 23 -87 31 -115 27 -98 76 -281 90 -335 27 -108 76 -286 87 -320 6 -19 15 -53 19 -75 4 -22 13 -58 20 -81 23 -76 31 -74 -254 -74 -192 0 -257 3 -264 13 -11 15 -31 83 -73 242 -17 66 -37 143 -45 170 -7 28 -20 75 -28 105 -37 141 -50 188 -63 225 -8 23 -14 49 -14 59 0 10 -7 39 -15 65 -8 25 -28 100 -46 166 -17 66 -35 134 -41 150 -5 17 -13 46 -18 65 -4 19 -18 71 -30 115 -13 44 -25 94 -28 110 -8 54 -10 55 -203 55 -98 0 -180 -4 -183 -9 -4 -5 -7 -346 -9 -758 -1 -411 -6 -754 -10 -760 -11 -18 -507 -19 -525 -1 -9 9 -12 422 -12 1799 0 983 3 1794 6 1803 6 14 72 16 645 16 l639 0 260 -260z m-2000 -1109 l0 -309 -445 -446 c-245 -245 -450 -446 -455 -446 -6 0 -10 113 -10 310 l0 310 444 445 c244 245 449 445 455 445 8 0 11 -87 11 -309z"/> <path d="M1472 3912 c-10 -7 -12 -113 -10 -498 l3 -489 260 -3 259 -2 98 97 98 98 0 301 0 301 -72 72 c-40 40 -87 86 -106 102 l-33 29 -242 0 c-133 0 -248 -4 -255 -8z"/> <path d="M1465 2358 c-3 -7 -4 -231 -3 -498 l3 -485 254 -3 254 -2 103 102 104 102 0 301 0 300 -98 98 -97 97 -258 0 c-197 0 -259 -3 -262 -12z"/> <path d="M5094 3909 c-8 -14 -7 -965 1 -979 4 -6 103 -10 259 -10 l253 0 101 102 102 102 0 295 0 295 -103 103 -103 103 -251 0 c-175 0 -254 -3 -259 -11z"/> <path d="M8177 4672 c-16 -17 -17 -91 -16 -878 1 -472 4 -872 8 -889 l6 -30 319 -3 320 -2 71 72 c39 40 99 103 133 141 l63 68 -3 252 -3 252 -57 58 c-32 32 -58 63 -58 70 0 6 26 38 58 70 l57 58 3 253 3 254 -123 125 c-68 69 -136 131 -151 137 -17 6 -141 10 -321 10 -271 0 -294 -1 -309 -18z m577 -312 l46 -49 0 -144 0 -145 -46 -51 -46 -52 -132 3 -131 3 -3 220 c-1 121 0 230 3 243 5 21 9 22 134 22 l128 0 47 -50z m-2 -767 l48 -47 0 -148 0 -148 -42 -48 c-24 -26 -47 -50 -53 -55 -5 -4 -66 -6 -135 -5 l-125 3 -3 225 c-1 124 0 235 3 248 5 21 9 22 132 22 l127 0 48 -47z"/> <path d="M9325 4679 c-3 -8 -4 -417 -3 -909 l3 -895 375 0 375 0 0 130 0 130 -235 3 c-129 1 -238 6 -243 11 -4 4 -8 345 -8 757 1 463 -3 755 -9 764 -13 21 -247 29 -255 9z"/> <path d="M10309 4669 c-15 -29 -9 -1773 7 -1789 7 -7 136 -9 405 -8 l394 3 0 130 0 130 -265 5 -265 5 0 245 0 245 212 5 c132 3 216 9 223 16 7 7 10 56 8 135 l-3 124 -220 5 -220 5 0 240 0 240 260 3 c192 2 261 6 267 15 13 20 10 241 -4 255 -9 9 -111 12 -400 12 -383 0 -387 0 -399 -21z"/> <path d="M11636 4667 c-9 -12 -20 -56 -26 -97 -6 -41 -18 -106 -26 -145 -7 -38 -21 -113 -30 -165 -8 -52 -22 -125 -30 -162 -8 -37 -14 -80 -14 -95 0 -15 -6 -57 -14 -93 -14 -61 -24 -116 -62 -340 -9 -52 -22 -123 -30 -157 -8 -34 -14 -76 -14 -93 0 -18 -7 -59 -15 -93 -8 -34 -22 -107 -31 -162 -8 -55 -19 -117 -23 -137 -6 -23 -5 -40 2 -47 7 -7 58 -11 128 -11 91 0 119 3 129 15 7 8 16 47 20 87 5 40 11 80 14 88 4 8 16 78 29 155 21 127 25 141 48 152 27 14 355 18 375 5 16 -10 44 -107 44 -151 0 -19 6 -60 14 -90 8 -31 20 -92 26 -135 20 -135 9 -126 155 -126 144 0 146 1 126 79 -7 25 -16 78 -21 116 -4 39 -13 90 -19 115 -5 25 -17 90 -27 145 -9 55 -22 127 -30 161 -8 33 -14 71 -14 85 0 13 -6 56 -15 94 -8 39 -22 113 -30 165 -18 104 -37 211 -55 305 -6 33 -15 87 -20 120 -5 33 -16 96 -25 140 -8 44 -22 123 -30 175 -10 65 -20 99 -32 108 -12 9 -77 12 -240 12 -220 0 -223 0 -237 -23z m263 -279 c11 -27 24 -94 46 -233 9 -55 21 -118 26 -140 5 -22 14 -73 19 -114 6 -40 13 -78 16 -83 14 -22 24 -151 13 -165 -16 -18 -257 -19 -282 0 -16 11 -17 18 -4 82 8 39 22 115 31 170 9 55 24 128 32 162 7 34 14 76 14 95 0 18 5 49 10 68 6 19 15 64 20 99 11 78 40 107 59 59z"/> <path d="M12915 4678 c-11 -5 -75 -65 -142 -132 l-123 -121 0 -645 0 -646 133 -132 134 -132 190 0 191 0 126 132 126 132 0 163 c0 90 -1 163 -2 164 -2 0 -53 3 -114 6 -155 7 -154 8 -154 -118 l0 -100 -47 -55 -47 -54 -75 0 -76 1 -57 52 -58 53 0 533 0 533 38 37 c53 54 71 61 157 61 l76 0 42 -46 42 -46 5 -106 5 -107 130 0 130 0 3 164 3 165 -129 128 -128 128 -179 0 c-111 0 -188 -5 -200 -12z"/> <path d="M13808 4679 c-17 -9 -18 -63 -18 -898 0 -747 2 -890 14 -900 9 -8 54 -11 132 -9 l119 3 5 377 c3 207 8 379 12 383 12 13 342 5 350 -8 4 -6 7 -176 8 -376 0 -200 3 -367 6 -372 8 -14 238 -11 252 3 16 16 18 1759 2 1789 -10 17 -22 19 -124 19 -86 0 -116 -3 -125 -14 -9 -10 -13 -117 -14 -383 l-2 -368 -180 0 -180 0 -5 380 -5 380 -115 2 c-66 2 -122 -2 -132 -8z"/> <path d="M14956 4674 c-14 -14 -16 -109 -16 -898 0 -673 3 -885 12 -894 14 -14 774 -17 796 -4 9 7 12 40 10 133 l-3 124 -265 5 -265 5 0 245 0 245 210 5 c116 3 216 9 223 13 8 6 12 44 12 133 0 68 -1 125 -2 126 -2 1 -102 4 -223 8 l-220 5 0 240 0 240 265 5 c146 3 266 7 268 8 1 1 2 57 2 125 0 82 -4 127 -12 135 -9 9 -110 12 -394 12 -334 0 -385 -2 -398 -16z"/> <path d="M16007 4672 c-16 -17 -17 -94 -17 -898 0 -671 3 -883 12 -892 13 -13 222 -18 252 -6 14 5 16 48 16 373 0 201 4 371 8 378 6 10 124 18 199 14 16 -1 36 -76 58 -211 9 -58 23 -130 31 -161 8 -30 14 -69 14 -85 0 -16 6 -58 14 -94 8 -36 20 -94 26 -130 7 -36 16 -71 22 -77 14 -18 255 -18 260 -1 3 7 -2 39 -9 72 -20 95 -66 345 -73 406 -4 30 -13 82 -20 115 -15 79 -38 202 -44 241 -4 28 2 39 57 95 104 107 97 80 97 359 l0 245 -123 126 c-67 70 -132 131 -144 138 -15 7 -117 11 -321 11 -277 0 -300 -1 -315 -18z m577 -312 l46 -49 0 -144 0 -145 -46 -51 -46 -52 -132 3 -131 3 -3 220 c-1 121 0 230 3 243 5 21 9 22 134 22 l128 0 47 -50z"/> <path d="M8173 2413 c-10 -4 -13 -192 -12 -893 0 -823 1 -889 17 -902 13 -10 44 -12 137 -8 l120 5 5 375 5 375 108 3 107 3 11 -28 c6 -15 15 -59 20 -98 5 -38 13 -88 18 -110 5 -22 17 -85 26 -140 9 -55 23 -126 31 -157 8 -32 14 -75 14 -95 0 -40 14 -99 29 -121 8 -14 20 -14 199 -13 l62 1 0 31 c0 18 -4 48 -10 68 -9 34 -21 99 -56 306 -15 86 -24 139 -58 320 -30 162 -36 136 55 231 l81 84 -4 255 -3 255 -130 130 -130 130 -315 -1 c-173 0 -321 -3 -327 -6z m577 -315 l49 -53 1 -146 0 -147 -46 -51 -46 -51 -128 0 c-107 0 -129 3 -134 16 -8 21 -8 469 1 477 3 4 62 7 130 7 l124 0 49 -52z"/> <path d="M9327 2413 c-12 -11 -8 -1801 3 -1805 5 -1 187 -1 402 2 l393 5 3 110 c2 61 0 120 -3 133 l-5 22 -260 0 c-185 0 -261 3 -266 12 -5 8 -9 350 -4 466 0 9 50 12 213 12 152 0 216 3 225 12 8 8 12 52 12 134 0 102 -3 123 -16 128 -9 3 -107 6 -219 6 -117 0 -206 4 -210 9 -4 8 -9 398 -6 473 1 16 23 18 269 20 l267 3 0 130 0 130 -396 3 c-217 1 -398 -1 -402 -5z"/> <path d="M10375 2408 c-3 -7 -4 -413 -3 -903 l3 -890 130 0 130 0 5 375 5 375 185 2 185 3 127 132 128 133 -1 265 0 265 -123 128 -124 127 -321 0 c-248 0 -323 -3 -326 -12z m579 -308 l46 -51 0 -150 0 -150 -47 -50 -46 -50 -131 3 -131 3 -3 235 c-1 129 0 240 2 247 4 10 39 13 134 13 l129 0 47 -50z"/> <path d="M11624 2287 l-134 -133 0 -641 0 -642 125 -123 c69 -67 132 -126 139 -130 20 -11 372 -11 393 0 10 6 71 65 136 131 l117 121 0 646 0 645 -127 129 -128 130 -194 0 -194 0 -133 -133z m448 -183 c24 -25 46 -53 50 -62 4 -9 7 -248 7 -531 l1 -514 -27 -36 c-57 -76 -66 -81 -153 -81 -77 0 -79 1 -120 38 -23 20 -47 48 -54 62 -8 18 -10 167 -6 553 l5 528 50 44 c50 44 50 44 127 45 l77 0 43 -46z"/> <path d="M12647 2413 c-4 -3 -7 -406 -7 -894 0 -721 2 -890 13 -901 10 -10 42 -12 133 -8 l119 5 5 375 5 375 106 3 c82 2 109 -1 118 -12 6 -7 16 -49 21 -92 5 -44 14 -95 19 -114 5 -19 16 -80 26 -135 9 -55 23 -130 31 -166 7 -37 14 -79 14 -94 0 -34 20 -117 33 -133 7 -8 46 -12 132 -12 141 0 141 0 121 82 -7 29 -21 98 -30 153 -9 55 -23 132 -31 170 -9 39 -15 80 -15 93 0 13 -6 51 -14 85 -22 94 -46 238 -46 271 0 23 16 46 75 107 l75 77 0 252 0 253 -122 126 c-68 69 -127 129 -133 133 -12 9 -639 11 -648 1z m583 -325 l51 -61 -3 -138 -3 -138 -50 -51 -49 -50 -127 0 c-106 0 -128 3 -133 16 -8 21 -8 469 1 477 3 4 64 7 134 7 l127 0 52 -62z"/> <path d="M13767 2413 c-4 -3 -7 -64 -7 -134 l0 -128 118 -3 117 -3 5 -765 5 -765 47 -5 c26 -3 84 -3 130 0 l83 5 5 765 5 765 120 5 120 5 0 130 0 130 -371 3 c-204 1 -373 -1 -377 -5z"/> </g> </svg>