<?xml version="1.0" standalone="no"?> <!DOCTYPE svg PUBLIC "-//W3C//DTD SVG 20010904//EN" "http://www.w3.org/TR/2001/REC-SVG-20010904/DTD/svg10.dtd"> <svg version="1.0" xmlns="http://www.w3.org/2000/svg" width="1800.000000pt" height="621.000000pt" viewBox="0 0 1800.000000 621.000000" preserveAspectRatio="xMidYMid meet"> <g transform="translate(0.000000,621.000000) scale(0.100000,-0.100000)" fill="#ffffff" stroke="none"> <path d="M670 6164 c-19 -3 -64 -12 -100 -20 -246 -60 -416 -206 -512 -439 -31 -76 -33 -87 -36 -232 -5 -182 5 -235 63 -351 86 -172 255 -315 437 -369 117 -35 296 -35 415 0 117 34 213 94 311 194 70 72 90 100 131 186 27 56 51 122 55 147 26 174 26 189 1 320 -13 69 -58 174 -106 244 -103 155 -259 260 -449 304 -57 13 -164 21 -210 16z m161 -439 c24 -8 65 -34 92 -56 162 -139 128 -397 -65 -495 -68 -35 -184 -36 -249 -4 -60 30 -116 85 -146 144 -32 63 -36 191 -8 246 40 79 107 142 180 168 44 16 145 14 196 -3z"/> <path d="M6449 5975 c-3 -2 -117 -12 -254 -21 -198 -14 -485 -18 -1385 -24 -1174 -7 -1203 -8 -1357 -49 -21 -5 -72 -18 -113 -27 -120 -27 -254 -70 -395 -126 -62 -25 -215 -95 -235 -108 -8 -5 -46 -26 -85 -46 -38 -20 -88 -49 -110 -64 -22 -14 -76 -50 -120 -80 -155 -104 -325 -247 -450 -379 -33 -35 -71 -76 -85 -90 -118 -124 -268 -333 -371 -516 -44 -78 -136 -267 -153 -314 -8 -20 -28 -74 -46 -121 -62 -164 -115 -380 -145 -590 -19 -139 -24 -335 -8 -335 6 0 42 41 79 90 123 165 302 355 479 512 242 214 622 447 880 540 39 14 82 32 97 39 24 12 118 42 253 80 162 45 311 71 577 99 104 11 271 15 690 15 492 0 571 2 713 20 88 11 185 26 215 34 573 146 1042 594 1335 1276 44 100 66 170 59 182 -5 8 -57 11 -65 3z"/> <path d="M3475 4320 c-163 -20 -206 -28 -400 -72 -146 -33 -228 -55 -265 -70 -14 -5 -63 -22 -110 -37 -501 -163 -1015 -505 -1376 -916 -78 -88 -164 -199 -164 -211 0 -4 -7 -16 -17 -26 -13 -15 -16 -38 -14 -125 1 -60 6 -137 12 -173 6 -36 14 -96 19 -135 17 -139 64 -327 128 -510 63 -181 68 -193 158 -379 111 -227 324 -531 513 -730 117 -123 449 -406 477 -406 3 0 31 -17 62 -39 248 -170 588 -315 922 -394 256 -61 604 -81 890 -52 252 25 357 45 580 111 168 50 512 201 602 265 14 11 30 19 34 19 7 0 194 125 265 178 95 71 189 153 287 250 137 136 192 205 185 232 -3 11 -61 78 -129 149 -243 253 -490 408 -779 490 -65 19 -224 41 -289 41 -140 -1 -330 -44 -503 -116 -274 -113 -566 -133 -878 -60 -38 9 -79 20 -90 25 -11 5 -56 24 -100 42 -253 105 -496 315 -642 556 -81 134 -139 285 -173 447 -26 129 -29 393 -4 506 32 149 65 250 111 349 132 279 395 543 675 674 31 15 60 27 63 27 3 0 30 11 58 24 70 32 126 53 160 61 49 10 18 25 -51 24 -37 -1 -134 -10 -217 -19z"/> <path d="M7165 4170 c-110 -25 -182 -53 -256 -102 -187 -119 -284 -265 -328 -493 -19 -97 -21 -142 -21 -490 0 -422 9 -508 67 -653 91 -231 330 -405 606 -441 111 -15 262 0 357 36 36 14 74 27 85 30 29 8 143 86 187 128 54 50 116 131 145 189 43 85 83 207 83 253 l0 43 -194 0 c-143 0 -196 -3 -204 -12 -5 -7 -22 -42 -37 -77 -35 -84 -94 -146 -175 -184 -56 -27 -77 -31 -150 -31 -72 0 -94 4 -145 27 -104 49 -157 116 -191 242 -17 63 -19 110 -19 455 0 346 2 392 19 455 10 39 26 81 34 95 32 52 99 113 152 138 47 21 69 25 151 25 89 1 102 -2 160 -31 88 -43 130 -95 187 -234 6 -15 22 -30 34 -33 13 -3 102 -4 198 -3 l175 3 3 38 c6 74 -64 244 -147 356 -80 108 -195 195 -310 234 -170 58 -322 70 -466 37z"/> <path d="M12275 4139 c-225 -48 -397 -188 -473 -386 -24 -63 -26 -80 -26 -233 0 -158 1 -168 28 -232 48 -115 120 -197 226 -256 97 -54 183 -76 460 -117 262 -38 333 -94 333 -260 0 -85 -18 -129 -72 -178 -72 -65 -242 -98 -400 -78 -167 22 -229 44 -343 122 -32 21 -61 39 -66 39 -4 0 -63 -55 -130 -123 -87 -88 -121 -128 -117 -139 10 -25 147 -126 222 -163 100 -49 146 -63 273 -85 200 -34 479 -20 605 30 142 56 270 151 334 244 73 109 106 255 95 416 -13 191 -98 343 -243 434 -55 35 -202 80 -326 99 -55 9 -147 24 -205 33 -123 19 -199 52 -243 106 -74 92 -47 255 55 331 57 42 121 57 247 57 162 0 260 -27 350 -94 19 -14 44 -26 56 -26 24 0 245 217 245 240 0 34 -149 134 -275 185 -130 54 -440 71 -610 34z"/> <path d="M16700 4139 c-366 -84 -575 -411 -490 -767 59 -244 216 -374 515 -426 240 -41 273 -46 294 -46 41 0 135 -40 168 -72 84 -82 90 -244 12 -333 -44 -49 -95 -71 -213 -91 -101 -18 -112 -18 -224 -1 -150 21 -217 45 -309 107 l-74 50 -27 -19 c-15 -11 -73 -66 -130 -123 -77 -78 -101 -109 -96 -122 17 -45 210 -167 339 -213 78 -28 266 -53 400 -53 368 0 631 138 743 390 52 118 64 270 33 408 -61 269 -215 393 -556 446 -55 8 -147 22 -205 31 -116 19 -168 38 -219 81 -129 108 -74 330 97 393 48 17 81 21 178 21 168 0 266 -28 373 -105 24 -18 38 -22 50 -15 9 5 65 58 125 118 84 85 107 114 102 128 -11 31 -95 92 -201 144 -79 39 -123 54 -209 70 -147 27 -356 26 -476 -1z"/> <path d="M8402 4142 c-10 -7 -12 -223 -10 -1048 l3 -1039 685 0 685 0 0 175 0 175 -475 5 c-261 3 -481 9 -487 13 -10 6 -13 65 -13 236 0 166 3 232 13 244 11 15 50 17 412 19 l400 3 0 180 0 180 -400 3 c-362 2 -401 4 -412 19 -10 12 -13 76 -13 235 0 205 1 218 19 228 13 6 181 10 478 10 344 0 462 3 471 12 8 8 12 62 12 175 l0 163 -26 10 c-31 12 -1323 13 -1342 2z"/> <path d="M10193 4140 l-23 -9 0 -1029 c0 -786 3 -1031 12 -1040 17 -17 1329 -17 1346 0 13 13 18 301 6 332 -5 14 -55 16 -461 16 -294 0 -461 4 -474 10 -19 10 -19 31 -19 860 0 829 0 850 -19 860 -24 12 -337 12 -368 0z"/> <path d="M13556 4134 c-14 -14 -16 -122 -16 -1038 0 -858 2 -1025 14 -1035 9 -8 72 -11 202 -9 l189 3 3 1034 c1 756 -1 1037 -9 1047 -18 22 -362 20 -383 -2z"/> <path d="M15529 4138 c-19 -7 -19 -25 -19 -685 -1 -373 -4 -708 -9 -744 -14 -110 -73 -208 -158 -266 -27 -18 -156 -53 -197 -53 -41 0 -155 28 -191 47 -68 36 -126 109 -159 198 -7 20 -12 269 -16 765 l-5 735 -194 3 c-139 2 -197 -1 -208 -10 -12 -10 -14 -111 -10 -727 4 -807 4 -806 79 -961 37 -77 108 -177 148 -206 8 -7 31 -26 50 -43 60 -53 208 -120 310 -142 401 -84 793 106 917 445 8 23 24 84 34 136 18 88 19 148 19 790 0 382 -4 700 -8 707 -8 13 -350 23 -383 11z"/> <path d="M17758 2361 c-35 -12 -74 -49 -87 -84 -48 -128 79 -253 202 -199 65 29 87 66 87 146 0 61 -3 69 -32 102 -29 30 -40 36 -88 39 -30 3 -67 1 -82 -4z m117 -39 c54 -39 74 -144 28 -150 -25 -4 -38 26 -29 64 4 13 2 34 -4 45 -10 17 -19 20 -63 17 l-52 -3 -3 -72 c-3 -66 -1 -73 16 -73 11 0 25 7 32 15 17 20 26 19 52 -7 l21 -21 -23 -19 c-28 -22 -26 -22 -75 5 -23 13 -47 37 -57 57 -15 30 -16 40 -5 72 19 55 51 78 106 78 25 0 51 -4 56 -8z"/> <path d="M13560 1600 c-22 -14 -28 -681 -7 -699 10 -8 77 -11 233 -9 l219 3 3 43 c5 69 -1 72 -162 72 -97 0 -146 4 -154 12 -9 9 -12 87 -12 288 0 201 -3 279 -12 288 -14 14 -87 16 -108 2z"/> <path d="M14198 1603 c-19 -5 -20 -10 -20 -108 0 -36 0 -187 1 -335 l1 -271 63 3 62 3 3 349 c2 273 -1 351 -10 358 -14 8 -71 9 -100 1z"/> <path d="M14477 1603 c-14 -3 -17 -11 -14 -26 11 -46 27 -96 65 -207 21 -63 60 -180 86 -260 26 -80 54 -162 63 -183 16 -37 17 -38 67 -35 l50 3 19 50 c10 28 22 64 27 80 4 17 12 41 18 55 35 84 164 500 159 514 -7 18 -86 23 -116 6 -17 -8 -40 -64 -62 -145 -16 -62 -70 -231 -82 -257 -13 -30 -25 -36 -31 -15 -2 6 -17 57 -34 112 -17 55 -43 140 -57 188 -15 49 -35 97 -46 108 -18 18 -67 24 -112 12z"/> <path d="M15192 1600 l-22 -9 2 -348 3 -348 232 -3 233 -2 6 25 c4 15 2 41 -3 58 l-9 32 -149 3 c-89 1 -154 7 -162 14 -15 12 -18 125 -3 148 7 12 38 16 137 20 l128 5 0 55 0 55 -115 2 c-168 4 -160 0 -160 81 0 40 5 73 12 80 8 8 57 12 154 12 166 0 180 6 171 73 -3 21 -8 42 -12 45 -10 11 -417 12 -443 2z"/> <path d="M16126 1594 c-14 -13 -16 -59 -16 -348 0 -276 2 -336 14 -345 8 -7 37 -11 68 -9 l53 3 5 133 c4 103 8 135 20 142 8 5 67 10 130 10 63 0 121 4 128 9 9 5 12 25 10 57 l-3 49 -130 5 c-71 3 -136 9 -142 13 -16 10 -17 120 -3 148 10 17 23 19 160 19 165 0 170 2 170 69 0 58 -10 61 -240 61 -176 0 -211 -2 -224 -16z"/> <path d="M16782 1600 l-22 -9 2 -348 3 -348 65 0 65 0 3 348 2 347 -26 10 c-31 12 -61 12 -92 0z"/> <path d="M17090 1603 c-22 -9 -30 -24 -30 -63 0 -51 14 -60 96 -60 47 0 75 -4 83 -13 7 -9 12 -107 13 -293 l3 -279 65 0 65 0 5 280 c3 154 9 286 13 293 5 8 34 12 81 12 43 0 77 5 84 12 7 7 12 31 12 55 0 32 -5 45 -19 53 -21 10 -443 13 -471 3z"/> </g> </svg>