<?xml version="1.0" standalone="no"?> <!DOCTYPE svg PUBLIC "-//W3C//DTD SVG 20010904//EN" "http://www.w3.org/TR/2001/REC-SVG-20010904/DTD/svg10.dtd"> <svg version="1.0" xmlns="http://www.w3.org/2000/svg" width="600.000000pt" height="162.000000pt" viewBox="0 0 600.000000 162.000000" preserveAspectRatio="xMidYMid meet"> <g transform="translate(0.000000,162.000000) scale(0.050000,-0.050000)" fill="#ffffff" stroke="none"> <path d="M10207 3187 c-7 -29 -3 -69 10 -90 13 -20 23 -52 22 -72 0 -27 -7 -24 -29 15 l-29 50 0 -54 c-2 -113 -16 -116 -579 -116 l-516 0 -13 -363 c-17 -462 -17 -1139 0 -1922 l13 -615 332 0 c185 0 368 10 412 23 44 12 193 22 330 22 138 -1 466 -2 730 -3 586 -3 584 -3 574 89 l-8 69 -138 0 c-133 0 -138 2 -138 49 0 38 -12 50 -55 55 -43 5 -56 18 -61 60 -7 56 -20 64 -147 85 -154 26 -237 146 -237 345 0 64 -9 130 -20 146 -14 22 -19 9 -20 -50 0 -83 -29 -285 -51 -352 -10 -33 -1 -38 65 -40 l76 -3 -76 -14 c-42 -8 -86 -25 -99 -38 -45 -45 -56 -22 -21 42 50 92 59 678 12 822 -25 81 -26 101 -4 114 41 26 78 -18 78 -93 0 -71 27 -91 48 -36 26 67 10 183 -36 269 -27 49 -65 118 -84 154 -80 146 39 241 155 125 79 -79 114 -54 122 89 5 90 1 99 -45 113 -32 9 -37 15 -15 16 52 3 43 46 -25 122 -39 44 -60 56 -60 36 0 -17 -13 -42 -30 -56 -25 -21 -30 -17 -30 26 0 84 -34 80 -48 -5 -8 -55 -29 -91 -70 -120 l-59 -41 -23 70 c-36 110 -14 156 29 60 l36 -80 14 60 c8 33 30 89 48 125 41 78 24 85 -31 14 -32 -40 -46 -46 -68 -27 -36 30 -36 80 0 66 29 -11 64 58 55 108 -3 15 6 25 21 23 60 -8 76 4 76 60 0 137 -71 203 -188 173 -60 -15 -103 -155 -67 -221 62 -114 26 -138 -60 -41 -74 84 -102 179 -57 197 23 8 32 51 36 177 l6 166 80 39 c175 86 421 17 517 -146 31 -54 44 -64 49 -38 9 47 25 44 118 -23 71 -51 96 -90 133 -207 7 -20 24 -30 41 -23 43 16 109 -26 153 -98 36 -59 39 -61 39 -17 0 53 -119 183 -166 183 -17 0 -53 41 -81 90 l-50 90 398 0 399 0 0 -632 0 -632 -85 15 c-47 7 -89 24 -93 36 -5 13 -33 47 -64 78 -67 67 -124 76 -64 10 65 -71 94 -138 68 -154 -13 -8 21 -13 74 -12 172 2 164 39 164 -740 0 -661 1 -687 39 -699 21 -6 42 -27 47 -46 5 -19 10 620 12 1420 l2 1454 -559 6 -559 6 -66 64 c-125 121 -311 160 -462 97 -62 -27 -71 -27 -82 1 -7 17 -3 25 8 18 11 -7 20 6 20 29 0 45 -30 55 -48 16 -7 -14 -8 0 -2 30 14 71 -25 72 -43 2z m-75 -392 c8 -36 13 -128 10 -206 -3 -134 0 -145 77 -256 67 -95 81 -131 81 -210 0 -52 10 -105 22 -117 16 -16 8 -50 -30 -126 -47 -93 -51 -121 -42 -247 14 -184 14 -160 -1 -463 -8 -150 -5 -319 7 -400 27 -184 -45 -293 -218 -328 -55 -11 -69 -24 -74 -68 -6 -47 -16 -54 -75 -54 -60 0 -69 -6 -69 -50 0 -47 -6 -50 -109 -50 -103 0 -109 -3 -115 -55 l-6 -55 -210 0 -210 0 -5 682 c-6 769 -12 740 145 736 71 -1 83 4 76 33 -5 19 18 65 54 106 45 51 55 73 34 73 -17 0 -61 -35 -97 -77 -47 -54 -90 -81 -142 -91 l-75 -14 0 631 0 631 382 0 c210 0 378 -7 373 -15 -4 -8 -19 -45 -34 -81 -16 -42 -53 -79 -103 -105 -77 -39 -138 -125 -138 -193 1 -23 13 -11 34 31 35 72 110 132 149 119 13 -5 47 37 76 93 44 88 154 191 202 191 9 0 22 -29 31 -65z m397 -825 c-48 -35 -95 -39 -84 -6 8 24 96 57 114 43 4 -4 -9 -21 -30 -37z m-150 -846 c-2 -295 -25 -400 -47 -210 -16 145 6 490 31 474 9 -6 16 -125 16 -264z m521 -712 c0 -36 -31 -72 -61 -72 -20 0 -56 -27 -80 -61 -34 -48 -49 -56 -71 -37 -37 30 -36 78 2 78 42 0 38 17 -15 61 -45 38 -45 38 90 38 74 1 135 -3 135 -7z"/> <path d="M9525 2255 c-122 -130 -112 -327 23 -453 65 -62 66 -45 2 50 -80 118 -66 312 29 407 27 27 32 41 14 41 -14 0 -45 -20 -68 -45z"/> <path d="M108 2892 c-104 -46 -111 -91 -104 -670 l6 -526 58 -49 c57 -49 62 -50 364 -43 390 8 398 13 398 260 0 180 14 161 -155 203 l-55 14 0 -141 0 -140 -200 0 -200 0 0 450 0 450 200 0 200 0 0 -130 c0 -71 4 -130 9 -130 5 0 54 10 110 22 l101 21 0 127 c0 266 -59 310 -420 309 -164 0 -271 -10 -312 -27z"/> <path d="M1290 2892 c-103 -44 -110 -87 -110 -634 0 -681 -16 -658 452 -658 466 0 448 -26 448 648 0 559 -6 591 -111 641 -85 41 -588 43 -679 3z m570 -642 l0 -450 -230 0 -230 0 0 450 0 450 230 0 230 0 0 -450z"/> <path d="M2420 2260 l0 -660 340 0 340 0 0 100 0 100 -230 0 -230 0 0 560 0 560 -110 0 -110 0 0 -660z"/> <path d="M3448 2893 c-5 -14 -7 -285 -4 -601 l6 -575 65 -59 66 -58 270 0 c449 0 429 -34 429 729 l0 591 -100 0 -99 0 -6 -555 -5 -555 -205 -6 -205 -5 0 560 0 561 -101 0 c-65 0 -104 -9 -111 -27z"/> <path d="M4629 2895 c-5 -14 -7 -309 -4 -655 l5 -630 105 -6 105 -6 2 416 2 416 165 -340 c91 -187 171 -340 179 -340 8 0 86 153 173 340 l158 340 1 -415 0 -415 110 0 110 0 0 660 0 660 -117 0 -116 0 -158 -352 -157 -352 -46 97 c-26 53 -100 212 -165 352 l-119 255 -112 0 c-71 0 -115 -9 -121 -25z"/> <path d="M6080 2260 l0 -660 360 0 359 0 66 58 65 59 7 232 c5 189 0 242 -26 282 -24 37 -27 59 -12 88 33 61 26 413 -9 482 -55 105 -113 119 -479 119 l-331 0 0 -660z m620 280 l0 -160 -200 0 -200 0 0 160 0 160 200 0 200 0 0 -160z m20 -560 l0 -180 -210 0 -210 0 0 180 0 180 210 0 210 0 0 -180z"/> <path d="M7280 2260 l0 -660 100 0 100 0 0 660 0 660 -100 0 -100 0 0 -660z"/> <path d="M8226 2806 c-23 -64 -84 -224 -135 -356 -363 -939 -342 -850 -203 -850 l109 0 64 171 65 170 201 -5 201 -6 64 -160 64 -160 112 -6 c142 -8 154 -69 -134 676 -242 625 -245 630 -305 636 -57 6 -63 -1 -103 -110z m203 -601 c13 -43 9 -45 -98 -45 -61 0 -111 4 -111 10 0 5 24 70 54 144 l54 135 43 -100 c24 -54 50 -119 58 -144z"/> <path d="M11465 2265 c101 -105 107 -304 15 -430 l-44 -58 43 23 c152 81 163 387 17 489 -71 49 -88 36 -31 -24z"/> <path d="M10711 1686 c32 -89 36 -150 12 -177 -9 -10 -10 -82 -1 -159 8 -77 21 -259 27 -406 11 -259 43 -404 90 -404 13 0 18 29 12 75 -6 41 -20 282 -32 535 -17 360 -29 475 -55 529 -49 99 -87 104 -53 7z"/> <path d="M352 1325 c-7 -6 -12 -303 -12 -658 l0 -647 100 0 100 0 0 280 0 280 241 0 c366 0 399 31 399 374 0 357 -42 389 -510 385 -169 -1 -312 -8 -318 -14z m608 -365 l0 -160 -210 0 -210 0 0 160 0 160 210 0 210 0 0 -160z"/> <path d="M1493 1326 c-7 -7 -13 -304 -13 -659 l0 -647 110 0 111 0 -6 654 -5 655 -92 5 c-51 2 -98 -1 -105 -8z"/> <path d="M2226 1327 c-40 -6 -84 -33 -115 -70 l-51 -60 0 -527 0 -527 52 -61 52 -62 307 0 c394 0 414 12 426 250 9 177 5 182 -122 201 l-95 14 0 -133 0 -132 -200 0 -200 0 0 450 0 450 200 0 200 0 0 -130 c0 -145 4 -148 145 -109 l75 21 0 120 c0 141 -38 245 -103 280 -47 26 -444 43 -571 25z"/> <path d="M3180 1232 l0 -112 160 0 160 0 0 -550 0 -550 110 0 110 0 0 550 0 550 160 0 160 0 0 100 0 100 -385 0 c-212 0 -405 6 -430 13 -43 11 -45 6 -45 -101z"/> <path d="M4360 738 l0 -601 58 -59 59 -58 299 0 c449 0 428 -39 420 750 l-6 560 -105 6 -105 6 0 -562 0 -561 -205 5 -205 6 -5 555 -6 555 -99 0 -100 0 0 -602z"/> <path d="M5565 1325 c-19 -6 -25 -156 -25 -658 l0 -649 105 6 105 6 6 275 5 275 85 0 84 -1 150 -279 150 -280 116 0 117 0 -142 267 c-155 295 -155 293 -109 293 18 0 63 31 100 68 l68 68 0 223 c0 372 -33 399 -490 397 -165 -1 -311 -6 -325 -11z m595 -366 l0 -160 -202 5 -203 6 1 125 c1 69 2 139 3 155 1 25 37 30 201 30 l200 0 0 -161z"/> <path d="M6788 1322 c-4 -5 -8 -300 -8 -655 l0 -647 340 0 340 0 0 100 0 100 -230 0 -230 0 0 180 0 180 181 0 181 0 -6 105 -6 105 -175 6 -175 6 0 159 0 159 230 0 230 0 0 100 c0 66 -8 100 -25 101 -139 7 -640 7 -647 1z"/> <path d="M7930 1313 c-121 -55 -139 -96 -147 -333 -11 -361 27 -400 388 -400 l229 0 0 -180 0 -180 -200 0 -200 0 0 82 0 81 -65 -14 c-165 -36 -199 -105 -125 -249 47 -90 85 -100 400 -100 l293 0 59 58 c58 59 58 59 58 311 0 385 -25 411 -403 411 l-217 0 0 160 0 160 200 0 200 0 0 -82 0 -83 95 15 c125 18 125 19 125 116 0 112 -60 208 -144 230 -112 29 -479 27 -546 -3z"/> </g> </svg>