<?xml version="1.0" standalone="no"?> <!DOCTYPE svg PUBLIC "-//W3C//DTD SVG 20010904//EN" "http://www.w3.org/TR/2001/REC-SVG-20010904/DTD/svg10.dtd"> <svg version="1.0" xmlns="http://www.w3.org/2000/svg" width="1800.000000pt" height="540.000000pt" viewBox="0 0 1800.000000 540.000000" preserveAspectRatio="xMidYMid meet"> <g transform="translate(0.000000,540.000000) scale(0.100000,-0.100000)" fill="#ffffff" stroke="none"> <path d="M668 4326 c-20 -7 -50 -16 -67 -19 -27 -6 -132 -53 -176 -80 -90 -55 -226 -183 -259 -244 -78 -146 -109 -233 -128 -368 -19 -131 -19 -1708 0 -1850 29 -211 94 -347 238 -489 108 -108 186 -155 354 -216 137 -49 470 -49 625 2 135 44 225 97 315 188 110 111 158 196 201 360 28 109 41 578 16 599 -14 11 -63 13 -251 9 -129 -2 -238 -7 -242 -11 -4 -4 -9 -111 -12 -239 -4 -200 -7 -238 -24 -275 -26 -58 -84 -114 -155 -147 -51 -25 -69 -28 -155 -28 -82 0 -106 4 -150 25 -69 31 -112 68 -146 126 l-27 46 -8 355 c-4 195 -5 630 -1 965 5 538 8 614 22 640 64 116 146 167 284 173 170 8 270 -43 335 -173 18 -35 21 -68 27 -270 6 -195 10 -232 24 -242 21 -17 467 -19 478 -2 12 20 16 320 6 454 -17 220 -81 372 -212 505 -98 99 -193 157 -332 200 -55 17 -92 20 -303 19 -173 0 -250 -4 -277 -13z"/> <path d="M2735 4306 c-49 -18 -109 -44 -132 -59 -24 -15 -46 -27 -50 -27 -12 0 -113 -90 -164 -145 -25 -27 -59 -72 -75 -100 -28 -46 -41 -73 -87 -178 -9 -21 -17 -51 -17 -67 0 -15 -7 -56 -15 -89 -14 -52 -15 -175 -12 -978 4 -942 3 -937 44 -1068 18 -62 37 -101 87 -185 74 -124 186 -227 319 -291 23 -11 50 -25 59 -30 10 -5 34 -13 55 -18 21 -5 52 -14 68 -19 44 -16 191 -32 276 -32 415 3 724 205 842 550 55 163 52 93 51 1130 0 866 -2 959 -17 1000 -9 25 -17 53 -17 63 0 28 -60 166 -94 217 -59 89 -185 215 -241 241 -11 5 -40 21 -65 35 -25 14 -84 39 -133 55 l-87 29 -253 -1 -252 -1 -90 -32z m468 -457 c59 -16 138 -86 172 -155 l30 -59 3 -939 c4 -935 4 -940 -17 -982 -32 -62 -93 -126 -152 -159 -49 -27 -62 -29 -149 -29 -75 1 -105 5 -143 22 -67 30 -119 88 -148 164 l-24 63 0 920 c0 893 1 922 20 975 24 68 102 148 166 172 51 19 184 23 242 7z"/> <path d="M9015 4321 c-60 -18 -159 -63 -225 -102 -104 -62 -214 -185 -272 -301 -61 -124 -67 -144 -83 -268 -24 -178 -17 -1904 8 -1995 23 -88 45 -147 79 -205 4 -8 11 -22 15 -30 19 -43 109 -148 177 -207 53 -47 202 -127 262 -142 22 -5 53 -14 69 -19 85 -29 290 -39 434 -21 115 14 176 33 300 93 89 43 118 64 191 136 86 85 104 111 158 225 88 186 84 142 89 1128 4 752 2 887 -12 1008 -9 77 -22 154 -30 172 -7 18 -23 56 -35 86 -66 164 -192 293 -370 379 -162 79 -182 82 -454 81 -200 0 -251 -4 -301 -18z m424 -478 c61 -19 131 -77 159 -131 46 -89 47 -105 47 -1027 0 -931 0 -928 -51 -1018 -25 -45 -97 -105 -154 -128 -49 -19 -204 -16 -253 5 -42 18 -121 93 -138 128 -5 13 -16 34 -24 48 -13 21 -15 166 -15 974 l0 949 23 45 c32 66 107 136 164 155 64 21 178 21 242 0z"/> <path d="M14461 4320 c-96 -29 -226 -97 -307 -162 -117 -94 -201 -224 -256 -393 -32 -102 -44 -642 -30 -1435 10 -621 12 -658 32 -720 53 -163 155 -317 267 -402 66 -50 159 -108 173 -108 5 0 24 -6 42 -14 151 -63 364 -80 593 -47 162 23 315 101 436 221 124 123 151 167 221 365 22 60 22 62 19 1060 -1 623 -6 1016 -12 1044 -13 60 -76 205 -113 261 -55 84 -178 206 -231 231 -11 5 -40 21 -65 35 -25 14 -85 39 -135 55 -89 29 -90 29 -330 28 -204 0 -250 -3 -304 -19z m416 -476 c80 -27 140 -81 173 -154 26 -56 30 -184 30 -1041 l0 -897 -30 -58 c-34 -67 -82 -113 -149 -146 -38 -18 -63 -22 -141 -23 -86 0 -100 3 -146 29 -73 40 -121 92 -144 159 -19 55 -20 83 -20 987 l0 930 30 63 c34 73 88 124 158 149 60 22 177 23 239 2z"/> <path d="M4380 4283 c-45 -2 -69 -9 -77 -20 -23 -31 -13 -436 11 -460 4 -5 126 -10 270 -13 202 -4 267 -8 279 -19 16 -12 17 -119 17 -1338 0 -1251 1 -1324 18 -1331 21 -8 538 -10 546 -1 4 3 11 591 16 1305 5 714 12 1312 14 1327 2 16 9 34 15 40 8 8 92 14 276 17 198 4 267 8 277 18 16 16 24 438 9 461 -7 11 -140 14 -807 16 -440 1 -828 1 -864 -2z"/> <path d="M6357 4283 c-4 -3 -7 -111 -7 -240 0 -193 2 -235 14 -239 8 -3 134 -9 280 -12 236 -6 267 -9 283 -25 17 -17 18 -88 23 -1345 l5 -1327 278 0 c226 0 279 3 286 14 5 7 9 316 10 685 1 1100 13 1975 25 1985 6 5 132 11 279 13 224 2 269 5 277 18 15 23 13 453 -2 468 -9 9 -218 12 -878 12 -477 0 -870 -3 -873 -7z"/> <path d="M10615 4278 c-3 -7 -4 -724 -3 -1593 l3 -1580 249 -3 c137 -1 253 1 257 5 5 5 9 377 10 828 3 872 6 996 27 1003 12 4 21 -15 93 -178 11 -25 25 -52 30 -60 5 -8 12 -22 15 -30 46 -116 109 -260 149 -340 13 -25 35 -74 50 -110 15 -36 43 -99 62 -140 19 -41 43 -93 53 -115 10 -22 32 -70 49 -107 17 -37 31 -71 31 -75 0 -4 13 -34 30 -68 16 -33 42 -89 58 -125 55 -121 93 -205 138 -298 24 -51 44 -97 44 -102 0 -23 37 -81 55 -85 11 -3 112 -4 225 -3 l205 3 3 1579 c1 1170 -1 1582 -9 1593 -10 11 -59 13 -258 11 l-246 -3 -5 -922 c-4 -658 -8 -925 -16 -933 -13 -13 -44 12 -44 35 0 14 -13 46 -56 142 -13 28 -24 55 -24 58 0 8 -21 58 -205 495 -137 325 -149 355 -179 420 -8 19 -29 69 -46 110 -17 41 -37 89 -44 105 -7 17 -22 50 -33 75 -11 25 -26 61 -33 80 -7 19 -23 58 -35 85 -13 28 -33 75 -45 105 -46 112 -61 138 -83 144 -12 3 -122 6 -245 6 -169 0 -224 -3 -227 -12z"/> <path d="M16065 4267 c-14 -22 -15 -173 -13 -1584 3 -1327 5 -1562 17 -1577 13 -15 38 -17 247 -14 138 2 237 7 243 13 6 6 12 361 17 918 4 536 11 910 16 913 12 8 48 -25 48 -43 0 -7 13 -41 29 -76 30 -63 49 -105 95 -212 15 -33 33 -73 41 -88 8 -16 15 -33 15 -38 0 -4 20 -50 44 -101 24 -51 56 -120 71 -153 15 -33 35 -78 45 -100 10 -22 39 -84 64 -137 25 -54 46 -100 46 -103 0 -3 14 -35 31 -72 17 -38 43 -93 56 -123 14 -30 34 -75 45 -100 12 -25 27 -58 33 -75 7 -16 31 -68 53 -115 21 -47 56 -123 76 -170 62 -144 43 -134 263 -138 115 -2 199 1 216 7 l27 11 0 1572 c0 881 -4 1579 -9 1587 -13 19 -463 30 -486 11 -13 -11 -15 -115 -16 -869 -1 -891 -4 -986 -28 -986 -13 0 -56 88 -98 200 -9 22 -28 68 -44 102 -16 35 -29 67 -29 72 0 8 -24 66 -69 166 -10 22 -60 139 -111 260 -122 291 -178 424 -194 460 -8 17 -35 82 -61 145 -26 63 -61 143 -76 178 -16 34 -29 67 -29 72 0 6 -13 37 -30 70 -16 33 -30 66 -30 73 0 8 -10 25 -23 39 l-23 25 -226 2 -227 2 -16 -24z"/> <path d="M13070 3823 c-8 -3 -40 -15 -70 -26 -67 -25 -153 -103 -183 -167 -31 -66 -31 -217 1 -278 20 -37 82 -107 123 -138 41 -31 117 -49 204 -49 83 0 95 3 154 35 76 41 154 130 170 196 14 55 14 148 0 199 -14 49 -88 146 -133 174 -62 39 -223 72 -266 54z"/> <path d="M13055 2216 c-85 -29 -121 -50 -177 -107 -72 -74 -93 -136 -85 -245 6 -85 31 -138 92 -199 78 -78 111 -90 256 -90 l127 0 55 38 c61 42 128 123 146 176 16 49 14 175 -4 217 -67 161 -259 259 -410 210z"/> </g> </svg>