<?xml version="1.0" standalone="no"?>
<!DOCTYPE svg PUBLIC "-//W3C//DTD SVG 20010904//EN"
 "http://www.w3.org/TR/2001/REC-SVG-20010904/DTD/svg10.dtd">
<svg version="1.0" xmlns="http://www.w3.org/2000/svg"
 width="1800.000000pt" height="540.000000pt" viewBox="0 0 1800.000000 540.000000"
 preserveAspectRatio="xMidYMid meet">
<g transform="translate(0.000000,540.000000) scale(0.100000,-0.100000)"
fill="#ffffff" stroke="none">
<path d="M3115 4563 c-150 -24 -357 -65 -430 -85 -22 -6 -60 -15 -85 -18 -50
-8 -192 -42 -437 -104 -35 -9 -72 -16 -84 -16 -12 0 -45 -6 -73 -14 -76 -21
-319 -62 -521 -87 -49 -6 -211 -13 -360 -16 -219 -5 -293 -2 -390 11 -247 34
-470 72 -541 93 -28 8 -80 13 -115 11 l-64 -3 1 -36 c1 -20 10 -49 21 -65 12
-16 47 -69 78 -119 71 -109 152 -235 165 -255 6 -8 34 -51 62 -95 28 -44 82
-126 120 -183 37 -57 68 -105 68 -107 0 -2 20 -33 45 -69 25 -37 45 -68 45
-71 0 -17 74 -104 97 -114 15 -7 96 -19 178 -27 167 -15 435 -5 555 22 36 8
75 14 88 14 20 0 150 29 322 71 25 6 63 15 85 20 22 5 72 18 110 29 39 11 108
29 155 40 47 12 108 27 135 35 28 8 79 21 115 31 36 9 88 22 115 30 50 13 144
32 260 54 85 16 364 40 470 40 110 0 299 -18 340 -32 17 -6 50 -14 75 -18 25
-4 70 -18 100 -30 30 -12 68 -25 83 -30 16 -5 34 -13 40 -18 7 -5 28 -12 48
-16 29 -5 39 -2 56 16 25 28 150 219 170 258 4 8 26 43 50 78 24 35 43 65 43
67 0 2 20 33 45 68 25 36 45 67 45 69 0 3 20 36 45 74 69 105 69 105 -105 222
-223 149 -428 230 -696 276 -113 20 -401 19 -529 -1z"/>
<path d="M5229 3598 c-9 -18 -11 -317 -6 -1303 4 -704 11 -1293 15 -1310 l8
-30 210 -2 c118 -2 215 1 224 6 19 13 27 191 31 691 1 212 6 393 11 403 8 15
27 17 186 17 295 1 610 16 627 30 12 10 15 48 15 221 0 205 0 209 -22 223 -19
11 -100 16 -411 22 -267 4 -390 10 -395 18 -7 11 -11 521 -4 544 3 9 79 12
331 13 179 1 427 4 551 8 l225 6 12 35 c15 45 17 326 2 386 l-11 44 -794 0
-793 0 -12 -22z"/>
<path d="M14135 3496 c-63 -43 -96 -92 -107 -159 -31 -189 75 -317 261 -317
110 0 187 44 234 135 15 31 20 60 21 127 0 86 0 88 -39 144 -58 83 -104 104
-225 104 -92 0 -97 -1 -145 -34z"/>
<path d="M12917 3083 c-3 -32 -4 -420 -3 -863 1 -759 2 -808 20 -860 70 -204
186 -322 383 -386 71 -24 430 -32 458 -11 19 14 20 29 23 200 4 219 5 217 -91
217 -153 1 -267 36 -300 93 -14 26 -21 727 -7 764 8 20 15 21 193 25 102 1
189 7 194 11 4 5 8 107 8 227 0 166 -3 222 -13 232 -9 9 -63 14 -196 16 l-183
3 -7 46 c-3 25 -6 106 -6 179 0 73 -3 139 -6 148 -5 14 -35 16 -234 16 l-228
0 -5 -57z"/>
<path d="M2900 3065 c-80 -19 -256 -56 -320 -67 -30 -5 -77 -16 -105 -23 -137
-39 -246 -66 -291 -75 -27 -5 -69 -14 -94 -20 -135 -34 -153 -37 -375 -74 -88
-15 -185 -31 -215 -37 -30 -5 -122 -14 -205 -20 -82 -5 -166 -13 -185 -17 -32
-7 -35 -11 -38 -47 -2 -34 7 -54 60 -135 34 -52 95 -147 136 -210 42 -63 114
-173 161 -245 47 -71 88 -134 91 -140 5 -10 23 -38 118 -185 30 -47 75 -116
100 -155 25 -38 68 -106 97 -150 29 -44 91 -141 140 -215 98 -152 268 -406
288 -432 16 -20 42 -24 52 -8 7 11 -9 109 -30 185 -7 28 -21 86 -30 130 -33
164 -46 221 -60 271 -8 28 -15 61 -15 74 0 13 -6 46 -14 74 -8 28 -22 89 -31
136 -10 47 -21 96 -26 110 -5 14 -14 52 -20 85 -6 33 -13 73 -16 88 -7 38 15
60 85 82 31 10 73 23 92 30 19 7 98 27 175 45 77 17 160 36 185 42 66 17 408
22 467 8 26 -6 58 -14 70 -17 48 -11 67 4 140 114 114 174 208 317 213 328 7
14 53 85 121 188 33 49 59 90 59 92 0 2 14 24 31 49 53 80 35 97 -146 140 -90
21 -577 22 -665 1z"/>
<path d="M7440 2765 c-25 -8 -56 -15 -70 -15 -31 -1 -106 -27 -185 -65 -167
-80 -324 -253 -393 -435 -41 -108 -52 -189 -52 -381 0 -191 10 -272 46 -354 7
-16 22 -54 34 -84 42 -105 135 -223 234 -297 70 -53 198 -117 276 -137 253
-67 557 -47 713 46 59 36 77 31 77 -21 0 -70 8 -72 243 -72 174 0 208 2 221
16 14 14 16 107 16 882 0 528 -4 873 -10 882 -8 12 -45 16 -216 18 -202 3
-207 3 -230 -19 -13 -12 -24 -28 -24 -35 0 -7 -4 -15 -9 -18 -7 -5 -72 22
-133 54 -78 42 -443 65 -538 35z m407 -451 c21 -9 45 -20 53 -25 8 -5 25 -13
37 -18 41 -18 114 -106 151 -181 36 -75 36 -75 36 -210 1 -173 -19 -235 -105
-323 -57 -59 -74 -72 -139 -102 -181 -86 -414 -49 -541 85 -88 92 -122 189
-122 347 0 109 10 156 44 213 5 8 13 24 18 35 20 44 134 139 211 177 50 24
302 25 357 2z"/>
<path d="M11490 2764 c-25 -7 -56 -13 -70 -13 -61 -2 -253 -97 -340 -168 -73
-59 -152 -161 -197 -253 -84 -176 -98 -236 -97 -450 0 -198 22 -319 80 -433 8
-16 14 -33 14 -39 0 -23 96 -155 158 -216 67 -65 170 -134 241 -160 154 -56
248 -72 417 -72 183 0 285 22 397 84 58 33 77 29 77 -17 0 -22 8 -41 23 -55
22 -21 32 -22 224 -22 170 0 204 2 217 16 14 14 16 108 16 884 0 776 -2 870
-16 884 -13 14 -47 16 -215 16 -112 0 -208 -4 -219 -10 -10 -5 -23 -23 -28
-40 -12 -34 -7 -35 -125 19 -38 17 -79 31 -92 31 -12 0 -42 7 -65 15 -54 19
-333 19 -400 -1z m407 -450 c21 -9 45 -20 53 -25 8 -5 25 -13 37 -18 39 -17
113 -105 145 -171 63 -131 65 -325 5 -451 -49 -102 -156 -183 -299 -226 -96
-28 -245 -14 -336 32 -52 27 -157 130 -180 177 -50 103 -54 124 -55 241 -1
119 1 129 55 245 28 61 114 142 189 179 63 31 67 32 206 33 110 0 151 -4 180
-16z"/>
<path d="M15465 2763 c-33 -8 -73 -19 -90 -25 -16 -5 -44 -13 -61 -17 -150
-38 -366 -223 -447 -383 -85 -169 -101 -254 -94 -528 5 -205 5 -208 66 -360
50 -124 166 -271 276 -347 83 -57 207 -109 333 -138 92 -22 407 -16 487 9 126
38 190 72 293 151 54 42 70 72 54 101 -12 22 -274 284 -283 284 -5 0 -34 -16
-66 -35 -32 -19 -82 -42 -111 -51 -65 -18 -219 -23 -253 -8 -13 7 -44 20 -69
30 -91 36 -189 139 -223 234 -37 105 -29 306 17 402 78 165 278 263 468 228
66 -12 145 -43 205 -80 18 -12 26 -12 48 0 29 15 233 223 260 264 24 37 11 63
-62 118 -61 48 -238 138 -270 138 -10 0 -40 7 -67 15 -65 20 -326 18 -411 -2z"/>
<path d="M17105 2768 c-33 -5 -87 -12 -120 -17 -141 -20 -311 -111 -403 -217
-69 -78 -112 -194 -112 -299 1 -209 100 -363 295 -459 51 -25 100 -46 109 -46
8 0 30 -6 48 -14 35 -15 223 -47 273 -46 43 0 174 -30 213 -49 18 -9 42 -30
53 -47 41 -66 15 -127 -70 -170 -47 -24 -71 -29 -153 -32 -68 -3 -113 1 -151
12 -30 9 -64 16 -76 16 -19 0 -51 12 -131 48 -40 18 -138 80 -158 99 -28 27
-68 15 -101 -29 -176 -238 -181 -245 -181 -271 0 -16 50 -74 84 -96 13 -9 48
-32 77 -52 50 -34 122 -70 194 -98 97 -37 145 -43 353 -48 180 -4 226 -2 290
12 241 55 368 143 471 325 25 46 51 163 51 233 0 278 -172 468 -480 528 -132
25 -231 39 -281 39 -60 0 -147 22 -192 49 -32 18 -67 69 -67 98 0 10 13 34 28
52 85 102 421 93 568 -16 60 -44 79 -31 244 167 89 107 89 119 0 178 -138 90
-215 118 -400 142 -159 21 -186 22 -275 8z"/>
<path d="M9685 2751 c-27 -4 -63 -13 -80 -20 -84 -37 -125 -58 -177 -94 -35
-23 -66 -37 -80 -35 -20 3 -24 10 -28 61 -8 86 -20 90 -264 85 -130 -2 -169
-6 -175 -17 -18 -28 -23 -289 -19 -1012 2 -605 5 -739 17 -752 12 -15 40 -17
222 -17 205 0 209 0 223 23 12 18 15 110 18 542 l4 520 28 49 c77 139 153 199
284 226 51 10 76 10 140 0 114 -20 194 -78 247 -180 37 -73 45 -186 45 -683 0
-297 4 -465 10 -478 10 -18 23 -19 225 -19 l215 0 15 24 c14 22 16 86 13 578
-4 538 -5 555 -27 638 -46 172 -155 345 -273 434 -26 20 -50 36 -54 36 -4 0
-15 6 -23 14 -9 7 -50 27 -91 44 -68 27 -88 31 -220 35 -80 3 -167 2 -195 -2z"/>
<path d="M14072 2741 c-7 -4 -17 -26 -22 -47 -5 -21 -9 -418 -10 -881 0 -825
0 -842 19 -853 12 -6 101 -10 224 -10 178 0 206 2 218 17 12 13 14 164 14 890
0 766 -2 875 -15 883 -19 12 -410 13 -428 1z"/>
</g>
</svg>
