<?xml version="1.0" standalone="no"?> <!DOCTYPE svg PUBLIC "-//W3C//DTD SVG 20010904//EN" "http://www.w3.org/TR/2001/REC-SVG-20010904/DTD/svg10.dtd"> <svg version="1.0" xmlns="http://www.w3.org/2000/svg" width="1800.000000pt" height="522.000000pt" viewBox="0 0 1800.000000 522.000000" preserveAspectRatio="xMidYMid meet"> <g transform="translate(0.000000,522.000000) scale(0.100000,-0.100000)" fill="#ffffff" stroke="none"> <path d="M13823 5110 c-210 -29 -397 -113 -510 -226 -116 -118 -153 -210 -160 -401 -5 -116 -3 -139 17 -200 79 -246 257 -354 825 -498 233 -59 285 -98 285 -213 0 -89 -63 -148 -173 -159 -126 -13 -227 64 -227 175 0 21 -5 43 -12 50 -9 9 -105 12 -369 12 -312 0 -360 -2 -373 -16 -34 -34 -8 -221 47 -334 46 -95 152 -196 262 -250 194 -94 372 -125 680 -117 293 7 480 61 646 184 129 96 225 238 255 377 16 71 18 247 5 328 -29 172 -187 329 -414 410 -126 45 -195 68 -232 77 -128 31 -354 91 -380 101 -57 22 -105 83 -105 135 0 54 48 113 109 134 46 15 87 14 148 -4 56 -17 87 -53 99 -114 13 -61 18 -62 373 -59 273 3 323 5 331 18 15 23 12 86 -6 159 -52 210 -190 333 -455 407 -88 25 -110 26 -349 29 -140 2 -283 0 -317 -5z"/> <path d="M106 5084 c-14 -14 -16 -124 -16 -1059 0 -1022 0 -1045 19 -1055 32 -16 722 -14 745 3 17 13 19 39 21 391 1 241 6 381 12 387 6 6 78 11 178 11 132 1 169 -2 176 -13 5 -8 9 -184 9 -392 l0 -377 26 -10 c35 -14 729 -13 755 0 19 10 19 33 19 1060 0 1017 -1 1050 -19 1059 -12 7 -156 10 -390 8 -318 -2 -373 -4 -381 -17 -6 -9 -10 -155 -10 -347 0 -288 -2 -334 -16 -347 -23 -23 -325 -24 -344 -1 -10 12 -13 98 -15 352 -2 314 -3 337 -20 350 -15 10 -92 13 -376 13 -312 0 -360 -2 -373 -16z"/> <path d="M3558 5089 c-17 -9 -18 -71 -18 -1063 l0 -1054 23 -6 c12 -3 364 -6 783 -6 592 0 764 3 777 13 16 11 17 36 15 272 l-3 260 -386 5 c-307 4 -389 8 -402 19 -14 11 -17 32 -17 110 0 62 5 103 13 114 11 15 47 17 362 19 l350 3 0 265 0 265 -353 3 -353 2 -9 26 c-13 33 -13 155 0 188 l10 26 369 0 c327 0 371 2 386 16 14 14 16 47 13 264 -2 137 -7 252 -11 257 -13 12 -1528 15 -1549 2z"/> <path d="M7018 5083 c-17 -19 -50 -114 -298 -873 -89 -272 -179 -544 -200 -605 -21 -60 -54 -164 -75 -230 -55 -177 -95 -296 -112 -333 -8 -18 -13 -43 -11 -55 l3 -22 386 -3 c301 -2 389 1 397 10 5 7 22 69 37 138 15 69 33 140 41 158 l13 32 295 0 c328 0 320 2 332 -68 3 -20 12 -62 19 -92 7 -30 16 -73 20 -95 3 -22 13 -50 21 -62 l14 -23 420 0 c247 0 421 4 425 9 5 10 -23 114 -68 251 -25 74 -91 283 -124 390 -9 30 -29 93 -44 140 -15 47 -55 175 -89 285 -33 110 -81 265 -107 345 -25 80 -53 170 -63 200 -10 30 -30 96 -45 145 -78 250 -109 341 -122 355 -12 13 -87 15 -531 18 -487 3 -519 2 -534 -15z m533 -578 c9 -50 24 -124 33 -165 23 -100 97 -448 103 -482 8 -40 -23 -48 -188 -48 -124 0 -141 2 -158 19 -11 11 -18 28 -16 38 27 132 165 714 172 726 3 4 12 7 21 5 13 -2 21 -26 33 -93z"/> <path d="M9948 5089 c-17 -9 -18 -71 -18 -1059 0 -1027 0 -1050 19 -1060 27 -14 725 -14 752 0 18 10 19 25 19 378 0 273 3 371 12 380 17 17 117 15 169 -3 24 -9 53 -25 65 -36 43 -41 83 -189 99 -364 8 -94 55 -321 71 -343 11 -15 46 -17 371 -20 197 -2 373 0 391 3 40 7 40 8 3 200 -30 152 -61 367 -61 419 0 41 -29 161 -58 241 -39 105 -95 154 -244 214 -40 15 -27 33 57 75 139 70 226 176 259 316 30 124 15 274 -36 379 -86 178 -238 250 -595 281 -160 13 -1252 13 -1275 -1z m1029 -488 c55 -28 80 -59 93 -115 24 -110 -23 -202 -127 -248 -56 -25 -199 -30 -213 -8 -5 8 -10 95 -10 192 0 221 -5 213 127 205 62 -4 105 -13 130 -26z"/> <path d="M16078 5089 c-16 -9 -18 -33 -18 -272 0 -191 3 -266 12 -275 9 -9 77 -12 243 -12 166 0 234 -3 243 -12 9 -9 12 -193 12 -767 0 -459 4 -762 10 -771 8 -13 63 -15 399 -15 214 0 393 4 398 8 4 5 9 353 10 774 1 421 5 768 8 771 4 4 118 9 253 12 l247 5 3 269 c2 190 -1 273 -9 282 -10 12 -159 14 -903 14 -586 -1 -897 -4 -908 -11z"/> <path d="M10409 1988 c-2 -43 3 -183 6 -187 4 -4 218 -2 222 2 6 7 6 184 -1 195 -5 8 -42 12 -117 12 -106 0 -109 -1 -110 -22z"/> <path d="M4095 1565 c-33 -18 -80 -56 -105 -84 -25 -28 -50 -51 -57 -51 -20 0 -36 40 -30 76 10 58 -5 65 -123 62 l-105 -3 -3 -537 c-2 -516 -1 -538 16 -547 23 -12 180 -11 204 1 16 7 17 41 20 371 l3 362 29 57 c51 101 159 155 269 134 42 -8 88 -49 116 -103 20 -41 21 -54 21 -427 0 -287 3 -387 12 -392 17 -11 190 -12 210 -2 15 7 17 38 18 325 0 351 4 412 31 463 21 42 82 102 126 124 37 18 134 21 166 5 36 -19 88 -72 105 -109 14 -30 18 -89 22 -425 l5 -390 102 -1 c57 0 108 3 115 7 15 10 19 545 6 752 -7 111 -12 137 -38 192 -33 71 -76 111 -159 151 -50 23 -64 25 -156 22 -87 -3 -108 -7 -159 -33 -36 -18 -78 -51 -111 -87 -52 -58 -83 -71 -104 -45 -6 6 -26 32 -44 57 -19 26 -56 58 -91 77 -55 31 -63 33 -155 32 -89 -1 -100 -3 -156 -34z"/> <path d="M5820 1571 c-41 -15 -92 -39 -112 -53 -71 -49 -144 -172 -136 -229 3 -23 6 -24 100 -27 l96 -3 29 58 c20 41 41 66 73 88 42 28 53 30 145 33 125 4 174 -17 212 -88 63 -121 -7 -210 -193 -240 -297 -49 -338 -59 -408 -104 -36 -23 -60 -49 -81 -87 -28 -50 -30 -61 -30 -154 0 -104 8 -129 58 -197 27 -37 91 -78 152 -100 55 -19 241 -25 273 -9 9 5 38 17 64 26 26 9 69 38 100 65 29 28 56 50 60 50 17 0 38 -34 38 -61 0 -53 24 -65 133 -67 53 -1 98 2 101 6 2 4 -2 36 -10 72 -10 48 -14 156 -14 406 0 188 -4 365 -10 393 -19 101 -99 183 -223 228 -54 20 -81 23 -202 22 -128 0 -146 -2 -215 -28z m426 -556 c13 -20 16 -44 12 -118 -5 -110 -31 -172 -93 -222 -74 -60 -101 -69 -210 -69 -89 -1 -104 2 -135 23 -61 41 -75 68 -75 143 0 60 3 70 30 98 50 53 105 78 227 105 64 13 138 34 165 44 61 25 60 25 79 -4z"/> <path d="M7021 1570 c-161 -70 -238 -174 -286 -383 -20 -90 -19 -145 4 -256 40 -192 156 -324 331 -377 92 -28 271 -15 301 22 6 8 17 14 24 14 7 0 33 20 58 45 74 72 97 59 97 -55 0 -114 -28 -202 -81 -256 -64 -65 -105 -77 -241 -72 -90 4 -122 9 -156 27 -36 18 -73 60 -85 94 -3 10 -213 14 -223 5 -11 -12 18 -82 54 -132 42 -57 115 -107 203 -137 55 -19 85 -22 229 -22 173 0 202 5 310 55 71 32 143 113 176 199 l29 74 0 575 0 575 -107 3 -107 3 -3 -53 c-3 -47 -6 -53 -26 -56 -17 -3 -35 8 -66 40 -23 24 -67 55 -98 71 -52 25 -67 27 -165 26 -96 0 -115 -4 -172 -29z m300 -154 c153 -37 229 -151 229 -347 0 -135 -28 -215 -99 -281 -66 -61 -130 -83 -222 -75 -120 10 -209 83 -245 199 -28 91 -25 252 5 331 37 96 102 155 192 175 60 14 76 13 140 -2z"/> <path d="M8328 1571 c-90 -33 -122 -55 -181 -122 -31 -36 -48 -66 -57 -104 -20 -81 -16 -85 89 -85 99 0 99 0 134 69 13 25 40 58 60 75 36 28 44 31 136 34 121 5 159 -6 205 -60 70 -81 52 -187 -38 -228 -49 -23 -153 -50 -192 -50 -57 -1 -260 -47 -309 -71 -75 -36 -129 -96 -143 -161 -27 -125 -16 -202 40 -288 26 -40 47 -57 108 -87 75 -38 75 -38 200 -38 119 0 128 1 191 31 36 17 82 48 102 68 20 20 45 36 55 36 18 0 42 -37 42 -65 0 -8 8 -23 18 -33 15 -15 34 -18 117 -17 112 2 108 -2 86 80 -6 24 -11 184 -11 412 0 342 -2 375 -19 415 -45 104 -106 156 -228 197 -51 17 -86 21 -195 20 -120 0 -141 -3 -210 -28z m423 -547 c20 -25 13 -204 -11 -258 -22 -51 -78 -109 -133 -138 -59 -32 -225 -33 -275 -3 -52 31 -72 72 -72 145 0 78 17 108 84 148 46 28 196 72 245 72 10 0 43 11 72 24 65 30 73 31 90 10z"/> <path d="M11406 1585 c-11 -8 -26 -15 -33 -15 -22 0 -117 -70 -131 -96 -13 -25 -58 -42 -72 -28 -5 5 -10 34 -12 64 l-3 55 -110 0 -110 0 -3 -537 c-2 -504 -1 -538 15 -545 15 -7 137 -9 205 -4 16 1 17 31 20 369 l3 367 29 53 c53 95 134 142 246 142 80 0 109 -12 156 -62 65 -69 64 -59 64 -472 0 -321 2 -377 15 -390 12 -12 35 -14 108 -12 50 2 98 4 105 5 18 2 17 783 -2 861 -28 117 -84 183 -200 234 -51 23 -72 26 -165 26 -77 -1 -111 -5 -125 -15z"/> <path d="M12540 1585 c-14 -8 -33 -14 -42 -15 -35 0 -134 -63 -194 -122 -69 -67 -121 -164 -150 -278 -22 -86 -15 -270 14 -350 65 -184 163 -286 336 -351 82 -30 311 -33 378 -4 149 62 213 112 269 210 48 83 46 85 -79 85 l-109 0 -31 -44 c-22 -30 -51 -54 -90 -73 -49 -24 -69 -28 -142 -28 -73 0 -93 4 -142 28 -86 42 -135 108 -169 226 l-19 66 25 22 25 22 383 -4 c228 -3 388 -1 397 5 19 12 15 145 -7 215 -68 213 -153 312 -328 378 -62 24 -84 27 -185 27 -81 -1 -122 -5 -140 -15z m265 -174 c71 -34 104 -68 133 -138 24 -57 29 -142 10 -161 -9 -9 -82 -12 -269 -12 -235 0 -259 2 -280 18 l-22 19 17 63 c44 156 144 238 291 240 46 0 74 -7 120 -29z"/> <path d="M13670 1580 c-99 -32 -156 -71 -199 -135 -39 -59 -53 -131 -41 -216 24 -166 114 -226 430 -284 89 -17 197 -57 228 -86 29 -28 32 -35 32 -93 0 -72 -15 -99 -78 -138 -33 -21 -49 -23 -152 -23 -99 1 -121 4 -156 22 -45 24 -96 82 -109 123 -4 14 -13 28 -19 32 -17 11 -214 9 -221 -2 -8 -13 21 -98 49 -140 47 -70 95 -111 170 -145 94 -44 184 -56 343 -49 102 5 127 10 186 35 132 58 180 108 212 222 28 98 6 210 -56 288 -45 56 -146 100 -321 138 -78 17 -150 31 -159 31 -22 0 -98 35 -129 59 -22 18 -25 27 -25 86 0 62 3 69 32 95 74 66 262 65 339 -2 19 -17 42 -44 50 -60 l15 -29 107 3 107 3 -3 30 c-7 62 -80 153 -153 190 -105 54 -155 65 -294 64 -95 -1 -145 -6 -185 -19z"/> <path d="M9286 1554 c-9 -24 -7 -137 3 -153 7 -11 55 -13 272 -10 317 5 309 9 192 -113 -70 -74 -219 -254 -429 -518 -62 -79 -72 -96 -77 -142 -6 -54 -3 -125 6 -135 4 -3 815 -7 900 -3 4 0 6 39 5 88 l-3 87 -300 1 c-166 0 -306 4 -313 8 -24 15 -10 38 71 119 46 45 153 170 239 277 86 107 171 211 188 230 34 39 36 42 69 88 17 24 24 50 27 95 5 107 51 97 -426 97 -372 0 -419 -2 -424 -16z"/> <path d="M10410 1025 c0 -300 3 -546 8 -546 4 -1 51 -3 105 -4 65 -1 101 3 107 10 7 8 9 207 8 546 l-3 534 -112 3 -113 3 0 -546z"/> </g> </svg>