<?xml version="1.0" standalone="no"?>
<!DOCTYPE svg PUBLIC "-//W3C//DTD SVG 20010904//EN"
 "http://www.w3.org/TR/2001/REC-SVG-20010904/DTD/svg10.dtd">
<svg version="1.0" xmlns="http://www.w3.org/2000/svg"
 width="1800.000000pt" height="1800.000000pt" viewBox="0 0 1800.000000 1800.000000"
 preserveAspectRatio="xMidYMid meet">
<g transform="translate(0.000000,1800.000000) scale(0.100000,-0.100000)"
fill="#ffffff" stroke="none">
<path d="M8535 17901 c-110 -4 -243 -13 -295 -19 -52 -6 -167 -19 -255 -27
-88 -9 -193 -23 -234 -31 -40 -8 -89 -14 -108 -14 -19 0 -64 -6 -101 -14 -37
-8 -110 -21 -162 -31 -162 -28 -408 -81 -560 -121 -117 -30 -287 -76 -325 -88
-22 -7 -67 -21 -100 -31 -97 -29 -247 -76 -285 -90 -19 -7 -71 -27 -116 -44
-44 -17 -85 -31 -90 -31 -9 0 -180 -67 -349 -137 -320 -133 -725 -333 -990
-490 -55 -32 -107 -62 -115 -66 -8 -4 -28 -16 -45 -27 -16 -11 -43 -27 -60
-36 -16 -9 -63 -39 -104 -65 -41 -27 -75 -49 -77 -49 -2 0 -54 -35 -116 -77
-62 -42 -133 -90 -158 -107 -62 -41 -434 -321 -490 -367 -217 -181 -297 -250
-394 -339 -256 -234 -454 -433 -656 -659 -41 -46 -80 -89 -86 -95 -15 -16
-163 -194 -209 -251 -21 -28 -42 -52 -45 -55 -10 -8 -303 -400 -340 -455 -124
-184 -162 -241 -216 -325 -34 -52 -69 -108 -78 -125 -9 -16 -25 -43 -36 -60
-11 -16 -31 -50 -45 -75 -14 -25 -41 -72 -60 -105 -20 -33 -40 -69 -45 -80 -6
-11 -22 -40 -36 -65 -64 -113 -237 -462 -329 -665 -57 -126 -205 -496 -205
-512 0 -7 -6 -27 -14 -45 -8 -18 -21 -51 -29 -73 -8 -22 -22 -58 -30 -80 -22
-59 -98 -294 -108 -335 -4 -19 -17 -66 -29 -105 -30 -102 -81 -293 -91 -345
-5 -25 -13 -58 -18 -75 -13 -46 -64 -290 -85 -410 -57 -321 -86 -523 -105
-750 -6 -60 -15 -153 -20 -205 -27 -259 -21 -1182 9 -1445 5 -49 17 -155 25
-235 36 -333 112 -772 180 -1040 8 -30 23 -94 35 -142 12 -48 37 -143 56 -210
20 -68 39 -138 44 -156 5 -19 13 -46 18 -60 5 -15 24 -74 42 -132 18 -58 37
-114 42 -125 4 -11 12 -33 17 -50 5 -16 19 -55 31 -85 12 -30 24 -64 27 -75
10 -41 112 -296 167 -420 8 -16 24 -55 36 -85 44 -109 212 -451 311 -635 27
-49 58 -108 70 -130 76 -140 360 -595 460 -735 61 -85 273 -373 293 -396 15
-18 80 -99 168 -209 22 -27 54 -66 72 -85 17 -20 56 -65 86 -100 90 -108 153
-174 430 -450 266 -266 475 -453 755 -676 151 -120 173 -136 320 -243 93 -67
384 -264 405 -274 8 -4 42 -25 75 -46 325 -212 848 -485 1245 -651 69 -28 132
-55 140 -59 16 -8 169 -68 230 -90 19 -7 71 -26 115 -42 44 -17 95 -34 113
-39 18 -4 57 -17 85 -28 29 -11 86 -30 127 -42 41 -12 93 -28 115 -35 22 -7
67 -20 100 -30 33 -9 80 -23 105 -30 25 -7 77 -20 115 -29 39 -10 93 -23 120
-31 60 -17 152 -38 260 -59 44 -9 109 -23 145 -30 36 -8 110 -22 165 -31 55
-9 136 -22 180 -30 44 -7 139 -21 210 -30 72 -9 183 -22 248 -30 65 -8 148
-15 184 -15 36 0 140 -7 231 -16 193 -18 858 -15 1102 5 351 29 578 54 775 87
50 8 131 21 180 29 85 14 152 27 305 60 136 29 217 47 265 60 28 8 79 21 115
30 67 16 88 22 270 75 142 41 381 117 460 146 36 14 88 33 115 43 102 37 221
82 250 95 17 8 86 37 155 66 167 70 217 94 475 221 398 197 633 334 1020 592
242 162 677 494 855 653 19 17 87 77 150 134 142 127 495 479 621 620 359 400
652 784 924 1210 26 41 61 94 76 118 16 24 29 45 29 47 0 3 35 65 79 137 168
285 374 694 500 998 29 69 58 139 66 155 14 32 58 147 100 260 14 39 34 93 44
120 49 131 165 517 216 715 9 36 23 88 30 115 14 53 33 138 60 270 9 44 23
107 30 140 8 33 21 107 30 165 9 58 23 135 30 171 8 37 15 81 15 98 0 17 6 73
14 124 67 437 95 1199 62 1672 -26 376 -60 695 -91 865 -8 41 -21 122 -30 180
-9 58 -23 134 -30 170 -8 36 -22 99 -30 140 -30 140 -47 215 -60 265 -8 28
-21 82 -31 120 -9 39 -22 90 -29 115 -14 48 -65 219 -92 310 -9 30 -27 87 -41
125 -13 39 -28 84 -32 100 -5 17 -22 66 -39 110 -16 44 -35 96 -42 115 -42
118 -113 294 -158 393 -17 37 -31 70 -31 74 0 3 -14 36 -31 72 -16 36 -36 80
-44 96 -27 60 -227 460 -234 470 -5 5 -26 44 -48 85 -67 126 -184 327 -248
425 -80 124 -228 347 -275 414 -69 99 -285 387 -324 432 -17 19 -68 80 -112
135 -93 112 -78 95 -282 320 -182 202 -435 453 -627 624 -33 29 -75 66 -93 83
-42 36 -189 159 -291 241 -95 77 -398 306 -406 306 -3 0 -38 24 -78 53 -101
75 -436 293 -465 305 -10 3 -33 17 -52 30 -19 13 -44 28 -55 33 -11 5 -29 15
-40 21 -52 34 -124 74 -315 176 -136 72 -338 170 -510 247 -47 20 -108 48
-137 61 -28 13 -55 24 -59 24 -4 0 -25 9 -48 19 -36 17 -207 84 -306 120 -142
52 -464 158 -565 186 -33 9 -80 23 -105 30 -25 8 -74 21 -110 31 -36 9 -85 22
-110 29 -25 7 -81 20 -125 30 -44 10 -100 24 -124 31 -25 8 -55 14 -69 14 -13
0 -51 7 -85 15 -94 22 -244 48 -482 85 -87 13 -348 43 -561 64 -188 19 -908
29 -1229 17z m-144 -1396 c4 -38 12 -88 18 -110 6 -22 11 -57 11 -78 0 -30 -5
-40 -24 -48 -34 -16 -276 -500 -275 -550 0 -19 8 -70 18 -114 l18 -80 51 3
c60 3 58 6 65 -123 3 -44 11 -100 18 -123 18 -61 6 -69 -121 -81 -125 -12
-229 -27 -325 -46 -38 -8 -106 -22 -150 -31 -44 -9 -93 -20 -108 -25 -26 -8
-29 -5 -41 24 -19 45 -50 194 -50 242 -1 36 2 40 30 45 17 4 36 10 42 14 16
10 15 61 -3 120 -8 27 -15 63 -15 79 0 33 7 25 -263 282 -166 158 -169 160
-220 165 l-52 5 -5 90 c-3 50 -12 114 -20 144 -13 49 -13 54 4 66 10 8 37 16
59 20 23 4 65 13 92 20 28 8 84 20 125 29 41 8 109 22 150 31 41 8 85 15 98
15 13 0 52 7 88 16 43 11 69 13 75 7 5 -5 14 -48 19 -94 5 -46 14 -101 20
-122 6 -21 10 -52 8 -70 -2 -27 -8 -33 -32 -37 -17 -3 -29 -8 -28 -12 1 -5 2
-14 2 -20 0 -7 15 -30 33 -50 17 -20 55 -66 82 -102 28 -36 56 -68 63 -71 16
-6 32 2 32 17 0 5 6 24 14 41 7 18 21 52 31 77 9 25 24 59 32 77 19 40 11 63
-21 63 -28 0 -25 -10 -52 184 -13 90 -14 120 -5 126 7 4 58 12 114 19 56 6
140 18 187 25 47 8 112 13 145 13 l60 -2 6 -70z m1603 25 c142 -16 305 -40
371 -55 33 -7 83 -16 112 -20 29 -4 57 -13 64 -21 13 -16 10 -55 -37 -364 -7
-52 -21 -144 -29 -205 -9 -60 -22 -150 -30 -200 -8 -49 -19 -130 -26 -180 -12
-90 -15 -115 -42 -280 -25 -152 -60 -229 -136 -305 -116 -114 -288 -144 -476
-81 -85 28 -111 38 -195 80 -44 21 -47 41 -22 186 l19 110 34 -1 c19 -1 54 -7
78 -13 78 -21 136 22 163 119 21 72 48 226 48 268 0 18 6 63 14 100 8 37 21
121 31 187 9 66 23 151 31 189 16 80 18 152 4 161 -6 3 -38 9 -73 13 l-62 7
-3 35 c-4 34 25 257 34 272 7 10 20 10 128 -2z m1521 -335 c224 -31 444 -154
572 -318 91 -117 128 -205 147 -352 20 -154 0 -304 -57 -425 -49 -105 -135
-207 -227 -269 -105 -72 -167 -95 -307 -116 -77 -11 -108 -11 -196 0 -57 8
-115 18 -128 24 -13 5 -54 18 -91 30 -272 84 -464 261 -544 501 -25 75 -25
306 -1 364 10 21 17 45 17 53 0 26 82 183 123 236 115 148 280 248 445 272
114 17 130 17 247 0z m-5016 -74 c47 -60 118 -211 107 -229 -3 -5 -21 -17 -41
-26 -19 -9 -35 -24 -35 -33 0 -9 14 -46 31 -82 69 -145 123 -263 164 -356 14
-33 34 -84 60 -157 17 -49 28 -55 70 -39 32 13 42 3 84 -78 22 -42 52 -100 67
-129 28 -52 28 -53 8 -71 -10 -10 -46 -28 -79 -39 -34 -11 -72 -25 -85 -30
-14 -5 -43 -17 -65 -25 -115 -43 -277 -112 -348 -148 -60 -31 -75 -26 -103 34
-14 28 -43 84 -64 122 -51 92 -51 111 -1 131 44 18 57 37 35 54 -8 7 -14 17
-14 22 0 17 -281 573 -295 583 -8 5 -17 6 -20 3 -7 -7 8 -177 30 -328 8 -52
16 -131 20 -175 5 -78 9 -113 40 -345 8 -63 15 -148 15 -188 l0 -72 -40 -16
c-22 -9 -57 -25 -77 -35 -55 -28 -73 -24 -133 34 -45 43 -256 236 -296 272 -6
6 -42 39 -80 76 -38 36 -121 112 -184 169 -63 58 -128 117 -143 132 -32 31
-57 36 -57 12 0 -16 189 -403 276 -567 29 -54 53 -87 63 -87 9 0 31 9 50 21
41 25 46 21 94 -71 19 -36 46 -88 61 -117 30 -57 28 -83 -7 -101 -26 -14 -40
-23 -122 -77 -33 -22 -68 -44 -77 -50 -10 -5 -54 -36 -98 -68 -88 -65 -107
-67 -131 -14 -8 17 -39 77 -68 131 l-52 99 40 38 41 37 -154 308 c-85 170
-161 318 -169 329 -15 20 -16 20 -52 1 -27 -15 -41 -17 -53 -9 -21 13 -73 100
-107 181 -22 50 -25 65 -15 77 24 29 495 335 516 335 2 0 40 20 84 45 44 25
87 45 97 45 10 0 43 -23 73 -51 62 -57 80 -74 232 -212 58 -53 114 -97 124
-97 16 0 17 12 11 168 -4 92 -14 209 -22 261 -9 51 -13 102 -10 112 6 17 139
89 164 89 7 0 85 33 176 75 86 40 401 162 422 164 6 1 25 -16 42 -38z m6400
-606 c89 -50 103 -58 201 -118 85 -52 209 -136 285 -193 26 -19 27 -23 16 -55
-18 -52 -122 -183 -148 -187 -13 -2 -33 4 -45 12 -12 9 -30 16 -39 16 -9 0
-49 -43 -89 -97 l-73 -96 25 -21 c14 -12 56 -41 92 -66 36 -25 93 -66 127 -92
33 -27 63 -48 67 -48 21 0 132 176 132 209 0 10 -9 26 -20 36 -11 10 -20 22
-20 27 0 4 18 32 41 61 22 28 55 75 74 102 24 37 38 49 54 48 41 -5 490 -365
524 -421 6 -9 -19 -49 -77 -128 -87 -115 -109 -131 -136 -99 -7 8 -22 15 -35
15 -22 0 -53 -39 -184 -230 -28 -41 -83 -120 -122 -175 -160 -227 -157 -219
-94 -256 37 -22 47 -56 22 -81 -7 -7 -37 -48 -66 -90 -29 -42 -60 -79 -68 -82
-10 -4 -33 10 -62 36 -25 24 -57 54 -71 67 -48 44 -125 110 -190 161 -36 29
-100 80 -142 114 -43 33 -77 66 -78 73 0 17 148 213 162 213 6 0 22 -10 35
-22 28 -26 27 -27 107 90 38 55 54 87 49 97 -9 16 -225 180 -265 201 -15 8
-31 14 -36 14 -14 0 -132 -178 -132 -198 0 -11 9 -27 20 -37 27 -25 26 -33
-17 -87 -61 -77 -103 -136 -103 -148 0 -20 -38 -10 -86 23 -200 136 -259 176
-329 220 -44 27 -100 61 -125 75 -67 37 -67 37 -30 89 18 27 51 74 73 106 22
32 46 61 53 64 7 3 25 -5 40 -16 15 -12 32 -21 39 -21 7 0 46 45 86 100 191
258 339 457 353 473 24 26 19 52 -14 80 -16 14 -30 28 -30 32 0 11 182 246
188 243 4 -2 31 -17 61 -33z m-8709 -870 l85 -85 -32 -26 c-18 -14 -33 -30
-33 -35 0 -5 51 -57 112 -116 167 -161 286 -281 347 -351 55 -63 79 -74 101
-47 23 28 52 16 119 -49 36 -35 83 -79 104 -97 l39 -34 -99 -87 c-143 -125
-156 -137 -289 -269 -67 -65 -127 -119 -133 -119 -12 0 -213 185 -219 201 -2
5 10 23 27 40 17 17 31 36 31 43 0 13 -45 57 -265 262 -226 209 -255 234 -270
234 -8 0 -15 -4 -15 -9 0 -9 103 -213 183 -361 22 -41 50 -95 63 -120 12 -25
36 -69 53 -98 17 -29 31 -57 31 -63 0 -5 11 -27 25 -49 50 -80 156 -301 153
-320 -2 -10 -25 -46 -53 -80 -44 -54 -53 -61 -80 -57 -28 5 -91 25 -140 46
-25 11 -98 39 -145 56 -19 7 -55 21 -80 30 -25 9 -61 23 -80 30 -19 8 -89 35
-155 60 -66 26 -136 52 -155 60 -19 7 -68 27 -109 44 -40 17 -79 31 -85 31 -6
0 -24 7 -40 15 -29 16 -46 12 -46 -9 0 -13 84 -97 260 -257 193 -176 254 -229
264 -229 6 0 22 14 37 31 32 38 29 39 145 -68 48 -46 92 -83 96 -83 24 0 0
-52 -64 -143 -40 -55 -105 -146 -144 -201 -39 -56 -78 -101 -86 -101 -9 0 -45
27 -80 60 -35 33 -80 74 -101 92 -43 37 -44 45 -17 80 11 14 20 31 20 38 0 11
-112 117 -276 260 -37 33 -115 102 -173 154 l-104 94 -29 -31 c-15 -18 -36
-32 -45 -32 -22 0 -213 180 -213 201 0 8 9 26 19 39 31 41 113 151 155 209 21
30 42 59 47 65 5 6 41 52 80 101 93 117 188 227 208 241 13 9 39 3 126 -30 61
-23 126 -48 145 -55 19 -7 71 -26 115 -42 44 -17 93 -34 109 -39 60 -19 61 9
1 120 -25 46 -45 86 -45 89 0 3 -19 42 -42 86 -23 44 -57 110 -75 148 l-32 67
58 68 c97 110 489 484 536 510 25 13 43 0 155 -113z m10521 -610 c76 -88 228
-273 282 -342 11 -15 -10 -92 -108 -398 -25 -77 -52 -162 -61 -190 -8 -27 -22
-66 -29 -85 -22 -58 -55 -169 -55 -185 0 -8 4 -15 9 -15 12 0 261 197 277 218
12 17 3 52 -23 83 -7 8 -13 21 -13 27 0 6 52 50 116 98 93 71 119 86 133 77
15 -9 213 -290 228 -323 4 -8 22 -35 40 -59 18 -24 33 -49 33 -55 0 -13 -67
-71 -115 -101 -16 -10 -34 -24 -40 -30 -15 -17 -72 -55 -82 -55 -4 0 -21 18
-36 40 -16 22 -35 40 -42 40 -8 0 -40 -22 -72 -48 -32 -26 -114 -91 -183 -143
-69 -51 -170 -130 -226 -174 -56 -44 -134 -105 -173 -135 -40 -30 -78 -60 -84
-65 -7 -6 -29 -23 -50 -39 -31 -24 -39 -26 -53 -15 -15 12 -66 82 -89 121 -10
17 -81 121 -145 211 l-34 47 34 103 c18 56 46 143 62 192 15 50 32 104 38 120
5 17 35 113 66 215 50 165 66 218 90 298 3 12 2 22 -3 22 -9 0 -91 -55 -103
-69 -3 -3 -23 -19 -45 -36 -22 -16 -42 -32 -45 -35 -3 -3 -44 -37 -92 -74 -51
-41 -88 -77 -88 -87 0 -10 16 -31 36 -47 31 -26 34 -32 25 -51 -7 -12 -15 -21
-19 -21 -5 0 -50 -31 -101 -70 -50 -38 -97 -70 -102 -70 -13 0 4 -18 -229 241
-47 51 -97 107 -112 122 -16 16 -28 36 -28 46 0 11 33 41 83 77 45 32 91 67
102 77 36 33 62 32 92 -2 15 -17 37 -31 48 -31 11 1 45 21 75 46 30 24 91 72
135 106 44 34 82 65 85 69 5 6 95 77 218 170 53 40 68 78 40 96 -31 20 -40 41
-26 62 7 12 16 21 20 21 8 0 99 67 108 79 3 4 27 21 55 39 47 31 50 32 65 15
9 -10 59 -67 111 -128z m-12308 -1399 c29 -19 80 -45 112 -59 33 -14 61 -32
63 -41 2 -9 -6 -31 -17 -50 -12 -19 -19 -40 -16 -47 6 -16 631 -329 655 -329
8 0 25 18 38 41 13 22 29 42 36 45 8 3 49 -14 92 -38 44 -24 101 -54 127 -67
27 -13 51 -30 54 -39 4 -8 -11 -47 -32 -86 -73 -135 -252 -491 -275 -548 -13
-31 -30 -60 -39 -63 -16 -6 -253 109 -273 132 -7 9 -3 25 12 56 12 24 20 52
18 63 -2 13 -93 63 -318 176 -173 87 -322 157 -330 155 -8 -1 -24 -20 -35 -41
-32 -61 -45 -64 -101 -28 -27 17 -84 47 -126 67 -43 21 -78 44 -78 51 0 13
188 403 244 504 13 25 27 52 30 60 4 8 12 24 19 35 7 11 20 35 30 53 22 41 43
41 110 -2z m6402 -2761 c0 -2933 2 -2820 -46 -3145 -35 -235 -48 -292 -116
-505 -41 -128 -132 -331 -201 -446 -133 -224 -390 -482 -652 -656 -302 -200
-694 -293 -1236 -293 -187 0 -498 32 -634 65 -30 7 -75 16 -100 20 -25 4 -58
10 -75 15 -16 5 -57 15 -90 24 -121 30 -291 78 -323 92 -18 8 -39 14 -46 14
-20 0 -297 109 -356 140 l-35 18 -3 976 c-2 882 -1 977 14 983 15 6 62 -5 134
-32 19 -7 62 -21 95 -30 33 -10 76 -23 95 -30 92 -33 355 -68 470 -63 208 10
287 108 330 408 18 128 19 209 20 1628 0 820 -1 1493 -2 1494 -2 1 -167 5
-368 8 l-365 5 -3 1030 c-2 960 -1 1031 15 1043 13 9 373 12 1747 10 l1731 -3
0 -2770z m4233 40 c4 -3089 7 -2950 -74 -3365 -25 -129 -93 -370 -120 -423 -8
-16 -14 -33 -14 -38 0 -6 -13 -37 -30 -71 -16 -33 -30 -64 -30 -69 0 -4 -14
-32 -31 -61 -17 -29 -39 -66 -48 -83 -107 -196 -347 -454 -571 -616 -306 -222
-587 -314 -1056 -349 -303 -22 -666 0 -914 55 -36 8 -99 22 -140 30 -110 23
-177 41 -340 88 -121 36 -318 104 -355 124 -11 5 -51 22 -90 37 -38 14 -76 30
-82 34 -10 6 -13 220 -13 967 -1 528 -1 970 0 983 0 24 22 29 62 13 22 -9 184
-59 278 -86 118 -35 322 -65 434 -65 217 0 301 87 358 370 10 52 13 379 13
1615 l0 1550 -360 5 -360 5 -3 1034 c-2 821 0 1036 10 1043 7 4 792 7 1743 5
l1730 -2 3 -2730z m2722 2563 c48 -79 200 -412 200 -438 0 -6 -44 -31 -97 -56
-54 -25 -134 -63 -178 -84 -175 -84 -194 -90 -267 -90 -60 0 -79 5 -130 32
-35 18 -81 55 -109 87 -48 54 -149 221 -149 246 0 13 129 85 152 85 7 0 33
-23 58 -51 54 -64 95 -82 157 -73 60 9 85 33 73 71 -10 35 -37 93 -52 115 -9
13 -9 20 2 33 15 18 286 154 308 155 7 0 21 -15 32 -32z m215 -872 c66 -17
122 -47 167 -89 40 -38 108 -138 108 -160 0 -7 5 -18 11 -24 5 -5 17 -50 24
-99 13 -77 13 -100 1 -169 -8 -44 -11 -83 -8 -87 4 -4 27 -8 51 -10 l44 -3 24
-75 c31 -96 53 -177 53 -195 0 -8 -12 -17 -27 -21 -16 -3 -44 -11 -63 -18 -71
-26 -106 -38 -135 -45 -17 -4 -39 -13 -50 -18 -11 -6 -37 -13 -58 -14 l-39 -4
-19 60 c-11 33 -24 74 -30 90 -6 17 -15 49 -21 73 -9 40 -8 45 21 77 51 59 71
107 71 176 0 70 -20 120 -55 139 -31 17 -91 5 -120 -24 -27 -27 -51 -107 -60
-196 -21 -216 -78 -404 -148 -487 -117 -139 -268 -197 -415 -158 -139 37 -244
134 -306 287 -37 89 -38 98 -38 203 0 61 6 123 11 139 15 37 5 49 -34 42 -21
-4 -36 -2 -42 6 -20 25 -115 258 -110 271 4 11 47 30 157 72 70 26 225 75 237
75 14 0 31 -35 75 -160 46 -133 46 -126 -4 -178 -27 -29 -51 -67 -62 -99 -17
-51 -17 -55 0 -105 20 -60 63 -108 98 -108 39 0 87 41 106 90 10 25 23 99 29
165 23 238 43 319 96 400 103 154 288 227 460 181z m-14161 -177 c22 -7 84
-24 136 -39 52 -15 124 -35 160 -45 78 -21 149 -41 210 -59 25 -7 72 -21 105
-30 33 -10 80 -23 105 -31 25 -7 97 -27 160 -44 63 -18 129 -37 145 -42 17 -6
48 -15 69 -20 102 -25 259 -129 320 -212 63 -85 71 -111 69 -222 -1 -91 -5
-111 -34 -181 -36 -87 -119 -232 -148 -258 -17 -15 -23 -15 -85 -1 -36 9 -76
19 -89 24 -12 5 -41 14 -65 21 -24 6 -45 17 -48 24 -3 8 6 30 20 51 63 93 4
214 -119 246 -16 4 -61 17 -100 29 -38 12 -83 25 -100 29 -60 17 -141 41 -210
61 -38 12 -83 25 -100 29 -44 13 -130 37 -210 61 -130 38 -120 39 -138 -21 -9
-30 -18 -63 -19 -74 -6 -37 -50 -32 -235 28 -70 22 -76 35 -49 99 8 18 29 85
46 148 41 145 88 295 106 338 8 18 14 38 14 45 0 14 28 57 37 57 3 0 24 -5 47
-11z m552 -2658 l80 -1 17 -57 c33 -109 47 -158 77 -263 17 -58 37 -127 45
-155 7 -27 16 -61 19 -75 3 -14 15 -36 25 -50 l20 -25 329 -3 330 -3 22 -57
c12 -31 29 -75 37 -97 8 -22 21 -55 29 -73 30 -70 70 -33 -440 -395 -75 -54
-79 -89 -25 -227 11 -30 24 -68 29 -85 12 -42 67 -190 79 -214 6 -11 11 -27
11 -36 0 -9 6 -31 14 -48 41 -96 41 -87 -6 -128 -24 -21 -46 -38 -49 -39 -3 0
-36 -25 -74 -55 -38 -30 -76 -55 -85 -54 -8 0 -29 10 -47 22 -33 23 -197 140
-273 194 -149 106 -208 143 -230 143 -14 0 -62 -26 -107 -58 -46 -31 -118 -81
-160 -111 -43 -30 -114 -81 -158 -114 -44 -33 -90 -64 -102 -69 -26 -13 -40
-5 -177 99 -90 69 -95 74 -87 100 45 144 111 352 148 462 52 155 52 157 -33
218 -413 292 -454 323 -454 337 0 6 14 49 31 96 17 47 37 105 45 129 8 25 20
49 27 53 6 4 150 8 318 8 278 0 309 2 327 18 20 16 60 127 142 392 17 58 38
121 45 140 7 19 16 43 19 53 8 24 35 32 103 30 32 0 94 -2 139 -2z m13463 -6
c20 -6 34 -47 107 -315 58 -209 77 -265 101 -287 24 -23 26 -23 342 -23 345 0
332 2 351 -57 5 -15 23 -66 40 -113 18 -47 34 -94 37 -106 4 -18 -32 -48 -229
-194 -128 -95 -241 -181 -250 -192 -25 -28 -22 -71 8 -158 14 -41 29 -91 34
-111 5 -20 20 -67 34 -105 35 -102 86 -268 86 -282 0 -12 -69 -81 -82 -82 -4
0 -40 -25 -79 -55 -39 -30 -77 -55 -84 -55 -7 0 -27 11 -46 23 -38 27 -348
247 -424 301 -27 20 -61 36 -75 36 -17 0 -59 -23 -111 -60 -46 -32 -113 -79
-149 -104 -112 -78 -144 -100 -214 -150 -62 -44 -70 -47 -94 -37 -22 10 -95
63 -112 81 -3 3 -24 18 -47 33 -23 16 -49 37 -58 47 -17 19 -16 27 30 160 7
19 27 80 44 135 17 55 49 154 70 220 26 81 36 125 30 136 -8 16 -88 84 -121
104 -9 6 -57 38 -105 73 -48 35 -97 70 -108 78 -11 8 -45 32 -75 55 -30 22
-67 47 -82 55 -44 23 -38 51 52 274 l19 45 321 5 322 5 19 24 c10 13 19 32 19
42 0 10 6 33 14 51 7 18 21 60 31 93 9 33 23 75 31 93 8 18 14 39 14 47 0 8 6
29 14 47 8 18 26 71 40 118 15 47 30 90 34 97 11 18 251 24 301 8z m-1424
-3936 c51 -44 96 -88 99 -96 6 -16 -20 -57 -83 -125 -32 -36 -36 -38 -98 -38
-35 0 -74 -5 -86 -12 -49 -26 -60 -70 -27 -105 22 -24 50 -20 122 17 21 11 43
20 47 20 5 0 52 21 105 46 91 43 101 46 186 46 81 1 93 -1 131 -27 65 -43 107
-89 135 -151 68 -149 -11 -335 -180 -424 -61 -32 -66 -37 -60 -62 5 -23 -5
-37 -67 -102 l-72 -76 -26 19 c-51 37 -191 173 -191 186 0 14 89 106 125 130
16 11 29 11 61 3 55 -15 110 5 141 51 28 42 29 55 3 81 -24 24 -77 26 -135 4
-188 -69 -245 -84 -329 -84 -99 0 -132 13 -207 84 -106 100 -106 260 2 368 27
27 59 53 71 58 13 6 41 21 63 33 35 20 40 27 40 59 0 21 8 46 20 59 28 34 109
119 113 119 1 0 45 -36 97 -81z m-10644 1 c86 -45 145 -129 173 -250 12 -52
14 -55 43 -53 25 2 40 -8 97 -66 36 -38 66 -78 66 -89 0 -26 -181 -182 -213
-182 -8 0 -45 34 -82 76 -53 61 -65 81 -59 98 3 12 9 44 11 72 4 43 0 59 -22
93 -21 35 -31 42 -53 39 -61 -7 -63 -83 -7 -298 33 -129 30 -194 -11 -270 -71
-131 -209 -187 -359 -146 -123 32 -215 135 -234 261 -5 36 -9 40 -34 40 -21 1
-38 12 -63 40 -45 53 -71 98 -67 112 7 21 213 193 231 193 9 0 28 -17 42 -37
14 -21 38 -52 53 -70 27 -31 28 -36 21 -90 -11 -77 -7 -110 19 -145 27 -37 87
-40 111 -6 18 26 21 90 5 120 -29 55 -52 167 -53 263 -1 86 3 107 22 147 28
56 95 124 149 149 55 25 162 25 214 -1z m9895 -747 c15 -21 31 -40 34 -43 26
-23 100 -120 100 -132 0 -19 -158 -158 -180 -158 -10 0 -24 10 -32 21 -14 22
-14 22 -59 -21 -24 -23 -59 -54 -76 -67 -18 -14 -33 -31 -33 -38 0 -7 21 -36
46 -64 41 -46 49 -50 64 -39 10 7 45 34 78 61 l61 47 56 -69 c65 -81 65 -84
-14 -146 -28 -22 -51 -46 -51 -54 0 -19 77 -121 92 -121 12 0 63 42 121 98 24
24 35 42 31 52 -23 53 -18 64 65 136 45 38 85 70 90 72 13 4 170 -179 177
-207 5 -18 0 -30 -22 -50 -193 -174 -635 -541 -653 -541 -12 0 -141 142 -141
155 0 6 9 16 20 23 20 12 28 47 12 54 -5 2 -38 41 -73 88 -100 132 -211 270
-217 270 -3 0 -20 -5 -38 -12 -31 -11 -35 -10 -56 18 -12 16 -42 50 -65 75
-24 25 -43 51 -43 57 0 6 19 25 42 44 24 18 50 40 59 48 8 8 46 40 84 70 37
30 73 60 79 66 6 6 52 45 101 87 50 41 133 116 185 166 52 50 102 91 111 91 9
0 29 -17 45 -37z m-9116 -115 c89 -84 315 -258 335 -258 12 0 125 -74 125 -82
0 -5 -28 -43 -62 -83 -54 -63 -67 -74 -88 -69 -14 2 -31 6 -38 7 -13 2 -35
-44 -51 -108 -4 -17 -13 -39 -18 -50 -6 -11 -18 -39 -27 -62 -9 -24 -22 -60
-30 -80 -8 -21 -26 -69 -40 -108 l-26 -69 26 -27 27 -28 -62 -67 c-33 -37 -61
-71 -61 -75 0 -25 -48 -1 -146 74 -184 138 -234 181 -234 201 0 23 97 136 116
136 8 0 17 -7 20 -15 9 -21 41 -19 54 4 5 11 10 33 10 49 0 26 -12 40 -93 101
-51 39 -98 71 -104 71 -16 0 -70 -29 -84 -46 -9 -11 -9 -18 -1 -26 7 -7 12
-17 12 -23 0 -18 -100 -135 -116 -135 -8 0 -47 31 -87 68 -39 38 -96 90 -124
116 -29 27 -53 53 -53 58 0 15 124 143 143 146 10 2 24 -2 32 -8 15 -13 153
55 388 192 37 21 67 43 67 47 0 5 -9 20 -20 34 -11 14 -20 28 -20 31 0 3 27
35 60 73 33 37 60 71 60 75 0 24 44 -1 110 -64z m921 -671 c87 -65 233 -157
249 -157 20 0 30 -43 40 -166 6 -71 15 -149 20 -174 5 -25 9 -74 10 -110 0
-82 8 -112 28 -108 15 3 102 158 102 181 0 7 -13 18 -30 24 -16 6 -30 18 -30
26 0 14 74 154 90 171 6 6 44 -8 97 -34 82 -40 109 -52 206 -94 21 -9 40 -22
43 -29 6 -16 -60 -147 -83 -164 -12 -10 -23 -9 -48 2 -31 12 -35 12 -53 -8
-10 -12 -22 -29 -26 -37 -4 -8 -12 -24 -19 -35 -46 -77 -127 -224 -127 -231 0
-4 -6 -15 -14 -23 -7 -9 -35 -56 -61 -106 -26 -49 -52 -96 -58 -104 -6 -7 -16
-23 -22 -35 -6 -11 -20 -22 -32 -24 -23 -3 -219 83 -244 107 -16 16 -49 253
-49 351 0 73 -28 272 -39 283 -16 16 -41 -13 -82 -93 -18 -36 -41 -76 -51 -89
-25 -33 -23 -43 16 -69 l34 -23 -33 -63 c-51 -99 -64 -116 -83 -109 -31 12
-267 155 -289 176 -27 24 -28 33 -10 67 8 14 26 49 41 78 30 56 33 58 82 40
29 -10 36 -9 53 6 11 10 23 27 26 36 5 15 103 193 183 333 28 49 28 65 -3 79
-36 16 -33 42 16 128 5 8 13 25 19 38 15 35 41 27 131 -41z m7165 45 c18 -12
84 -145 84 -169 0 -12 -9 -27 -20 -33 -24 -13 -20 -34 15 -90 20 -32 118 -215
153 -285 36 -72 51 -85 94 -83 l41 3 43 -82 43 -83 -42 -33 c-23 -19 -49 -37
-57 -41 -17 -8 -36 -19 -95 -57 -22 -14 -65 -40 -95 -56 -30 -17 -70 -39 -88
-49 -32 -19 -33 -19 -50 4 -10 12 -33 52 -51 87 l-34 64 24 20 23 19 -29 57
c-48 90 -50 91 -131 49 -102 -53 -134 -74 -134 -89 0 -7 17 -38 37 -70 35 -53
39 -56 69 -51 29 6 33 3 54 -36 12 -24 37 -59 56 -79 27 -28 32 -38 22 -46
-14 -11 -338 -170 -377 -184 -38 -15 -59 -1 -87 56 -14 30 -29 57 -35 60 -14
9 -11 51 6 65 22 18 20 25 -28 104 -24 39 -46 78 -50 86 -4 8 -22 42 -40 75
-19 33 -46 84 -61 113 -31 57 -52 75 -76 62 -9 -5 -22 -3 -31 3 -19 15 -89
146 -89 168 0 10 19 25 53 39 96 41 261 119 330 157 36 19 50 13 74 -34 11
-21 30 -58 43 -82 l24 -44 -22 -15 c-28 -18 -28 -27 3 -96 20 -46 29 -56 49
-56 14 0 27 4 30 8 3 5 40 26 82 48 42 21 78 44 81 50 4 12 -16 55 -51 107
-16 23 -24 27 -47 22 -35 -8 -54 12 -98 101 -22 44 -31 72 -25 80 8 12 381
242 394 243 3 0 10 -3 16 -7z m-5960 -648 c64 -28 107 -44 204 -76 382 -125
419 -141 521 -236 97 -90 133 -166 134 -282 0 -194 -110 -393 -259 -463 -125
-60 -275 -54 -496 19 -74 25 -171 56 -215 71 -44 14 -98 34 -120 43 -22 10
-53 23 -68 29 -15 6 -30 17 -33 26 -3 8 8 56 24 107 30 92 30 93 61 90 35 -4
32 -10 81 148 18 58 38 121 45 140 20 56 45 145 45 163 0 9 -12 24 -26 33 -19
13 -24 23 -19 38 3 12 12 44 19 71 15 55 33 105 40 105 2 0 30 -12 62 -26z
m4683 -6 c5 -13 17 -50 26 -83 10 -33 23 -76 30 -95 7 -19 16 -54 20 -78 l7
-42 -58 -26 c-65 -29 -134 -54 -149 -54 -6 0 -32 18 -59 40 -44 36 -53 40
-106 40 -92 0 -141 -54 -142 -155 -1 -86 35 -219 76 -280 37 -57 66 -74 125
-75 101 0 149 52 155 171 3 45 9 75 18 80 19 12 196 11 219 -1 23 -13 25 -57
5 -150 -35 -169 -129 -260 -336 -326 -40 -13 -88 -18 -180 -18 l-125 0 -85 40
c-141 67 -241 197 -281 364 -24 102 -24 159 1 237 27 88 41 111 102 173 99
102 222 144 419 143 l97 0 13 31 c10 21 24 33 44 37 39 10 103 33 111 42 15
15 45 6 53 -15z m-1185 -381 c4 -40 8 -83 9 -96 2 -18 -5 -25 -33 -35 -45 -14
-47 -34 -26 -181 8 -60 20 -152 26 -202 14 -128 22 -146 59 -138 38 8 46 -8
54 -107 8 -89 9 -87 -83 -106 -162 -34 -441 -55 -453 -34 -3 4 -7 50 -9 102
l-3 95 33 3 c41 4 41 5 17 187 -8 61 -19 146 -24 190 -14 113 -24 135 -60 135
-16 0 -33 5 -37 11 -13 22 -24 172 -12 186 7 9 41 13 112 13 91 0 292 26 371
49 17 4 35 6 41 4 6 -2 14 -36 18 -76z m-2244 64 c67 -17 186 -40 260 -52 41
-7 81 -17 89 -23 10 -8 12 -30 8 -93 -5 -88 -15 -110 -50 -115 -19 -3 -22 -9
-19 -38 4 -42 27 -155 47 -226 8 -28 15 -65 15 -82 0 -36 13 -48 29 -28 12 14
141 324 141 339 0 4 -12 12 -26 17 -26 10 -26 11 -22 105 5 130 4 129 154 116
65 -6 151 -11 190 -11 92 0 99 -8 89 -97 -9 -85 -15 -101 -45 -117 -28 -14
-28 -19 -6 -91 8 -27 20 -70 27 -95 36 -143 45 -172 54 -172 6 0 17 19 27 43
9 24 35 94 58 154 22 61 43 115 46 122 3 6 -8 19 -25 27 -30 16 -31 17 -25 79
3 34 10 76 16 94 l9 32 168 3 c93 2 176 2 185 0 26 -5 30 -49 15 -142 -14 -82
-15 -85 -44 -90 -18 -3 -34 -15 -42 -30 -17 -32 -64 -139 -93 -210 -12 -30
-26 -59 -31 -64 -5 -6 -9 -16 -9 -23 0 -12 -25 -69 -91 -210 -16 -35 -29 -69
-29 -76 0 -7 -7 -22 -15 -33 -8 -10 -15 -27 -15 -36 0 -10 -10 -26 -22 -38
-20 -18 -35 -20 -154 -20 -93 0 -134 4 -141 13 -13 16 -73 236 -73 264 0 12
-11 35 -24 50 -23 26 -25 27 -31 8 -4 -11 -35 -85 -68 -165 -72 -168 -61 -161
-206 -135 -149 26 -141 22 -162 95 -44 148 -49 167 -63 215 -7 28 -21 79 -31
115 -10 36 -23 83 -30 105 -7 22 -20 69 -30 105 -39 155 -45 169 -73 182 -25
12 -27 18 -30 85 -2 40 2 91 8 113 12 44 23 48 90 31z"/>
<path d="M11464 15830 c-50 -20 -122 -131 -167 -257 -67 -184 -87 -263 -87
-336 0 -59 3 -70 33 -108 43 -57 120 -87 176 -70 85 25 159 139 223 341 11 36
26 82 34 103 9 23 14 77 14 139 l0 101 -44 42 c-53 51 -124 69 -182 45z"/>
<path d="M5579 12374 c-5 -7 -8 -322 -7 -780 l3 -769 354 -3 c241 -1 359 -6
368 -13 11 -10 13 -277 13 -1546 0 -1545 -5 -1797 -36 -1958 -48 -241 -147
-405 -287 -474 -123 -61 -148 -66 -322 -64 -157 1 -228 11 -417 56 -46 11 -60
12 -68 2 -7 -8 -9 -249 -8 -715 3 -613 5 -704 18 -710 75 -37 200 -79 412
-138 59 -17 111 -33 116 -36 5 -3 33 -9 63 -15 30 -5 113 -20 184 -34 273 -53
264 -52 650 -52 252 0 389 4 430 12 33 7 98 19 145 28 47 8 103 22 125 29 22
8 64 21 93 30 130 41 292 132 428 242 85 69 243 223 297 289 35 44 137 192
137 199 0 4 10 23 23 44 55 88 137 303 172 447 9 39 20 84 25 100 20 65 57
342 70 520 5 75 9 1223 10 2718 0 2061 -3 2589 -12 2592 -7 3 -678 6 -1491 8
-1074 1 -1481 -1 -1488 -9z"/>
<path d="M9809 12374 c-5 -7 -8 -322 -7 -780 l3 -769 365 -5 365 -5 3 -1570
c4 -1696 1 -1829 -45 -2005 -13 -52 -31 -110 -40 -130 -9 -19 -25 -55 -36 -80
-12 -26 -53 -77 -96 -120 -67 -66 -87 -79 -166 -110 l-90 -35 -165 1 c-163 2
-221 10 -422 58 -31 8 -59 11 -62 8 -3 -3 -6 -326 -6 -717 l0 -712 83 -31
c111 -42 174 -62 397 -127 93 -27 112 -31 310 -69 74 -14 162 -31 195 -37 139
-27 781 -26 905 1 30 6 89 19 130 27 196 40 366 109 517 208 92 61 98 66 226
180 251 222 395 457 511 833 9 29 21 72 25 95 5 23 18 83 29 133 11 50 26 142
32 205 6 63 15 150 20 194 5 44 9 1269 9 2723 1 2107 -2 2642 -11 2642 -7 0
-678 1 -1491 3 -1074 1 -1481 -1 -1488 -9z"/>
<path d="M2223 8648 c-5 -7 -18 -42 -28 -78 -9 -36 -23 -83 -30 -105 -7 -22
-21 -69 -30 -105 -10 -36 -23 -83 -30 -105 -7 -22 -21 -67 -30 -100 -21 -79
-34 -104 -68 -129 -27 -20 -42 -21 -341 -24 l-313 -3 -16 -41 -17 -41 38 -33
c20 -18 131 -103 246 -188 114 -85 215 -164 222 -175 27 -38 18 -118 -22 -208
-8 -17 -14 -36 -14 -43 0 -14 -56 -183 -76 -227 -8 -17 -14 -37 -14 -45 0 -7
-9 -37 -20 -67 -12 -29 -18 -60 -15 -70 7 -21 82 -64 98 -55 6 4 108 79 225
166 117 87 230 167 250 178 71 38 97 29 267 -99 239 -179 320 -238 335 -243 9
-3 31 6 50 22 l34 28 -98 295 c-73 221 -96 303 -92 325 9 40 51 77 286 252
113 84 213 161 222 171 16 18 15 23 -1 72 l-18 52 -314 5 c-281 4 -318 7 -342
23 -35 23 -39 33 -113 262 -20 61 -49 146 -65 191 -16 44 -29 87 -29 95 0 8
-7 25 -16 37 -12 18 -25 22 -63 22 -27 0 -53 -6 -58 -12z"/>
<path d="M15619 8643 c-8 -10 -25 -52 -38 -93 -13 -41 -37 -110 -53 -153 -15
-43 -28 -85 -28 -92 0 -7 -7 -26 -15 -41 -8 -16 -15 -36 -15 -44 -1 -38 -41
-127 -70 -157 l-33 -33 -316 -2 -316 -3 -18 -38 c-10 -22 -17 -45 -15 -52 3
-11 119 -100 441 -337 36 -27 60 -52 63 -68 3 -14 7 -34 9 -44 5 -26 -16 -110
-61 -236 -20 -58 -40 -118 -45 -135 -4 -16 -24 -75 -43 -130 l-34 -100 26 -23
c55 -46 76 -43 174 31 388 290 399 297 442 297 42 0 53 -5 141 -70 28 -20 72
-52 98 -71 26 -19 74 -54 106 -79 32 -25 69 -52 81 -60 12 -8 42 -30 66 -47
44 -34 74 -40 118 -23 39 14 34 42 -39 250 -13 36 -33 97 -45 135 -12 39 -33
99 -46 135 -32 86 -31 127 4 166 15 18 126 105 247 194 121 89 227 170 236
181 16 17 16 22 0 66 -9 26 -20 51 -26 55 -5 4 -146 8 -313 8 -209 0 -310 4
-325 11 -27 15 -56 50 -57 67 0 8 -6 28 -14 45 -17 40 -65 180 -77 227 -5 19
-28 89 -52 155 l-43 120 -50 3 c-38 2 -54 -1 -65 -15z"/>
<path d="M4409 3602 c-53 -31 -101 -64 -107 -73 -8 -12 2 -25 50 -65 33 -27
65 -49 71 -49 14 0 129 224 121 236 -11 18 -41 7 -135 -49z"/>
<path d="M6932 2348 c-7 -7 -12 -21 -12 -32 0 -11 -13 -56 -29 -100 -47 -133
-91 -280 -91 -307 0 -36 45 -59 115 -59 48 0 63 5 95 30 37 30 90 123 90 159
0 10 7 35 15 54 8 20 15 59 15 86 0 80 -40 130 -130 164 -54 20 -53 20 -68 5z"/>
</g>
</svg>
