<?xml version="1.0" standalone="no"?> <!DOCTYPE svg PUBLIC "-//W3C//DTD SVG 20010904//EN" "http://www.w3.org/TR/2001/REC-SVG-20010904/DTD/svg10.dtd"> <svg version="1.0" xmlns="http://www.w3.org/2000/svg" width="1800.000000pt" height="1692.000000pt" viewBox="0 0 1800.000000 1692.000000" preserveAspectRatio="xMidYMid meet"> <g transform="translate(0.000000,1692.000000) scale(0.100000,-0.100000)" fill="#ffffff" stroke="none"> <path d="M10420 16835 c-14 -8 -32 -14 -41 -15 -37 0 -181 -76 -261 -137 -85 -64 -228 -214 -228 -238 0 -5 -6 -16 -14 -24 -47 -55 -121 -242 -147 -371 -16 -85 -21 -266 -8 -310 15 -49 69 -267 78 -315 11 -53 48 -136 149 -335 58 -114 92 -193 108 -255 12 -49 30 -110 40 -135 22 -59 22 -167 0 -250 -10 -36 -21 -87 -25 -115 -5 -27 -14 -72 -21 -100 -23 -94 -39 -160 -66 -265 -15 -58 -30 -123 -33 -145 -8 -48 -18 -65 -35 -65 -28 0 -86 -96 -86 -143 0 -12 -7 -35 -15 -51 -8 -15 -15 -36 -15 -45 0 -9 -11 -50 -24 -91 -13 -41 -34 -111 -46 -155 -12 -44 -29 -100 -37 -125 -8 -25 -17 -85 -20 -135 -6 -85 -9 -97 -69 -215 -95 -191 -96 -193 -104 -380 l-7 -165 -52 -145 c-29 -80 -57 -163 -62 -185 -6 -22 -14 -44 -20 -50 -5 -5 -9 -16 -9 -25 0 -21 -59 -237 -76 -278 -8 -18 -14 -43 -14 -55 -1 -40 -38 -105 -82 -144 -84 -74 -183 -180 -203 -216 -11 -20 -25 -37 -31 -37 -12 0 -66 56 -82 86 -6 11 -10 40 -10 66 1 25 -5 60 -12 77 -13 33 -65 71 -97 71 -46 0 -133 40 -164 75 -18 20 -48 42 -67 50 -19 8 -71 50 -116 93 -83 80 -158 142 -172 142 -4 0 -36 11 -71 25 -34 14 -105 33 -155 42 -194 33 -400 -24 -586 -163 -214 -161 -337 -353 -383 -599 -34 -182 -3 -343 96 -504 36 -58 199 -232 253 -268 27 -19 28 -37 3 -111 -37 -109 -52 -133 -125 -206 -101 -100 -133 -123 -191 -134 -73 -15 -130 -38 -188 -76 -109 -71 -148 -122 -315 -401 -155 -262 -184 -314 -259 -465 -40 -82 -73 -133 -114 -178 -65 -69 -144 -182 -177 -252 -38 -83 -82 -200 -82 -223 0 -29 -21 -60 -101 -149 -112 -124 -198 -233 -296 -374 -71 -102 -129 -188 -138 -202 -5 -9 -22 -35 -36 -57 -100 -153 -329 -590 -329 -627 0 -8 -4 -18 -9 -24 -5 -5 -26 -49 -47 -99 -46 -110 -67 -138 -269 -345 -88 -91 -176 -186 -196 -210 -20 -25 -58 -56 -85 -71 -27 -14 -101 -52 -164 -86 -64 -33 -146 -68 -185 -77 -38 -10 -87 -22 -107 -27 -20 -5 -79 -14 -130 -19 -51 -5 -113 -14 -138 -20 -25 -5 -73 -9 -108 -10 -48 0 -66 -4 -82 -20 -34 -34 -22 -112 23 -139 61 -39 325 -71 476 -58 128 10 141 3 61 -36 -83 -41 -107 -73 -94 -123 15 -61 50 -79 153 -79 56 0 100 6 126 16 53 21 94 36 187 64 42 13 86 29 98 35 35 19 45 -2 21 -46 -38 -70 -39 -134 -5 -168 23 -23 117 -21 169 4 50 24 93 68 182 185 72 94 119 131 152 120 11 -3 42 -29 68 -56 83 -87 166 -119 316 -119 86 0 102 3 128 22 66 49 78 125 30 181 -23 25 -45 37 -99 51 -110 28 -146 75 -122 161 7 24 9 61 6 82 -16 91 -18 176 -6 221 22 81 51 167 61 176 5 6 9 16 9 24 0 21 93 203 146 285 96 148 135 188 276 282 442 294 601 470 810 900 91 188 89 185 144 207 27 11 64 28 83 37 39 19 114 100 139 151 14 28 24 36 51 38 57 6 74 -5 105 -60 37 -66 158 -250 198 -301 24 -29 31 -50 33 -91 6 -101 40 -178 114 -252 30 -31 34 -42 80 -239 26 -107 44 -175 66 -233 18 -50 23 -38 -74 -165 -74 -98 -94 -113 -161 -125 -54 -9 -146 -68 -184 -118 -79 -103 -113 -286 -100 -538 3 -78 2 -157 -5 -196 -10 -62 -13 -68 -73 -125 -79 -76 -151 -123 -197 -131 -119 -20 -199 -75 -267 -181 -30 -46 -77 -91 -140 -134 -36 -24 -188 -141 -205 -158 -9 -9 -43 -38 -75 -66 -292 -247 -600 -590 -796 -885 l-43 -65 -65 -11 c-190 -32 -298 -90 -444 -239 -51 -52 -101 -95 -110 -95 -10 0 -30 -6 -44 -14 -15 -7 -47 -23 -72 -34 -253 -113 -487 -231 -625 -314 -16 -9 -50 -29 -75 -43 -25 -14 -58 -34 -75 -45 -16 -11 -37 -23 -45 -28 -70 -36 -346 -223 -495 -335 -322 -242 -532 -433 -864 -786 -74 -79 -159 -161 -188 -183 -29 -22 -62 -56 -74 -75 -20 -31 -20 -39 -9 -76 12 -40 11 -41 -22 -69 -42 -35 -55 -35 -91 0 -25 23 -36 27 -89 27 -57 -1 -63 -3 -92 -37 -17 -20 -44 -62 -60 -93 -32 -63 -58 -95 -80 -95 -23 0 -48 50 -56 115 -17 134 -79 245 -138 245 -29 0 -68 -33 -91 -77 -19 -36 -13 -107 14 -167 14 -31 25 -76 25 -99 1 -40 9 -92 24 -148 7 -25 5 -26 -38 -31 -86 -10 -176 -105 -176 -187 0 -15 -8 -34 -17 -42 -39 -33 -141 -73 -198 -80 -33 -3 -85 -16 -115 -28 -110 -44 -293 -101 -324 -102 -17 0 -69 -7 -116 -15 -47 -7 -125 -20 -175 -28 -102 -15 -143 -31 -199 -75 -21 -17 -42 -31 -47 -31 -4 0 -35 -26 -68 -58 l-61 -58 0 -144 0 -145 88 -116 c107 -141 140 -177 218 -240 107 -85 124 -89 367 -89 l212 0 69 40 c37 22 72 40 78 40 5 0 21 6 37 14 70 36 192 35 346 -4 60 -14 113 -12 186 9 107 30 199 103 256 201 15 25 35 51 45 58 31 22 68 66 68 80 0 40 95 122 142 122 32 0 111 57 147 106 16 21 44 68 61 103 40 79 92 137 139 157 42 18 81 52 81 71 0 18 88 103 105 103 8 0 31 11 51 25 20 14 50 25 67 25 40 0 114 37 212 107 79 56 79 56 120 43 102 -31 153 -23 210 35 11 11 45 40 75 65 30 25 57 47 60 51 6 7 320 246 360 274 27 19 306 225 389 287 20 16 59 38 86 50 72 32 256 128 340 177 28 16 64 36 233 128 37 20 84 47 104 60 21 13 40 23 42 23 3 0 33 19 68 43 35 24 70 46 78 50 29 13 282 184 407 274 29 21 72 51 95 68 44 30 93 67 206 156 64 50 101 69 247 129 44 18 108 46 143 61 34 16 64 29 66 29 10 0 507 240 756 364 156 79 270 141 340 186 8 6 22 13 30 17 8 4 33 18 55 32 22 14 49 30 60 36 11 6 76 42 145 80 186 103 725 377 793 404 40 16 107 13 144 -7 77 -40 250 -127 278 -138 67 -27 113 -44 165 -60 30 -9 71 -22 90 -29 19 -7 69 -20 110 -29 91 -21 266 -75 300 -93 14 -7 30 -13 37 -13 6 0 24 -6 40 -14 15 -8 111 -49 213 -91 102 -42 197 -83 212 -91 14 -8 33 -14 42 -14 8 0 30 -6 48 -14 18 -8 74 -31 123 -51 50 -21 135 -59 190 -85 126 -60 258 -115 393 -164 152 -55 279 -85 512 -121 58 -9 121 -21 140 -26 119 -34 274 -71 329 -79 46 -6 80 -19 120 -44 31 -20 121 -68 201 -108 133 -65 174 -90 310 -182 47 -32 279 -201 385 -282 33 -24 78 -58 100 -75 107 -81 262 -200 373 -287 122 -96 257 -192 268 -192 3 0 34 -13 68 -29 33 -16 84 -34 113 -41 48 -11 125 -59 227 -142 16 -12 48 -36 71 -53 23 -16 80 -59 126 -95 92 -71 94 -72 159 -126 60 -49 196 -136 240 -153 19 -8 76 -17 125 -20 72 -5 95 -10 115 -28 14 -12 55 -46 92 -76 37 -30 85 -76 106 -103 42 -52 154 -161 241 -233 29 -24 57 -53 62 -65 5 -11 16 -32 23 -45 25 -42 165 -207 219 -257 60 -56 87 -92 87 -116 0 -45 182 -383 233 -434 32 -31 77 -38 123 -19 45 19 185 111 230 152 148 133 187 167 241 209 96 76 227 166 295 203 162 86 404 247 522 345 160 133 395 353 591 554 34 34 67 62 73 62 8 0 12 30 12 96 0 57 -4 93 -9 89 -6 -3 -18 3 -28 13 -74 74 -152 105 -262 105 -83 -1 -92 -3 -177 -45 -49 -25 -130 -71 -179 -103 -123 -81 -141 -89 -226 -106 -133 -25 -795 -12 -806 17 -5 15 133 204 183 250 18 17 57 41 86 53 29 13 66 29 81 37 16 8 35 14 43 14 23 0 64 47 64 73 0 13 -9 36 -21 51 -18 23 -27 26 -87 26 -130 0 -232 -45 -353 -157 -45 -42 -64 -53 -91 -53 -36 0 -67 -18 -108 -61 -32 -34 -81 -59 -118 -59 -30 0 -99 39 -169 96 -41 34 -43 34 -88 23 -44 -11 -48 -10 -88 18 -58 42 -64 56 -48 95 31 77 35 105 19 130 -8 12 -73 62 -144 110 -71 48 -145 102 -165 120 -131 120 -448 390 -644 548 -37 30 -87 71 -110 90 -23 19 -84 67 -135 105 -51 39 -101 77 -110 86 -9 8 -35 29 -57 45 -22 16 -133 99 -246 184 -199 149 -403 299 -452 330 -13 8 -59 39 -102 69 -132 92 -294 201 -298 201 -2 0 -33 20 -69 45 -37 25 -68 45 -70 45 -3 0 -34 20 -70 45 -37 25 -68 45 -70 45 -3 0 -34 20 -70 45 -37 25 -69 45 -73 45 -3 0 -14 6 -22 13 -23 18 -102 43 -201 63 l-85 17 -135 131 c-142 138 -214 205 -295 271 -27 22 -67 56 -90 75 -157 131 -299 231 -460 323 -27 16 -75 43 -105 61 -52 30 -326 166 -530 263 -147 70 -161 77 -171 89 -6 8 -2 30 12 65 32 80 31 187 -2 259 -36 76 -98 148 -177 207 -78 57 -168 113 -183 113 -26 0 -74 51 -100 106 -16 34 -29 65 -29 69 0 4 -14 37 -30 72 -42 89 -44 107 -22 198 90 369 123 657 123 1050 -1 337 -33 811 -60 878 -6 16 -11 37 -11 48 0 20 -80 190 -122 259 -11 19 -31 55 -44 79 -13 24 -28 49 -32 55 -16 21 -70 162 -86 224 -15 57 -23 89 -56 227 -19 79 -40 213 -47 302 -8 109 17 252 64 363 37 86 67 164 83 210 5 14 18 50 30 80 12 30 28 78 35 105 54 193 55 199 61 405 6 188 9 213 36 295 31 98 41 150 62 332 8 68 22 135 30 150 8 16 28 62 44 103 27 68 37 101 78 240 18 60 38 155 59 270 28 155 44 201 85 245 20 22 46 54 57 70 21 32 56 158 72 265 6 36 15 97 21 135 28 182 31 344 8 392 -12 25 2 264 27 453 8 58 17 145 20 193 6 88 26 205 43 262 20 63 37 152 36 190 -1 41 -24 120 -45 154 -20 30 -4 51 38 51 56 1 230 27 293 45 58 16 205 85 255 119 377 261 532 687 408 1126 -35 126 -134 298 -232 404 -32 34 -156 132 -206 163 -45 28 -154 77 -209 94 -51 17 -91 19 -320 19 -207 -1 -266 -4 -286 -15z"/> </g> </svg>