<?xml version="1.0" standalone="no"?> <!DOCTYPE svg PUBLIC "-//W3C//DTD SVG 20010904//EN" "http://www.w3.org/TR/2001/REC-SVG-20010904/DTD/svg10.dtd"> <svg version="1.0" xmlns="http://www.w3.org/2000/svg" width="1800.000000pt" height="1800.000000pt" viewBox="0 0 1800.000000 1800.000000" preserveAspectRatio="xMidYMid meet"> <g transform="translate(0.000000,1800.000000) scale(0.100000,-0.100000)" fill="#ffffff" stroke="none"> <path d="M8480 17360 c-206 -10 -581 -48 -700 -71 -30 -6 -75 -13 -100 -15 -91 -10 -407 -70 -570 -109 -30 -7 -89 -21 -130 -30 -41 -10 -95 -23 -120 -30 -25 -7 -74 -21 -110 -30 -36 -10 -83 -23 -105 -30 -22 -7 -67 -20 -100 -30 -281 -84 -723 -247 -932 -346 -35 -16 -65 -29 -69 -29 -19 0 -601 -296 -705 -359 -15 -9 -69 -40 -120 -70 -52 -30 -113 -67 -136 -82 -23 -16 -44 -29 -46 -29 -5 0 -315 -206 -397 -264 -364 -259 -797 -626 -1095 -930 -168 -171 -380 -401 -426 -461 -13 -16 -48 -59 -79 -95 -60 -70 -214 -264 -273 -345 -20 -27 -42 -56 -47 -63 -15 -18 -87 -122 -208 -302 -254 -377 -512 -846 -690 -1255 -21 -49 -46 -106 -55 -125 -8 -19 -23 -55 -32 -80 -17 -44 -26 -65 -59 -143 -9 -21 -16 -42 -16 -48 0 -6 -6 -25 -14 -42 -43 -100 -141 -381 -171 -492 -55 -201 -65 -236 -70 -245 -3 -5 -9 -28 -14 -52 -8 -38 -20 -88 -72 -298 -7 -25 -15 -63 -19 -85 -4 -22 -18 -96 -32 -165 -14 -69 -33 -172 -42 -230 -9 -58 -23 -145 -31 -195 -51 -324 -75 -694 -75 -1171 0 -612 44 -1090 147 -1599 13 -66 26 -133 29 -150 10 -52 64 -278 79 -329 8 -26 15 -56 15 -64 0 -9 6 -34 14 -57 8 -22 22 -69 31 -105 20 -74 24 -88 91 -295 26 -82 67 -200 91 -262 24 -62 43 -117 43 -122 0 -6 7 -27 16 -48 30 -68 42 -96 94 -223 29 -69 56 -129 61 -135 5 -5 9 -15 9 -23 0 -15 226 -475 285 -580 20 -35 47 -85 61 -110 33 -61 55 -98 120 -207 72 -118 72 -119 122 -193 23 -35 42 -65 42 -68 0 -10 256 -376 339 -484 185 -241 417 -514 589 -691 324 -335 646 -631 891 -819 191 -147 229 -175 296 -223 145 -104 322 -224 447 -302 91 -57 270 -165 273 -165 1 0 53 -29 116 -65 160 -92 627 -321 751 -369 35 -13 87 -36 115 -50 29 -14 57 -26 63 -26 5 0 49 -16 97 -37 108 -45 295 -111 468 -165 72 -22 146 -46 165 -53 37 -14 129 -39 328 -89 191 -49 272 -67 392 -91 47 -9 117 -22 155 -30 244 -48 593 -92 950 -121 370 -29 1153 -11 1530 36 290 36 425 56 565 85 36 7 94 19 130 26 108 20 142 27 210 43 155 36 391 97 485 126 39 11 84 25 100 30 132 39 350 112 402 136 17 8 36 14 43 14 10 0 129 46 185 71 11 5 50 20 87 34 38 14 76 29 85 34 10 5 43 19 73 31 161 64 648 309 813 409 47 28 87 51 90 51 3 0 25 13 49 29 24 16 59 37 78 48 163 89 703 468 890 624 25 21 92 77 149 124 332 276 786 734 1046 1055 320 394 504 652 723 1015 43 72 82 137 86 145 4 8 12 24 19 35 23 37 92 159 119 210 69 130 278 560 278 571 0 6 11 32 59 137 17 37 31 71 31 76 0 5 9 30 21 57 11 27 24 58 28 69 5 11 14 33 21 50 6 16 25 70 41 119 17 50 39 111 48 136 10 25 33 92 50 150 18 58 37 116 43 130 6 14 16 48 23 75 7 28 21 77 30 110 10 33 21 79 26 103 5 23 13 51 19 61 5 11 10 29 10 40 0 11 6 40 14 63 7 24 21 79 30 123 9 44 23 109 31 145 8 36 21 101 29 145 9 44 21 105 27 135 16 83 39 243 49 353 6 55 12 103 15 108 3 4 12 79 21 166 51 545 42 1331 -21 1803 -49 365 -64 467 -90 590 -8 36 -21 99 -30 140 -8 41 -24 116 -36 165 -12 50 -27 115 -34 146 -7 30 -17 71 -23 90 -6 19 -18 63 -28 99 -26 102 -128 436 -149 490 -7 19 -28 76 -45 125 -41 116 -52 144 -88 235 -56 141 -75 185 -98 237 -13 28 -24 55 -24 58 0 14 -219 458 -301 610 -27 50 -53 99 -59 110 -5 11 -14 27 -20 35 -5 8 -47 78 -92 155 -93 160 -239 385 -342 529 -39 54 -84 118 -101 141 -16 24 -43 60 -60 81 -16 21 -63 81 -104 134 -332 429 -767 879 -1211 1251 -339 285 -635 497 -1060 759 -192 119 -580 323 -850 448 -115 53 -407 175 -460 192 -14 5 -50 18 -80 30 -96 38 -421 145 -540 179 -63 18 -124 36 -135 41 -22 8 -282 73 -390 96 -38 9 -93 22 -121 30 -28 8 -59 14 -69 14 -10 0 -46 6 -79 14 -56 13 -143 28 -321 56 -110 17 -290 39 -405 50 -58 5 -143 14 -190 20 -109 13 -966 21 -1170 10z m-2387 -2630 c180 -38 250 -60 377 -123 205 -100 377 -263 471 -447 68 -131 93 -216 140 -470 17 -90 27 -1082 28 -2775 1 -1367 6 -1609 37 -1785 95 -544 348 -947 773 -1233 174 -118 446 -229 630 -257 35 -6 67 -13 72 -16 18 -11 286 -33 401 -34 118 0 368 23 423 39 17 5 47 12 67 15 67 12 275 84 364 127 79 38 244 138 309 188 62 47 223 206 286 283 32 38 113 157 146 213 36 63 131 272 144 320 4 17 17 62 28 100 31 106 50 188 68 299 15 91 17 316 23 2266 6 1967 8 2174 23 2260 38 215 65 309 119 419 165 334 436 529 846 611 72 14 149 21 260 23 l157 2 3 -2750 c3 -2458 1 -2767 -13 -2910 -36 -361 -123 -680 -271 -993 -24 -51 -44 -95 -44 -97 0 -3 -20 -38 -45 -78 -25 -41 -45 -77 -45 -80 0 -3 -36 -59 -79 -124 -192 -285 -389 -493 -706 -746 -46 -37 -149 -106 -261 -174 -102 -63 -393 -213 -412 -213 -5 0 -39 -13 -74 -28 -62 -28 -184 -71 -303 -106 -33 -10 -71 -22 -85 -27 -47 -16 -303 -65 -500 -96 -164 -25 -732 -25 -900 0 -274 41 -518 91 -600 121 -19 7 -75 26 -125 41 -49 16 -128 44 -175 63 -47 19 -94 38 -105 42 -37 15 -310 152 -340 171 -16 10 -39 23 -50 29 -69 37 -237 153 -344 238 -401 318 -728 742 -906 1177 -20 50 -42 104 -49 120 -7 17 -28 77 -45 135 -84 274 -103 371 -131 665 -19 192 -20 305 -20 2901 0 2146 3 2703 13 2713 18 20 295 7 420 -19z m-1814 -9334 c34 -18 51 -70 51 -154 0 -33 5 -64 11 -68 6 -3 25 4 42 17 28 21 43 24 122 24 74 0 97 -4 131 -22 94 -50 154 -160 154 -281 0 -125 -63 -226 -180 -288 -26 -14 -56 -19 -115 -19 -71 0 -85 4 -120 28 -48 33 -53 33 -57 5 -2 -19 -10 -24 -42 -26 -22 -2 -50 -1 -63 2 l-23 6 0 389 c0 213 3 391 7 394 11 12 53 8 82 -7z m608 -202 c26 -19 69 -89 84 -134 4 -14 19 -56 33 -94 14 -38 26 -77 26 -87 0 -24 20 -35 31 -18 5 8 22 56 39 107 36 113 75 194 106 223 28 26 117 39 129 19 5 -7 -1 -31 -13 -54 -31 -63 -97 -227 -112 -281 -8 -29 -45 -130 -90 -245 -12 -30 -26 -68 -31 -84 -11 -37 -56 -102 -87 -127 -27 -21 -136 -28 -147 -9 -4 6 14 38 39 71 25 34 46 68 46 77 0 10 7 26 15 36 29 39 15 91 -90 331 -65 149 -105 254 -105 274 0 22 3 23 51 19 28 -3 62 -14 76 -24z m919 0 c90 -38 140 -103 163 -214 8 -35 12 -155 11 -323 0 -260 4 -317 20 -317 4 0 36 37 71 81 35 45 69 87 74 93 6 6 35 42 65 81 74 94 105 125 170 173 112 82 204 112 341 112 172 0 201 -20 107 -75 -78 -46 -276 -251 -453 -469 -22 -27 -61 -76 -87 -108 -27 -32 -48 -65 -48 -73 0 -8 21 -41 46 -73 288 -356 438 -516 553 -589 41 -26 51 -37 42 -46 -17 -17 -274 -16 -326 2 -104 35 -206 100 -283 181 -54 56 -162 195 -162 209 0 5 -6 14 -13 18 -8 4 -31 32 -52 61 -22 28 -43 52 -46 52 -14 0 -16 -35 -18 -260 -2 -190 -5 -227 -18 -237 -18 -14 -233 -16 -269 -3 l-24 10 0 858 c0 472 3 862 7 865 12 13 90 7 129 -9z m4419 -333 c170 -54 263 -118 365 -255 60 -81 85 -136 119 -256 22 -77 33 -201 23 -250 l-8 -35 -529 -5 c-512 -5 -530 -6 -533 -24 -5 -24 17 -95 35 -117 7 -8 13 -20 13 -26 0 -16 119 -123 137 -123 8 0 27 -6 41 -14 134 -69 373 -35 452 64 l32 40 153 0 c85 0 156 -4 160 -9 14 -23 -61 -140 -148 -230 -78 -80 -122 -110 -222 -150 -67 -27 -97 -33 -190 -37 -257 -13 -419 46 -585 215 -53 53 -88 100 -116 156 -71 137 -78 170 -78 345 0 171 12 231 74 346 95 179 261 311 456 363 98 26 269 27 349 2z m729 3 c159 -42 259 -122 395 -315 68 -96 96 -129 111 -129 3 0 44 53 90 118 149 206 247 285 404 327 85 22 242 17 283 -10 l25 -17 -42 -24 c-60 -34 -171 -134 -255 -231 -122 -139 -324 -408 -324 -432 -1 -12 181 -260 294 -401 83 -103 211 -223 288 -269 20 -12 35 -26 32 -31 -3 -4 -40 -13 -83 -19 -101 -15 -246 5 -324 44 -112 56 -158 101 -303 298 -44 59 -85 107 -92 107 -6 0 -58 -62 -115 -139 -61 -82 -127 -158 -163 -188 -124 -103 -282 -148 -433 -123 -42 7 -81 16 -86 20 -4 5 24 29 64 55 110 73 360 362 518 599 39 58 53 29 -135 278 -152 202 -332 390 -406 427 -26 12 -46 28 -44 34 12 36 196 49 301 21z m-3318 -35 c139 -28 259 -88 351 -174 103 -95 152 -171 203 -315 l26 -75 145 0 144 0 3 283 c3 321 -2 304 86 282 97 -24 140 -60 184 -150 25 -52 27 -66 30 -225 2 -97 8 -175 14 -182 8 -10 64 -13 219 -13 l209 0 6 -24 c13 -54 -34 -157 -94 -203 -55 -41 -96 -52 -235 -61 l-112 -7 -3 -269 c-1 -180 -6 -274 -14 -283 -16 -20 -103 -6 -156 25 -103 59 -130 134 -131 353 -1 106 -5 159 -13 167 -17 17 -272 17 -285 0 -6 -7 -18 -38 -28 -68 -57 -174 -195 -333 -356 -408 -141 -66 -182 -75 -329 -75 -110 0 -147 4 -199 22 -176 58 -297 149 -393 291 -71 106 -98 178 -119 313 -29 192 45 428 183 574 126 135 232 191 453 237 47 9 118 5 211 -15z"/> <path d="M4407 5070 c-69 -54 -92 -169 -52 -253 38 -80 138 -112 212 -66 100 62 102 250 3 317 -44 30 -126 31 -163 2z"/> <path d="M9940 4592 c-36 -10 -76 -24 -89 -32 -45 -24 -121 -102 -152 -157 -50 -86 -64 -83 353 -83 398 0 388 -2 353 64 -37 68 -72 112 -120 148 -90 68 -229 92 -345 60z"/> <path d="M7390 4530 c-97 -37 -125 -54 -180 -109 -32 -31 -69 -79 -82 -107 -68 -136 -53 -324 34 -438 72 -94 162 -150 277 -172 149 -28 312 35 406 159 47 61 61 93 80 179 16 73 16 82 -1 160 -21 96 -57 164 -125 229 -105 103 -285 146 -409 99z"/> </g> </svg>