<?xml version="1.0" standalone="no"?> <!DOCTYPE svg PUBLIC "-//W3C//DTD SVG 20010904//EN" "http://www.w3.org/TR/2001/REC-SVG-20010904/DTD/svg10.dtd"> <svg version="1.0" xmlns="http://www.w3.org/2000/svg" width="1800.000000pt" height="1413.000000pt" viewBox="0 0 1800.000000 1413.000000" preserveAspectRatio="xMidYMid meet"> <g transform="translate(0.000000,1413.000000) scale(0.100000,-0.100000)" fill="#ffffff" stroke="none"> <path d="M4317 14101 c-6 -30 -23 -36 -182 -60 -69 -10 -167 -42 -241 -77 -28 -13 -57 -24 -65 -24 -8 0 -24 -7 -36 -15 -12 -8 -56 -33 -97 -55 -41 -22 -93 -52 -114 -67 -22 -16 -68 -48 -103 -72 -236 -163 -588 -523 -762 -778 -30 -44 -61 -88 -70 -98 -30 -37 -106 -149 -138 -205 -18 -30 -39 -64 -49 -75 -20 -24 -157 -254 -188 -315 -7 -14 -25 -47 -41 -75 -16 -27 -46 -84 -66 -125 -20 -41 -40 -82 -45 -90 -5 -8 -32 -60 -60 -115 -28 -55 -58 -111 -65 -125 -8 -14 -15 -32 -15 -40 0 -8 -9 -28 -20 -45 -11 -16 -20 -37 -20 -46 0 -9 -11 -33 -25 -53 -14 -20 -25 -42 -25 -48 0 -11 -45 -112 -81 -179 -10 -20 -19 -45 -19 -55 0 -11 -10 -35 -22 -54 -11 -19 -24 -48 -29 -65 -4 -16 -24 -68 -44 -115 -47 -109 -83 -203 -100 -263 -8 -26 -21 -59 -29 -75 -17 -29 -48 -117 -71 -196 -8 -27 -23 -68 -34 -90 -10 -23 -24 -59 -29 -81 -26 -100 -49 -172 -64 -195 -9 -14 -19 -45 -23 -70 -4 -25 -15 -63 -24 -85 -10 -23 -21 -58 -25 -80 -4 -21 -16 -56 -27 -77 -10 -20 -19 -50 -19 -65 0 -15 -12 -55 -25 -88 -14 -33 -25 -69 -25 -80 -1 -11 -8 -38 -16 -60 -9 -22 -22 -71 -30 -109 -8 -39 -21 -80 -28 -91 -8 -12 -18 -44 -22 -71 -4 -27 -18 -79 -30 -116 -13 -37 -24 -76 -24 -87 0 -11 -11 -55 -24 -98 -13 -43 -27 -97 -30 -120 -3 -24 -13 -57 -20 -75 -8 -18 -21 -67 -29 -108 -8 -41 -22 -95 -30 -120 -9 -25 -21 -72 -26 -105 -19 -114 -43 -220 -61 -275 -10 -30 -22 -84 -26 -120 -4 -36 -15 -87 -24 -115 -10 -27 -21 -81 -25 -118 -4 -38 -14 -85 -22 -105 -9 -21 -20 -73 -24 -117 -5 -44 -18 -107 -28 -140 -11 -33 -22 -92 -25 -131 -3 -39 -12 -89 -19 -110 -8 -21 -20 -84 -27 -139 -7 -55 -21 -126 -31 -157 -11 -32 -19 -77 -19 -100 -1 -24 -10 -83 -20 -133 -11 -49 -24 -135 -30 -190 -6 -55 -20 -131 -30 -170 -10 -38 -21 -108 -25 -155 -3 -47 -12 -116 -20 -155 -8 -38 -19 -119 -24 -180 -6 -60 -17 -132 -26 -160 -9 -27 -20 -114 -25 -193 -5 -79 -16 -169 -24 -200 -8 -31 -20 -118 -26 -192 -6 -74 -16 -153 -21 -175 -5 -22 -16 -128 -24 -235 -8 -107 -21 -226 -29 -265 -8 -38 -17 -137 -21 -220 -4 -82 -14 -186 -21 -230 -8 -44 -19 -165 -24 -270 -11 -225 -16 -295 -35 -435 -7 -58 -16 -199 -20 -315 -3 -115 -14 -304 -25 -420 -12 -138 -23 -386 -30 -725 -13 -578 -20 -714 -44 -761 -14 -28 -16 -84 -16 -426 l0 -393 969 0 c763 0 971 3 979 13 6 7 12 290 16 777 3 421 11 819 16 885 5 66 14 354 20 640 6 329 15 573 25 665 9 80 20 307 25 505 7 251 16 405 29 510 11 83 23 240 26 351 3 110 10 227 15 260 6 32 17 180 25 327 8 152 23 317 34 380 11 62 22 179 25 260 3 81 13 189 21 240 8 51 19 175 25 277 6 102 17 205 25 230 8 25 19 115 25 200 6 85 17 189 25 230 8 41 19 138 25 215 6 77 17 165 24 195 8 30 19 111 25 180 6 69 16 141 22 160 6 19 17 97 24 172 8 75 21 161 30 190 9 29 21 108 25 176 5 68 15 147 23 175 8 29 18 90 22 136 4 46 15 109 24 140 10 31 21 97 25 148 4 50 15 116 25 146 11 30 22 90 26 133 4 44 14 97 22 119 7 21 18 81 23 131 5 51 18 114 28 141 11 26 22 81 26 121 4 40 13 87 20 105 8 18 19 69 25 113 7 45 21 107 31 138 11 30 20 68 20 84 0 16 11 66 25 112 14 46 25 97 25 114 1 17 8 49 16 71 9 22 24 80 35 128 10 48 23 95 28 105 5 10 14 46 21 81 6 35 20 80 31 100 10 19 19 52 19 73 0 20 9 60 20 88 11 28 20 61 20 74 0 12 11 44 24 69 13 26 27 70 30 98 4 28 15 70 25 93 11 22 26 61 34 86 17 53 29 87 52 155 9 28 24 70 32 95 9 25 24 63 34 86 11 22 19 49 19 60 0 10 8 33 19 49 10 17 24 48 31 70 7 22 21 53 31 70 11 16 19 37 19 45 0 13 80 187 115 250 7 14 32 61 55 105 67 131 93 176 150 258 30 43 62 88 70 100 8 12 22 30 30 39 8 9 42 47 75 85 80 92 233 223 260 223 7 0 18 6 24 14 7 8 48 26 92 41 157 52 314 31 480 -66 100 -58 155 -105 262 -225 54 -60 107 -118 118 -129 10 -12 19 -24 19 -28 0 -4 26 -47 59 -95 69 -102 140 -224 198 -342 89 -182 143 -297 143 -307 0 -6 18 -48 39 -95 22 -46 46 -107 54 -135 9 -28 21 -62 28 -75 8 -13 19 -41 25 -63 7 -22 27 -78 44 -125 29 -78 45 -127 100 -305 10 -33 27 -87 38 -120 23 -71 39 -129 57 -209 8 -32 22 -79 33 -105 11 -25 23 -70 26 -100 4 -30 13 -66 21 -80 7 -15 19 -56 25 -91 6 -36 18 -80 26 -98 7 -19 18 -66 23 -106 5 -40 16 -86 25 -103 8 -17 20 -64 27 -105 6 -40 17 -92 25 -116 8 -23 14 -58 14 -77 0 -19 11 -69 24 -112 14 -43 28 -105 31 -138 4 -33 15 -91 26 -130 10 -38 21 -97 25 -130 3 -33 14 -87 25 -120 10 -33 23 -101 29 -152 5 -51 14 -103 20 -117 5 -15 15 -68 21 -119 6 -50 19 -128 29 -172 11 -44 22 -120 25 -170 4 -49 13 -113 20 -140 8 -28 19 -97 25 -155 5 -58 18 -136 29 -175 10 -38 22 -119 26 -180 4 -60 13 -135 21 -165 8 -30 21 -125 29 -210 8 -85 19 -171 25 -190 6 -19 13 -87 16 -150 3 -63 12 -144 19 -180 23 -105 35 -204 35 -284 0 -42 9 -138 19 -213 11 -76 23 -201 26 -278 4 -77 16 -182 26 -234 13 -61 21 -159 25 -285 3 -105 12 -234 20 -286 8 -52 21 -221 29 -375 9 -154 19 -307 24 -340 5 -33 15 -193 21 -355 6 -162 15 -358 21 -435 17 -240 28 -561 39 -1090 25 -1232 32 -1471 40 -1492 l10 -23 939 0 c739 0 941 3 949 13 16 19 21 172 32 907 12 833 27 1373 40 1460 6 36 15 229 20 430 6 201 17 424 25 495 7 72 17 216 20 320 4 105 15 262 25 350 11 88 24 255 30 370 6 116 17 251 25 300 8 50 19 163 25 251 6 89 19 210 29 270 10 60 21 172 24 249 3 77 13 172 21 210 8 39 18 118 21 175 4 58 15 148 25 200 10 52 21 145 25 205 3 61 13 139 21 175 8 36 21 128 29 205 7 77 18 154 25 170 6 17 15 78 20 137 5 60 18 141 29 180 11 40 22 114 26 163 3 50 13 114 21 143 8 28 21 106 29 171 7 66 19 129 25 141 7 13 16 66 21 119 5 53 18 125 29 159 11 35 20 80 20 101 0 20 7 61 15 91 8 30 22 93 31 140 8 47 22 108 29 135 8 28 19 83 26 124 6 40 19 98 30 129 10 30 19 74 19 96 1 23 8 59 16 81 9 22 23 76 31 120 8 44 21 95 29 114 8 18 14 48 14 65 1 17 10 56 21 86 11 30 29 91 39 135 36 152 52 210 67 245 9 19 21 62 28 95 11 53 32 122 67 220 5 17 18 57 29 90 20 66 64 192 104 300 52 140 64 171 85 229 11 32 27 68 34 80 8 11 17 32 21 46 15 55 198 426 248 503 20 32 37 61 37 65 0 7 25 46 60 97 8 12 36 53 62 92 52 76 219 253 308 325 51 41 191 118 216 118 6 0 25 7 42 15 44 23 227 23 270 1 17 -9 39 -16 50 -16 31 0 187 -99 260 -166 119 -108 278 -314 357 -462 14 -26 37 -65 50 -87 13 -22 32 -56 41 -75 56 -121 76 -160 83 -165 5 -2 12 -17 15 -32 3 -16 17 -50 30 -78 13 -27 34 -75 47 -105 12 -30 32 -77 45 -105 12 -27 26 -63 30 -80 4 -16 15 -47 25 -67 11 -21 19 -45 19 -55 0 -10 11 -40 25 -68 13 -27 25 -59 25 -70 0 -11 11 -47 23 -80 38 -95 58 -155 74 -220 8 -33 24 -81 34 -107 10 -26 19 -55 19 -66 0 -10 11 -46 25 -80 14 -34 25 -73 25 -87 0 -14 11 -58 25 -97 14 -39 25 -82 25 -94 0 -13 9 -45 19 -71 10 -27 22 -76 26 -108 4 -33 16 -80 26 -105 10 -25 23 -75 29 -111 5 -37 16 -82 24 -101 8 -18 18 -63 22 -98 4 -36 15 -87 26 -114 10 -26 21 -76 24 -110 3 -33 12 -77 20 -96 8 -19 21 -78 29 -130 7 -52 21 -120 29 -150 9 -30 16 -70 16 -88 0 -19 11 -75 24 -126 13 -50 27 -120 31 -156 4 -36 15 -96 25 -135 10 -38 22 -106 26 -150 4 -44 13 -100 20 -125 8 -25 19 -88 24 -140 6 -52 18 -122 26 -155 8 -33 19 -114 24 -180 5 -66 16 -142 24 -170 8 -27 20 -97 25 -155 6 -58 17 -134 25 -170 9 -36 18 -110 22 -165 3 -55 14 -136 25 -180 10 -44 23 -147 29 -230 5 -82 16 -181 24 -220 8 -38 17 -122 21 -185 4 -63 15 -156 26 -207 10 -51 21 -152 25 -225 3 -73 14 -194 24 -268 10 -74 21 -193 25 -265 6 -123 12 -183 35 -335 5 -36 12 -135 15 -220 3 -85 14 -229 25 -320 10 -91 22 -257 26 -370 3 -113 12 -241 20 -285 7 -44 18 -215 24 -380 9 -276 18 -427 40 -735 5 -63 11 -268 15 -455 3 -187 11 -425 16 -530 23 -444 28 -664 29 -1267 0 -350 3 -643 6 -652 6 -14 99 -16 954 -16 522 0 955 3 964 6 14 5 16 42 16 314 0 308 -12 678 -30 970 -6 85 -15 342 -20 570 -6 232 -17 472 -25 545 -8 72 -20 247 -25 390 -6 143 -14 282 -20 308 -12 60 -30 311 -30 427 0 47 -9 139 -20 206 -11 66 -24 199 -29 295 -6 96 -16 206 -24 244 -8 39 -18 131 -22 205 -3 74 -15 178 -25 231 -11 53 -24 157 -29 230 -5 74 -14 146 -20 162 -6 15 -17 100 -25 190 -8 89 -19 173 -24 187 -5 14 -15 77 -22 140 -6 63 -20 162 -30 220 -10 58 -21 140 -25 182 -3 43 -12 97 -21 120 -8 22 -19 84 -25 137 -5 53 -17 128 -25 166 -9 39 -20 108 -25 155 -5 47 -16 108 -25 135 -9 28 -22 95 -30 150 -7 55 -20 125 -29 155 -8 30 -15 68 -15 86 0 17 -9 66 -20 110 -11 43 -24 114 -30 159 -5 44 -16 94 -24 110 -8 17 -20 69 -25 115 -5 47 -17 105 -25 129 -9 24 -19 69 -23 100 -3 31 -14 76 -23 101 -10 25 -23 79 -29 120 -7 41 -19 94 -27 118 -8 24 -19 74 -24 111 -5 37 -16 81 -25 97 -8 16 -15 44 -15 62 0 19 -11 66 -24 105 -14 40 -28 94 -32 121 -4 28 -15 68 -25 90 -9 23 -20 64 -24 91 -4 28 -15 70 -25 95 -10 25 -21 68 -25 95 -4 28 -15 66 -25 85 -10 19 -20 58 -24 85 -4 28 -15 70 -25 95 -10 25 -25 72 -34 105 -8 33 -21 80 -27 105 -7 25 -21 68 -32 95 -11 28 -24 70 -28 95 -5 25 -15 59 -24 75 -9 17 -16 38 -16 48 0 10 -14 52 -30 94 -16 41 -30 84 -30 97 0 12 -7 31 -15 43 -8 12 -22 50 -31 85 -9 35 -20 68 -24 73 -4 6 -15 35 -23 65 -9 30 -25 73 -37 95 -11 21 -20 47 -20 56 0 10 -11 39 -24 66 -13 26 -27 64 -31 83 -4 19 -13 44 -20 55 -7 11 -15 35 -19 53 -3 19 -14 46 -25 60 -10 15 -22 43 -26 62 -4 19 -16 49 -26 66 -10 17 -19 38 -19 46 0 8 -11 36 -25 62 -14 26 -25 55 -25 64 0 9 -11 35 -25 57 -13 22 -25 50 -25 61 0 12 -8 32 -19 45 -10 13 -21 35 -25 49 -8 30 -19 53 -187 393 -73 147 -136 270 -140 273 -4 2 -13 21 -20 42 -6 20 -18 45 -26 54 -17 19 -43 64 -72 124 -10 23 -24 45 -30 49 -6 3 -18 21 -26 38 -8 18 -27 51 -43 74 -15 23 -47 75 -72 115 -24 40 -52 84 -63 98 -78 106 -117 162 -117 169 0 5 -7 15 -16 22 -9 7 -31 35 -49 62 -18 27 -51 70 -74 95 -22 26 -65 79 -96 117 -66 82 -304 326 -355 363 -19 15 -62 49 -95 77 -33 28 -71 59 -85 68 -14 9 -56 39 -95 66 -38 27 -104 67 -146 89 -42 21 -87 47 -100 56 -13 9 -30 16 -39 16 -8 0 -35 11 -60 24 -25 13 -63 26 -84 30 -21 4 -48 14 -60 21 -12 8 -70 21 -131 30 -113 17 -154 33 -162 66 -5 18 -16 19 -144 19 -114 0 -139 -3 -139 -14 0 -32 -48 -53 -147 -66 -54 -7 -116 -19 -138 -27 -22 -8 -60 -20 -85 -28 -87 -26 -235 -90 -290 -126 -14 -9 -35 -20 -48 -24 -29 -8 -245 -155 -326 -221 -207 -166 -522 -499 -646 -681 -8 -12 -40 -55 -71 -95 -31 -40 -95 -131 -142 -203 -47 -71 -95 -141 -105 -155 -10 -14 -33 -54 -51 -90 -19 -36 -42 -73 -52 -83 -11 -10 -19 -26 -19 -36 0 -10 -10 -31 -22 -46 -12 -16 -29 -41 -38 -56 -22 -41 -106 -200 -162 -309 -27 -52 -53 -102 -58 -110 -17 -29 -107 -225 -115 -250 -4 -14 -13 -32 -21 -40 -7 -9 -20 -34 -27 -56 -8 -22 -24 -57 -36 -79 -11 -22 -21 -47 -21 -56 0 -9 -6 -22 -14 -28 -8 -7 -18 -27 -21 -44 -4 -18 -18 -54 -31 -80 -13 -27 -24 -54 -24 -61 0 -6 -9 -29 -20 -51 -11 -21 -25 -54 -31 -74 -7 -20 -20 -52 -30 -71 -11 -19 -19 -42 -19 -50 0 -8 -11 -37 -25 -65 -13 -27 -25 -59 -25 -70 0 -11 -7 -33 -16 -50 -9 -16 -25 -55 -35 -85 -15 -47 -38 -110 -88 -245 -25 -68 -61 -184 -61 -197 0 -7 -8 -29 -19 -48 -10 -19 -22 -55 -26 -80 -4 -25 -15 -61 -25 -80 -10 -20 -22 -54 -26 -75 -3 -22 -15 -62 -25 -88 -11 -26 -19 -60 -19 -75 0 -16 -11 -50 -24 -78 -13 -27 -26 -67 -29 -89 -2 -23 -18 -68 -34 -100 -44 -89 -85 -86 -97 7 -4 28 -16 68 -27 89 -10 21 -19 47 -19 58 0 11 -11 50 -25 87 -14 36 -25 77 -25 91 0 13 -11 49 -25 79 -14 30 -25 62 -25 72 -1 9 -8 35 -16 57 -9 22 -20 58 -25 80 -5 22 -18 60 -28 85 -22 52 -57 154 -76 221 -7 25 -22 63 -34 84 -12 22 -21 47 -21 55 0 8 -11 42 -25 75 -13 33 -25 70 -25 81 0 12 -9 33 -20 47 -11 14 -24 45 -29 69 -10 44 -54 158 -76 193 -7 11 -16 35 -20 54 -4 19 -18 54 -31 79 -13 25 -24 51 -24 58 0 8 -9 28 -20 46 -11 18 -20 40 -20 49 0 10 -12 42 -27 71 -16 30 -39 79 -52 109 -22 53 -37 83 -58 124 -5 11 -19 40 -30 65 -12 25 -46 97 -77 161 -31 63 -56 120 -56 126 0 6 -6 16 -14 22 -7 6 -31 46 -51 89 -21 42 -62 120 -92 172 -72 126 -72 127 -111 188 -18 29 -37 63 -43 75 -44 96 -427 641 -489 697 -10 8 -48 51 -86 95 -112 131 -195 216 -314 322 -74 65 -264 215 -285 224 -11 5 -40 23 -65 39 -25 17 -68 41 -97 54 -28 14 -54 30 -58 35 -3 6 -14 11 -24 11 -10 0 -29 8 -42 19 -13 10 -35 22 -49 26 -14 4 -50 17 -80 29 -99 41 -214 76 -247 76 -44 0 -174 28 -190 41 -7 7 -13 20 -13 30 0 18 -10 19 -149 19 l-148 0 -6 -29z"/> <path d="M17105 1341 c-176 -18 -391 -170 -467 -329 -11 -23 -24 -45 -29 -48 -5 -3 -9 -16 -9 -29 0 -13 -9 -48 -21 -77 -33 -83 -30 -252 7 -367 15 -47 36 -97 46 -110 10 -13 18 -30 18 -39 0 -16 79 -113 122 -150 47 -40 122 -88 178 -114 131 -61 401 -59 537 4 71 32 149 83 196 127 71 65 166 223 167 277 1 11 9 37 20 59 28 57 28 210 0 290 -11 32 -20 65 -20 73 0 31 -63 146 -112 205 -50 61 -120 127 -133 127 -4 0 -19 8 -33 19 -48 33 -163 73 -236 82 -79 9 -141 9 -231 0z m344 -90 c85 -36 114 -56 190 -131 82 -80 132 -179 161 -317 13 -65 20 -126 17 -145 -23 -128 -47 -221 -60 -236 -8 -9 -22 -33 -30 -52 -26 -62 -137 -178 -202 -213 -129 -69 -165 -80 -277 -85 -95 -4 -115 -2 -187 21 -44 15 -104 40 -134 57 -82 46 -207 176 -207 214 0 9 -9 25 -20 36 -12 12 -31 60 -45 116 -32 120 -33 235 -5 324 11 34 20 68 20 75 0 32 96 169 159 227 126 117 219 149 412 144 124 -4 141 -6 208 -35z"/> <path d="M16982 1047 c-6 -7 -10 -150 -9 -377 l2 -365 35 0 35 0 5 168 c6 189 9 197 80 197 78 0 114 -28 157 -122 6 -16 16 -28 21 -28 5 0 15 -15 23 -32 7 -18 23 -47 36 -64 13 -17 23 -36 23 -41 0 -16 70 -75 83 -70 20 6 20 48 0 70 -11 12 -25 33 -31 47 -7 14 -26 43 -42 65 -45 60 -70 111 -70 144 0 32 5 35 75 46 79 12 117 100 100 230 -5 47 -12 61 -42 88 -19 18 -42 37 -51 42 -26 15 -418 17 -430 2z m392 -50 c46 -22 56 -31 71 -71 15 -39 16 -52 6 -93 -15 -59 -23 -69 -83 -99 -42 -21 -61 -24 -161 -24 l-113 0 -17 29 c-13 22 -17 53 -17 134 0 92 3 108 22 132 l22 28 108 -6 c85 -4 120 -11 162 -30z"/> </g> </svg>