<?xml version="1.0" standalone="no"?> <!DOCTYPE svg PUBLIC "-//W3C//DTD SVG 20010904//EN" "http://www.w3.org/TR/2001/REC-SVG-20010904/DTD/svg10.dtd"> <svg version="1.0" xmlns="http://www.w3.org/2000/svg" width="1800.000000pt" height="825.000000pt" viewBox="0 0 1800.000000 825.000000" preserveAspectRatio="xMidYMid meet"> <g transform="translate(0.000000,825.000000) scale(0.100000,-0.100000)" fill="#ffffff" stroke="none"> <path d="M8135 8162 c-60 -15 73 -33 310 -42 127 -6 293 -14 370 -20 212 -14 343 -16 356 -3 7 7 9 23 5 37 l-6 26 -414 0 c-227 0 -453 2 -502 4 -49 3 -102 2 -119 -2z"/> <path d="M10406 8088 c-20 -33 -35 -67 -32 -75 4 -9 28 -13 88 -13 46 0 193 -6 328 -15 529 -32 789 -45 885 -45 94 0 140 -9 117 -23 -18 -12 -317 -26 -742 -37 -234 -6 -431 -13 -437 -15 -7 -2 -79 -5 -159 -6 -81 0 -157 -5 -169 -11 -12 -5 -41 -44 -64 -86 -22 -43 -51 -94 -63 -115 -18 -31 -20 -40 -9 -47 8 -4 80 -11 160 -14 166 -7 561 -30 886 -52 121 -8 252 -14 292 -14 71 0 94 -9 70 -28 -6 -5 -106 -12 -222 -16 -432 -13 -827 -26 -1055 -36 -265 -11 -246 -4 -300 -105 -18 -33 -38 -67 -45 -75 -17 -20 -28 -57 -18 -63 4 -3 123 -12 263 -21 140 -9 323 -21 405 -26 83 -6 258 -15 390 -20 132 -5 266 -12 298 -16 57 -6 80 -20 58 -34 -7 -4 -148 -10 -314 -13 -166 -3 -421 -10 -567 -16 -146 -6 -349 -14 -453 -17 l-187 -6 -39 -67 c-98 -168 -107 -191 -73 -191 9 0 118 -6 242 -14 124 -8 349 -22 500 -31 606 -34 635 -36 649 -50 12 -12 11 -15 -10 -19 -13 -3 -116 -7 -229 -10 -113 -2 -340 -9 -505 -16 -165 -6 -405 -15 -533 -19 -148 -6 -238 -13 -246 -20 -8 -7 -22 -26 -31 -44 -8 -18 -25 -48 -37 -67 -61 -104 -68 -119 -59 -124 11 -7 349 -29 786 -51 590 -30 659 -38 615 -65 -8 -5 -105 -10 -215 -10 -110 0 -362 -6 -560 -15 -198 -8 -574 -21 -835 -30 -1004 -32 -1418 -46 -1780 -61 -206 -8 -440 -14 -520 -15 -156 -1 -255 -11 -210 -22 29 -7 259 -25 410 -32 58 -3 227 -12 375 -20 149 -8 401 -21 560 -30 160 -8 355 -20 435 -25 80 -5 199 -12 265 -15 66 -3 235 -12 375 -20 140 -8 383 -21 540 -30 157 -9 353 -20 436 -25 82 -6 230 -13 328 -17 99 -3 179 -11 183 -16 17 -28 -32 -35 -295 -41 -252 -6 -543 -16 -1477 -51 -220 -8 -605 -22 -855 -30 -250 -9 -572 -20 -715 -26 -143 -6 -392 -14 -553 -18 -407 -11 -405 -21 8 -46 591 -35 1229 -70 1450 -80 69 -3 181 -10 250 -15 69 -5 262 -16 430 -25 168 -9 382 -20 475 -26 94 -6 256 -14 360 -19 105 -5 253 -14 330 -20 77 -5 186 -10 242 -10 97 0 129 -9 107 -30 -12 -11 -668 -39 -1374 -60 -179 -5 -433 -14 -565 -19 -223 -10 -642 -26 -1365 -52 -162 -6 -427 -14 -588 -19 -161 -4 -296 -10 -299 -13 -13 -14 210 -33 537 -47 129 -5 300 -14 380 -20 154 -10 500 -30 975 -55 160 -9 403 -22 540 -30 436 -26 604 -35 832 -45 122 -6 266 -15 320 -20 54 -5 153 -10 220 -10 67 0 128 -3 137 -6 18 -7 21 -30 6 -39 -5 -3 -166 -10 -357 -15 -192 -5 -449 -14 -573 -19 -124 -6 -443 -17 -710 -26 -498 -16 -1091 -37 -1540 -56 -140 -6 -421 -14 -623 -19 -203 -4 -371 -11 -374 -14 -17 -16 164 -35 452 -46 149 -6 284 -13 300 -15 17 -3 136 -10 265 -15 129 -5 293 -14 365 -20 114 -8 495 -29 830 -45 61 -3 175 -10 255 -15 80 -5 273 -16 430 -25 157 -9 399 -22 537 -30 139 -8 301 -15 360 -15 125 0 153 -6 153 -30 0 -15 -15 -18 -112 -23 -62 -4 -162 -7 -223 -7 -60 0 -283 -7 -495 -15 -212 -8 -554 -22 -760 -30 -206 -9 -423 -15 -482 -15 -58 0 -113 -3 -122 -6 -13 -5 -16 -23 -16 -89 0 -116 -1 -115 79 -115 36 0 129 -5 206 -10 77 -5 237 -14 355 -20 118 -5 283 -14 365 -20 334 -23 666 -40 760 -40 147 0 205 -9 205 -30 0 -22 -64 -27 -460 -34 -151 -3 -383 -10 -515 -15 -132 -6 -386 -15 -565 -22 -178 -6 -344 -14 -370 -18 l-45 -7 3 -94 c2 -57 8 -100 15 -107 13 -13 114 -20 662 -48 171 -9 401 -23 513 -31 111 -8 257 -14 325 -14 154 0 197 -7 197 -30 0 -25 -37 -30 -249 -30 -102 -1 -260 -5 -351 -10 -91 -5 -352 -14 -580 -20 -228 -7 -437 -15 -465 -18 l-50 -7 -3 -105 c-1 -58 2 -112 8 -120 7 -12 40 -16 142 -21 73 -3 219 -11 323 -17 396 -24 748 -43 973 -52 6 0 12 -8 12 -19 0 -24 -65 -31 -289 -31 -91 0 -256 -5 -366 -10 -110 -6 -327 -14 -483 -19 -174 -6 -287 -13 -296 -20 -16 -13 -10 -230 8 -248 7 -7 81 -16 201 -23 105 -6 264 -15 355 -21 91 -6 268 -14 394 -19 227 -8 265 -15 238 -42 -10 -10 -102 -15 -350 -19 -335 -7 -806 -26 -829 -34 -18 -6 -17 -89 1 -104 10 -9 524 -11 2037 -8 2171 4 2064 1 2297 52 260 56 524 159 750 292 41 24 76 43 79 43 3 0 22 14 43 30 21 17 41 30 45 30 3 0 52 35 108 78 184 140 408 379 514 547 140 221 244 665 214 912 -19 153 -54 255 -127 364 -96 146 -296 290 -504 365 -79 28 -88 48 -28 65 42 11 253 96 273 109 6 4 42 24 80 45 39 21 89 50 113 66 24 16 45 29 48 29 21 0 263 199 365 300 174 173 286 326 364 495 100 218 128 350 129 600 1 202 -10 265 -72 415 -62 151 -142 254 -271 349 -64 47 -178 112 -217 124 -11 3 -44 15 -74 26 -72 28 -199 57 -331 76 -92 13 -317 15 -1637 15 l-1530 0 -36 -62z m2189 -1095 c151 -43 248 -112 301 -213 25 -49 28 -65 28 -150 -1 -104 -9 -127 -76 -232 -46 -71 -177 -202 -252 -252 -72 -47 -166 -89 -247 -110 -56 -14 -133 -16 -527 -16 -310 0 -463 3 -467 10 -4 6 9 38 29 71 20 33 36 62 36 64 0 2 27 49 60 105 33 56 60 103 60 105 0 2 20 38 45 79 25 42 45 78 45 80 0 3 19 37 43 78 24 40 46 80 50 88 4 8 17 31 28 50 12 19 32 55 46 80 25 48 29 53 81 138 l33 54 307 -4 c268 -4 316 -7 377 -25z m-1005 -1836 c348 -4 356 -5 470 -63 131 -67 209 -241 181 -406 -13 -76 -64 -222 -87 -249 -8 -8 -14 -18 -14 -22 0 -18 -73 -111 -140 -178 -66 -66 -104 -96 -182 -144 -55 -33 -139 -70 -228 -98 -62 -20 -93 -21 -728 -25 -602 -3 -663 -2 -668 13 -4 8 1 24 10 34 9 10 16 20 16 23 0 4 19 39 43 80 24 40 46 80 50 88 4 8 11 22 17 30 19 29 100 172 100 176 0 2 10 21 23 42 13 20 40 66 59 102 20 36 69 124 110 196 41 71 77 137 81 145 4 8 11 21 17 29 25 39 100 172 100 179 0 13 44 49 64 53 10 1 100 2 200 1 100 -2 327 -4 506 -6z"/> <path d="M8985 7823 c-66 -2 -289 -10 -496 -18 -206 -8 -467 -15 -580 -16 -213 -1 -335 -10 -289 -21 45 -11 222 -28 355 -33 141 -6 497 -27 805 -47 107 -7 245 -13 305 -13 l110 0 1 63 c1 74 -12 93 -59 90 -18 -1 -86 -4 -152 -5z"/> <path d="M8910 7408 c-124 -4 -409 -15 -635 -23 -225 -9 -486 -16 -580 -16 -189 -1 -307 -11 -265 -22 43 -11 200 -26 335 -32 72 -3 245 -12 385 -20 580 -33 812 -45 930 -47 l125 -3 3 61 c4 82 -9 115 -45 112 -16 -1 -129 -5 -253 -10z"/> <path d="M8800 6999 c-80 -4 -320 -12 -535 -19 -214 -6 -466 -15 -560 -20 -93 -5 -242 -10 -330 -11 -88 0 -182 -4 -210 -8 l-50 -7 35 -7 c46 -8 289 -25 460 -32 74 -3 232 -12 350 -20 118 -8 350 -22 515 -30 165 -9 399 -23 520 -31 131 -8 223 -10 228 -5 6 6 6 47 1 103 l-9 93 -135 1 c-74 1 -200 -2 -280 -7z"/> <path d="M9130 6593 c-84 -2 -719 -26 -1305 -48 -214 -9 -448 -15 -520 -15 -173 0 -385 -11 -385 -21 0 -13 121 -28 275 -34 159 -6 510 -25 940 -50 619 -36 799 -45 945 -47 l155 -3 3 102 c3 121 5 119 -108 116z"/> <path d="M7225 4463 c-55 -1 -282 -9 -505 -18 -223 -8 -518 -19 -655 -23 -138 -5 -257 -12 -264 -16 -26 -16 12 -25 135 -31 144 -7 581 -30 944 -50 539 -30 499 -29 526 -4 13 12 24 26 24 31 0 5 11 26 25 48 41 65 37 70 -52 68 -43 -1 -123 -3 -178 -5z"/> <path d="M6890 4040 c-248 -7 -670 -23 -1080 -41 -387 -17 -401 -34 -39 -48 134 -6 316 -15 404 -21 213 -14 655 -38 835 -46 164 -7 151 -11 195 74 15 29 31 55 36 57 4 3 6 12 2 20 -4 11 -19 15 -57 13 -28 -1 -161 -4 -296 -8z"/> <path d="M6490 3609 c-80 -4 -327 -12 -550 -18 -420 -12 -674 -27 -700 -42 -13 -7 -13 -8 0 -9 244 -9 519 -21 640 -29 188 -12 646 -39 865 -50 153 -8 161 -7 183 12 12 11 22 24 22 28 0 5 13 30 29 58 16 27 27 52 24 55 -8 8 -330 5 -513 -5z"/> <path d="M6459 3196 c-2 -2 -157 -9 -344 -15 -629 -22 -1096 -42 -1113 -49 -27 -11 31 -19 138 -21 108 -1 653 -31 1343 -72 124 -8 192 -8 198 -2 14 14 89 144 89 154 0 8 -302 13 -311 5z"/> <path d="M6100 2769 c-80 -4 -311 -12 -514 -18 -202 -6 -375 -15 -383 -20 -27 -15 191 -21 743 -21 l543 0 21 22 c41 44 31 48 -122 46 -79 0 -208 -5 -288 -9z"/> <path d="M6337 2354 c-4 -4 -7 -501 -7 -1105 0 -991 2 -1097 16 -1103 30 -12 332 -7 340 5 4 7 6 47 5 91 -1 65 2 80 16 85 10 4 22 -1 32 -13 24 -30 120 -98 171 -122 85 -40 157 -52 305 -52 207 0 321 35 470 145 92 68 135 113 199 210 177 266 196 631 48 910 -116 218 -318 374 -547 421 -198 40 -401 1 -552 -108 -28 -21 -54 -42 -58 -48 -3 -5 -15 -10 -25 -10 -19 0 -20 12 -22 348 l-3 347 -191 3 c-104 1 -193 -1 -197 -4z m965 -888 c83 -20 155 -63 229 -136 104 -104 143 -199 143 -350 0 -174 -67 -306 -208 -409 -144 -104 -335 -123 -501 -50 -116 51 -228 179 -271 309 -24 74 -24 226 1 300 53 159 190 293 343 335 63 17 194 17 264 1z"/> <path d="M10140 2343 c0 -10 0 -506 0 -1102 0 -857 3 -1086 12 -1093 7 -4 92 -8 189 -8 137 0 179 3 188 14 8 10 11 303 9 1107 l-3 1094 -197 3 c-184 2 -198 1 -198 -15z"/> <path d="M1030 1844 c-133 -22 -198 -50 -292 -125 -34 -27 -67 -49 -74 -49 -9 0 -14 21 -16 68 l-3 67 -175 0 -175 0 0 -830 0 -830 190 0 190 0 6 480 c6 520 11 578 64 690 47 98 146 165 244 165 125 0 220 -71 268 -200 38 -101 43 -175 44 -645 1 -266 5 -467 11 -478 8 -16 26 -17 196 -15 l187 3 0 555 c0 632 -2 649 -72 799 -95 200 -282 326 -513 345 -30 2 -66 2 -80 0z"/> <path d="M2665 1844 c-98 -9 -237 -44 -293 -73 -9 -5 -24 -12 -32 -16 -50 -20 -146 -88 -203 -144 -388 -375 -370 -971 38 -1314 77 -64 212 -135 315 -163 94 -27 333 -31 415 -9 174 49 285 112 408 233 56 55 106 122 140 189 10 18 24 47 33 64 30 58 26 59 -202 59 l-207 0 -61 -63 c-71 -74 -97 -92 -174 -118 -151 -52 -354 5 -465 131 -58 68 -104 159 -85 171 7 5 291 9 630 9 482 0 619 3 625 13 4 6 9 75 11 152 4 141 -9 228 -50 335 -35 95 -113 207 -209 303 -54 53 -103 97 -110 97 -7 0 -20 6 -28 14 -24 21 -108 62 -176 85 -101 33 -234 52 -320 45z m175 -378 c81 -19 148 -60 211 -126 56 -59 123 -178 117 -208 -3 -16 -43 -17 -446 -20 -400 -2 -443 -1 -449 14 -10 26 57 143 119 209 31 34 80 74 110 90 94 51 228 68 338 41z"/> <path d="M13385 1840 c-68 -10 -123 -27 -165 -50 -19 -10 -45 -23 -56 -29 -12 -5 -41 -28 -64 -50 -60 -57 -70 -54 -70 19 0 48 -4 61 -19 70 -23 12 -320 14 -339 2 -10 -7 -12 -180 -10 -833 l3 -824 195 0 195 0 6 510 c6 476 8 514 27 575 28 90 49 127 98 176 94 95 267 97 362 6 48 -47 83 -114 108 -207 16 -62 19 -129 23 -565 l6 -495 184 -3 c127 -2 188 1 197 9 12 9 14 96 14 498 -1 484 -11 687 -39 739 -6 12 -11 28 -11 37 0 26 -58 136 -102 193 -118 153 -357 251 -543 222z"/> <path d="M15030 1844 c-134 -21 -173 -29 -225 -46 -33 -11 -64 -24 -69 -29 -6 -5 -16 -9 -24 -9 -8 0 -34 -13 -59 -30 -24 -16 -47 -30 -50 -30 -9 0 -86 -63 -134 -111 -88 -87 -171 -217 -209 -329 -24 -72 -50 -215 -50 -280 0 -69 28 -224 54 -297 51 -146 167 -300 306 -407 58 -45 236 -136 267 -136 10 0 40 -7 67 -15 74 -23 301 -20 391 4 96 27 127 38 204 78 172 90 312 237 378 400 23 54 25 66 13 73 -16 10 -395 10 -421 1 -9 -3 -35 -29 -57 -57 -45 -57 -123 -112 -197 -137 -102 -35 -248 -15 -368 50 -62 35 -145 125 -182 200 -30 61 -55 170 -55 238 0 70 26 178 60 249 70 150 234 254 400 256 61 0 177 -24 218 -45 39 -20 108 -85 142 -135 13 -19 29 -38 35 -42 5 -4 104 -8 218 -8 169 0 209 3 213 14 7 19 -32 108 -80 181 -133 203 -321 334 -546 380 -74 14 -203 25 -240 19z"/> <path d="M16765 1840 c-170 -23 -299 -74 -425 -171 -124 -94 -193 -179 -260 -317 -118 -243 -119 -524 -3 -757 52 -104 57 -113 116 -185 104 -127 283 -239 450 -280 99 -24 318 -31 371 -11 16 7 49 16 74 22 141 31 325 159 429 300 58 77 118 193 110 213 -6 14 -30 16 -212 16 l-205 0 -62 -66 c-35 -36 -76 -73 -93 -82 -172 -93 -389 -59 -528 82 -56 58 -113 156 -103 181 5 13 81 15 626 15 l620 0 11 28 c7 15 11 89 11 172 0 135 -3 152 -31 238 -89 267 -275 463 -531 557 -103 38 -265 58 -365 45z m201 -374 c107 -23 197 -84 262 -179 39 -56 76 -143 68 -162 -5 -13 -61 -15 -445 -15 -387 0 -440 2 -445 15 -10 27 55 143 117 211 32 35 63 64 68 64 6 0 23 10 39 22 38 28 149 57 220 57 30 0 82 -6 116 -13z"/> <path d="M8815 1826 c-76 -16 -187 -60 -243 -97 -24 -16 -46 -29 -50 -29 -9 0 -129 -115 -166 -159 -34 -41 -106 -162 -124 -211 -54 -145 -56 -159 -56 -340 0 -183 0 -185 58 -346 34 -93 120 -220 206 -302 83 -80 205 -148 330 -183 86 -25 339 -27 421 -3 85 24 171 70 232 124 30 28 60 50 66 50 6 0 11 -36 13 -93 l3 -92 177 -3 c177 -2 178 -2 183 20 3 13 4 376 3 808 l-3 785 -195 0 -195 0 -3 -52 c-2 -29 -6 -53 -9 -53 -3 0 -35 22 -72 49 -93 68 -195 113 -295 131 -77 13 -205 11 -281 -4z m351 -365 c84 -25 149 -65 214 -131 127 -129 178 -310 131 -470 -25 -87 -38 -115 -84 -178 -76 -104 -181 -169 -320 -196 -81 -16 -93 -17 -166 -2 -90 18 -149 42 -206 84 -255 184 -287 530 -71 759 58 62 74 74 146 108 99 47 250 58 356 26z"/> <path d="M11345 1825 c-215 -47 -405 -185 -521 -380 -181 -303 -160 -706 51 -990 113 -151 256 -249 437 -299 39 -11 100 -16 205 -16 157 0 220 11 303 50 83 40 100 51 147 96 26 24 53 44 60 44 9 0 13 -27 15 -93 l3 -92 171 -3 c136 -2 174 0 183 11 8 11 10 222 9 808 l-3 794 -200 0 -200 0 -2 -35 c-1 -19 -2 -41 -2 -47 -1 -20 -20 -15 -55 12 -164 132 -392 185 -601 140z m340 -359 c146 -40 264 -140 330 -280 99 -209 27 -478 -165 -615 -62 -45 -119 -68 -211 -87 -73 -15 -85 -14 -166 1 -193 38 -337 163 -396 345 -25 81 -24 224 3 306 53 159 190 290 345 329 68 17 199 18 260 1z"/> <path d="M3531 1796 c-12 -14 18 -113 109 -371 6 -16 39 -118 75 -225 35 -107 69 -208 75 -225 6 -16 67 -201 136 -410 69 -209 132 -390 140 -403 14 -22 20 -23 132 -20 136 3 122 -9 171 155 17 57 44 147 61 200 16 54 43 145 60 203 17 58 37 125 45 150 29 92 73 236 84 276 6 23 18 47 26 54 12 10 15 7 20 -17 4 -15 13 -50 21 -78 33 -112 48 -162 60 -200 6 -22 20 -69 29 -105 9 -36 23 -81 30 -100 7 -19 21 -64 30 -100 10 -36 23 -83 30 -105 7 -22 20 -65 28 -95 9 -30 29 -95 44 -145 l28 -90 126 -3 c93 -2 129 1 136 10 13 16 30 65 88 253 26 83 60 188 75 235 15 47 49 153 75 235 26 83 60 188 75 235 16 47 48 148 73 225 24 77 66 206 92 287 25 81 45 155 43 165 -3 16 -17 18 -128 21 -166 4 -187 0 -199 -41 -6 -18 -67 -198 -136 -402 -130 -382 -135 -396 -158 -480 -11 -37 -19 -50 -33 -50 -14 0 -21 12 -30 50 -12 49 -22 86 -64 230 -11 39 -24 88 -30 110 -5 22 -19 74 -30 115 -12 41 -28 98 -36 125 -8 28 -21 73 -29 100 -8 28 -24 88 -36 135 -12 47 -29 91 -37 98 -12 9 -55 12 -161 10 l-145 -3 -17 -45 c-16 -44 -32 -95 -65 -215 -17 -60 -33 -117 -59 -210 -8 -27 -20 -72 -28 -100 -21 -75 -76 -273 -94 -335 -9 -30 -18 -61 -20 -69 -3 -10 -7 -11 -14 -4 -11 11 -53 119 -69 178 -9 31 -24 76 -46 135 -7 19 -27 80 -44 135 -17 55 -38 116 -45 135 -8 19 -21 60 -30 90 -9 30 -30 91 -45 135 -15 44 -31 92 -34 108 -4 15 -15 36 -26 47 -18 18 -34 20 -169 20 -117 0 -151 -3 -160 -14z"/> </g> </svg>