<?xml version="1.0" standalone="no"?>
<!DOCTYPE svg PUBLIC "-//W3C//DTD SVG 20010904//EN"
 "http://www.w3.org/TR/2001/REC-SVG-20010904/DTD/svg10.dtd">
<svg version="1.0" xmlns="http://www.w3.org/2000/svg"
 width="1800.000000pt" height="720.000000pt" viewBox="0 0 1800.000000 720.000000"
 preserveAspectRatio="xMidYMid meet">
<g transform="translate(0.000000,720.000000) scale(0.100000,-0.100000)"
fill="#ffffff" stroke="none">
<path d="M17845 6817 c-11 -7 -49 -21 -85 -31 -36 -10 -85 -24 -110 -31 -25
-7 -74 -21 -110 -30 -116 -32 -164 -46 -210 -61 -25 -8 -53 -14 -62 -14 -10 0
-37 -6 -60 -14 -24 -7 -72 -21 -108 -31 -36 -9 -76 -21 -90 -27 -14 -5 -45
-14 -70 -18 -25 -5 -67 -15 -95 -24 -27 -8 -77 -22 -110 -31 -33 -9 -91 -26
-130 -36 -38 -11 -88 -24 -110 -29 -22 -5 -89 -22 -150 -39 -60 -16 -136 -36
-168 -45 -33 -8 -73 -20 -90 -25 -18 -5 -57 -16 -87 -24 -30 -9 -98 -28 -150
-42 -52 -15 -138 -38 -190 -51 -52 -13 -106 -27 -120 -33 -14 -5 -77 -22 -140
-39 -63 -16 -135 -35 -160 -41 -25 -7 -61 -16 -80 -21 -32 -8 -106 -29 -235
-66 -27 -8 -66 -19 -85 -23 -19 -5 -71 -19 -115 -31 -88 -25 -89 -25 -260 -69
-66 -17 -133 -36 -150 -41 -16 -5 -82 -23 -145 -40 -125 -34 -191 -52 -272
-75 -105 -30 -204 -57 -243 -66 -22 -6 -62 -16 -90 -24 -27 -8 -79 -21 -115
-31 -36 -9 -85 -22 -110 -29 -25 -7 -74 -20 -110 -30 -36 -9 -85 -23 -110 -30
-25 -8 -74 -21 -110 -31 -36 -9 -85 -22 -110 -29 -25 -7 -74 -20 -110 -30 -36
-9 -87 -23 -115 -30 -27 -8 -126 -35 -220 -60 -93 -25 -192 -52 -220 -60 -27
-8 -102 -28 -165 -45 -113 -30 -175 -47 -275 -75 -57 -16 -130 -36 -225 -60
-36 -10 -85 -23 -110 -30 -25 -8 -74 -21 -110 -31 -36 -9 -85 -22 -110 -29
-25 -7 -74 -20 -110 -30 -36 -9 -83 -23 -105 -31 -23 -8 -48 -14 -57 -14 -10
0 -37 -6 -60 -14 -24 -7 -72 -21 -108 -31 -36 -9 -85 -23 -110 -30 -25 -8 -72
-21 -105 -29 -52 -13 -117 -31 -340 -91 -62 -16 -144 -39 -210 -59 -27 -8 -84
-22 -125 -31 -41 -9 -90 -23 -108 -31 -18 -8 -40 -14 -50 -14 -9 0 -37 -6 -62
-14 -25 -8 -99 -29 -165 -46 -66 -17 -138 -38 -160 -46 -23 -8 -48 -14 -57
-14 -10 0 -37 -6 -60 -14 -24 -7 -97 -28 -163 -45 -66 -18 -142 -38 -170 -46
-147 -42 -225 -64 -325 -90 -63 -16 -112 -29 -222 -59 -29 -8 -80 -22 -113
-31 -79 -21 -162 -44 -204 -57 -19 -6 -60 -16 -90 -23 -31 -7 -90 -22 -131
-34 -149 -43 -176 -50 -240 -67 -36 -9 -85 -22 -110 -29 -25 -7 -74 -20 -110
-29 -105 -27 -191 -51 -325 -89 -27 -8 -77 -22 -110 -31 -68 -19 -141 -39
-218 -60 -28 -8 -74 -20 -102 -26 -27 -6 -81 -20 -120 -31 -74 -22 -101 -29
-285 -79 -63 -17 -137 -37 -165 -45 -27 -8 -79 -21 -115 -31 -36 -9 -112 -30
-170 -46 -194 -54 -360 -99 -495 -134 -33 -8 -82 -21 -110 -29 -27 -8 -77 -21
-110 -30 -78 -21 -158 -43 -215 -60 -25 -7 -74 -20 -110 -30 -36 -10 -85 -23
-110 -31 -89 -27 -256 -66 -318 -75 -35 -4 -67 -11 -72 -14 -5 -3 -64 -13
-132 -21 -225 -30 -721 -17 -848 21 -25 7 -65 16 -89 19 -44 7 -262 76 -316
101 -16 7 -61 28 -100 46 -286 132 -559 379 -689 621 -13 24 -32 59 -43 78
-30 53 -86 187 -105 250 -38 126 -48 169 -48 201 0 19 -7 55 -14 81 -20 64
-30 349 -17 473 22 211 33 292 46 345 7 30 21 91 30 135 9 44 22 98 29 120 7
22 20 65 29 95 35 117 71 227 89 275 11 28 29 73 40 100 10 28 24 61 30 75 6
14 16 39 23 55 7 17 22 50 33 75 100 222 86 221 -99 -9 -46 -57 -103 -127
-126 -155 -44 -54 -298 -383 -323 -419 -8 -12 -67 -92 -131 -177 -63 -85 -137
-186 -164 -225 -66 -94 -255 -376 -255 -380 0 -2 -19 -32 -42 -67 -24 -35 -47
-71 -53 -80 -5 -9 -67 -110 -136 -225 -69 -114 -129 -215 -132 -223 -4 -8 -23
-42 -42 -75 -49 -83 -315 -619 -315 -633 0 -10 -38 -97 -71 -164 -25 -49 -153
-436 -178 -538 -12 -47 -28 -108 -36 -136 -8 -28 -15 -61 -15 -73 0 -12 -6
-47 -14 -79 -47 -188 -45 -741 3 -865 6 -16 11 -41 11 -57 0 -16 6 -44 14 -62
8 -18 29 -69 47 -113 85 -205 159 -315 314 -471 100 -100 255 -229 340 -281
11 -7 58 -35 105 -63 47 -28 92 -55 100 -61 8 -5 22 -12 30 -15 8 -4 51 -24
95 -46 89 -44 112 -53 270 -104 61 -19 124 -40 140 -46 17 -5 50 -14 75 -18
25 -5 59 -13 75 -19 66 -21 300 -36 585 -36 294 0 416 9 540 41 30 8 75 14
100 14 25 0 65 6 90 14 25 8 108 29 185 46 77 18 155 38 173 46 18 8 40 14 50
14 18 0 77 18 182 56 36 13 79 26 95 29 17 4 46 13 65 20 19 8 76 28 125 45
50 18 104 38 122 46 17 8 39 14 48 14 9 0 29 6 43 14 15 8 45 21 67 29 237 92
423 165 460 182 17 7 82 35 145 61 63 25 133 55 155 65 102 46 158 69 166 69
5 0 33 12 62 26 28 14 81 37 116 51 65 24 153 64 203 89 14 8 32 14 39 14 6 0
37 12 68 26 71 33 119 54 201 89 36 15 85 36 110 47 62 28 63 28 440 188 184
78 358 152 385 165 28 12 106 46 175 75 69 29 129 56 134 61 6 5 16 9 23 9 7
0 41 13 76 29 133 63 197 91 207 91 5 0 56 21 112 46 57 26 117 52 133 59 17
7 55 24 85 38 30 14 80 35 110 47 30 13 78 33 105 45 28 13 91 39 140 60 50
20 97 41 105 46 8 5 22 12 30 15 100 39 227 95 358 155 34 16 67 29 72 29 5 0
47 17 92 39 46 21 108 48 138 61 56 23 112 47 141 60 8 5 76 34 150 65 74 32
152 66 174 76 22 9 116 50 209 89 93 40 177 76 185 80 32 17 130 60 137 60 4
0 28 9 53 21 25 12 60 27 76 34 17 7 60 27 98 44 37 17 72 31 77 31 6 0 34 11
63 26 28 14 142 64 252 111 110 47 225 96 255 110 59 27 92 41 155 68 46 19
79 33 155 68 30 14 147 64 259 112 113 48 212 91 220 95 38 17 94 42 211 90
69 29 166 70 215 92 50 22 104 46 120 54 17 7 50 22 75 33 25 11 131 56 235
101 105 45 208 90 230 100 182 82 246 110 254 110 5 0 31 11 58 24 26 13 125
56 218 96 94 40 195 83 225 97 30 14 69 31 85 38 17 7 60 26 97 44 37 17 72
31 77 31 5 0 22 6 38 14 55 26 101 47 423 187 179 77 342 147 364 155 21 8 72
30 113 49 40 19 76 35 80 35 3 0 24 9 47 19 67 32 147 67 206 91 30 13 83 36
118 51 34 16 64 29 66 29 3 0 42 17 88 39 46 21 108 49 138 61 30 12 78 32
105 45 28 12 75 33 105 45 30 12 78 32 105 45 28 12 75 33 105 45 30 13 87 37
126 55 39 18 102 45 140 60 38 15 74 31 80 36 6 5 41 20 79 34 38 15 92 37
119 50 107 49 186 85 191 85 3 0 35 14 72 31 38 17 86 39 108 49 22 10 69 30
105 45 102 43 121 51 192 84 37 17 74 31 81 31 7 0 17 4 22 9 6 5 82 39 170
76 88 37 183 78 210 90 28 13 73 33 100 44 58 25 88 39 165 74 30 14 100 44
155 67 184 78 231 114 211 165 -7 19 -83 20 -111 2z"/>
</g>
</svg>
