<?xml version="1.0" standalone="no"?> <!DOCTYPE svg PUBLIC "-//W3C//DTD SVG 20010904//EN" "http://www.w3.org/TR/2001/REC-SVG-20010904/DTD/svg10.dtd"> <svg version="1.0" xmlns="http://www.w3.org/2000/svg" width="1800.000000pt" height="576.000000pt" viewBox="0 0 1800.000000 576.000000" preserveAspectRatio="xMidYMid meet"> <g transform="translate(0.000000,576.000000) scale(0.100000,-0.100000)" fill="#ffffff" stroke="none"> <path d="M8540 5654 c-577 -14 -1155 -40 -1455 -65 -71 -6 -197 -15 -280 -19 -82 -5 -188 -14 -235 -19 -47 -6 -161 -18 -255 -26 -93 -9 -218 -22 -277 -30 -59 -8 -127 -15 -151 -15 -25 0 -81 -7 -124 -15 -43 -8 -94 -15 -114 -15 -19 0 -76 -6 -125 -14 -49 -8 -141 -22 -204 -31 -63 -8 -140 -20 -170 -26 -30 -6 -89 -14 -130 -19 -41 -4 -97 -13 -125 -18 -27 -6 -93 -18 -145 -27 -201 -34 -269 -46 -480 -89 -41 -8 -113 -22 -160 -32 -47 -9 -108 -22 -137 -30 -28 -8 -60 -14 -71 -14 -11 0 -42 -6 -68 -14 -27 -8 -112 -28 -189 -46 -77 -17 -160 -38 -184 -46 -25 -8 -54 -14 -65 -14 -11 0 -38 -6 -61 -14 -22 -8 -94 -28 -160 -46 -66 -17 -141 -38 -167 -46 -27 -8 -69 -20 -95 -28 -189 -56 -262 -79 -291 -91 -18 -8 -39 -15 -47 -15 -7 0 -26 -5 -42 -12 -15 -6 -46 -17 -68 -23 -22 -7 -78 -27 -125 -44 -47 -17 -112 -41 -144 -52 -33 -11 -89 -34 -124 -50 -36 -16 -72 -29 -81 -29 -9 0 -25 -7 -35 -15 -11 -8 -26 -15 -33 -15 -8 0 -41 -13 -75 -30 -33 -16 -64 -30 -68 -30 -12 0 -263 -118 -360 -170 -8 -4 -33 -17 -55 -28 -22 -11 -56 -29 -75 -41 -19 -11 -44 -25 -55 -30 -21 -9 -184 -108 -290 -176 -55 -35 -200 -141 -235 -172 -8 -7 -51 -44 -95 -82 -166 -144 -309 -321 -384 -476 -19 -39 -40 -82 -47 -97 -8 -14 -14 -35 -14 -46 0 -11 -8 -37 -17 -58 -24 -57 -24 -361 0 -418 9 -21 17 -45 17 -53 0 -35 88 -207 157 -307 55 -79 81 -110 193 -225 117 -120 279 -248 470 -373 258 -169 678 -380 1005 -505 22 -9 54 -21 70 -28 17 -7 48 -20 70 -28 74 -27 130 -49 163 -63 18 -8 41 -14 50 -14 10 0 27 -7 38 -15 10 -8 26 -15 36 -15 9 0 52 -13 95 -29 43 -16 132 -45 198 -66 66 -20 131 -40 145 -45 14 -4 52 -15 85 -25 33 -9 74 -21 90 -27 17 -5 46 -13 65 -18 19 -4 62 -15 95 -25 115 -32 210 -57 250 -65 22 -5 60 -14 85 -20 131 -34 356 -86 490 -114 41 -8 107 -22 145 -30 39 -9 108 -22 155 -31 47 -9 113 -22 147 -30 34 -8 77 -15 95 -15 18 0 49 -5 69 -10 43 -12 302 -57 409 -71 41 -6 105 -17 141 -25 37 -8 85 -14 107 -14 22 0 73 -6 113 -14 41 -8 137 -21 214 -30 77 -9 167 -21 201 -26 34 -6 116 -14 183 -20 68 -5 127 -13 132 -16 5 -3 69 -10 142 -15 73 -4 168 -13 212 -18 44 -6 175 -18 290 -26 116 -9 287 -23 382 -31 94 -7 212 -14 262 -14 50 0 187 -7 304 -17 315 -24 2207 -24 2535 0 122 9 263 17 313 17 50 0 166 6 257 14 92 8 264 22 382 31 118 8 249 20 290 26 41 5 136 14 210 19 74 5 153 14 175 19 22 6 67 11 100 11 33 0 96 7 140 15 44 8 97 15 119 15 21 0 80 6 130 14 50 8 145 22 211 31 66 8 157 22 201 30 45 8 94 15 108 15 15 0 59 6 99 14 40 8 119 21 177 31 58 9 133 23 167 31 34 8 74 14 88 14 14 0 54 7 88 15 66 15 247 51 337 67 30 5 80 15 110 23 30 7 91 21 135 30 44 10 103 23 130 30 28 7 86 21 130 30 44 10 94 22 110 27 17 6 48 14 70 18 37 7 217 54 310 80 22 7 65 19 95 27 30 9 73 21 95 28 22 7 67 20 100 30 71 21 415 132 465 150 235 87 254 95 350 133 445 178 787 352 1084 550 70 47 133 90 140 97 6 6 27 21 46 35 74 50 267 230 350 325 63 73 133 178 176 269 19 39 42 83 50 98 7 14 14 35 14 46 0 11 8 37 17 58 25 56 25 361 0 418 -9 21 -17 47 -17 59 0 29 -86 200 -143 284 -66 97 -198 243 -299 332 -46 39 -90 77 -98 84 -35 31 -180 137 -235 172 -106 68 -269 167 -290 176 -11 5 -36 19 -55 30 -19 12 -53 30 -75 41 -22 11 -47 24 -55 28 -56 30 -259 127 -325 155 -16 7 -60 27 -97 44 -37 17 -73 31 -81 31 -7 0 -21 6 -32 13 -11 8 -29 16 -40 20 -11 3 -56 20 -100 37 -44 17 -98 38 -120 45 -22 8 -65 23 -95 35 -30 11 -84 30 -120 41 -36 12 -73 25 -82 30 -10 5 -34 13 -55 18 -21 5 -69 20 -108 34 -38 13 -97 32 -130 41 -33 10 -78 24 -100 31 -77 23 -151 44 -265 75 -63 17 -136 37 -161 45 -26 8 -55 15 -66 15 -11 0 -39 6 -64 14 -24 8 -107 29 -184 46 -77 18 -162 38 -189 46 -26 8 -57 14 -68 14 -11 0 -43 6 -71 14 -53 14 -134 31 -287 60 -47 9 -113 23 -147 31 -34 8 -73 15 -88 15 -14 0 -54 6 -88 14 -34 8 -107 22 -162 31 -55 9 -131 23 -170 31 -38 8 -84 14 -102 14 -18 0 -65 7 -105 15 -40 8 -107 18 -148 24 -41 5 -142 19 -225 30 -288 40 -383 52 -775 91 -113 11 -266 27 -341 35 -75 8 -167 15 -204 15 -38 0 -134 7 -214 15 -439 43 -1837 84 -2411 69z m-6 -1583 c256 -255 469 -461 475 -460 6 2 217 210 469 462 252 251 463 457 468 457 14 0 694 -680 694 -694 0 -6 -203 -214 -451 -461 -247 -248 -454 -457 -459 -466 -8 -14 77 -103 441 -465 248 -247 455 -457 461 -468 9 -16 -36 -64 -336 -362 -191 -189 -350 -344 -354 -344 -4 0 -212 205 -462 455 -250 250 -462 455 -470 455 -8 0 -222 -207 -475 -460 -307 -307 -466 -460 -478 -458 -23 4 -687 668 -687 688 0 8 207 222 460 475 253 253 460 466 460 474 0 8 -209 222 -465 475 -256 254 -465 468 -465 476 0 23 682 700 697 692 7 -4 222 -216 477 -471z m-2931 255 c40 -8 90 -17 113 -20 42 -6 207 -53 283 -81 39 -14 193 -89 246 -118 74 -42 202 -143 276 -218 255 -259 389 -606 389 -1003 0 -452 -183 -848 -515 -1115 -87 -70 -131 -101 -143 -101 -5 0 -14 -6 -20 -13 -6 -7 -44 -29 -84 -49 -215 -108 -421 -167 -649 -188 -261 -23 -485 -1 -719 72 -104 32 -222 80 -285 115 -22 13 -51 28 -65 34 -14 5 -39 21 -57 35 -17 13 -34 24 -38 24 -14 0 -175 142 -241 213 -169 181 -268 378 -340 677 -26 106 -26 478 -1 595 19 85 73 263 93 305 93 195 159 288 303 429 111 107 193 164 351 242 166 82 299 124 505 160 131 22 493 26 598 5z m7297 3 c30 -5 82 -13 115 -18 77 -12 142 -28 230 -58 39 -14 85 -29 104 -35 44 -13 229 -109 289 -150 211 -142 386 -342 488 -554 69 -144 96 -234 124 -409 41 -255 15 -534 -73 -775 -70 -190 -153 -318 -306 -470 -64 -64 -150 -138 -191 -165 -447 -296 -1060 -370 -1599 -195 -109 36 -257 101 -319 142 -24 15 -45 28 -48 28 -16 0 -179 134 -237 194 -76 79 -164 192 -197 252 -11 21 -25 46 -30 54 -12 19 -62 134 -79 180 -12 34 -28 93 -57 215 -9 36 -17 138 -20 255 -5 169 -3 210 15 305 24 129 39 188 57 232 8 17 14 36 14 43 0 7 6 24 14 38 8 15 25 50 37 77 91 201 268 403 477 545 74 50 286 160 308 160 8 0 25 6 37 12 38 21 190 62 292 79 39 6 90 15 115 19 65 11 375 10 440 -1z"/> <path d="M5181 3718 c-272 -39 -514 -229 -607 -478 -44 -118 -53 -159 -59 -270 -16 -272 66 -501 240 -675 87 -88 163 -134 313 -189 123 -45 378 -46 502 -1 193 70 312 158 412 305 56 83 115 224 130 309 15 94 22 369 9 384 -5 7 -22 46 -37 87 -77 214 -202 360 -393 455 -142 72 -332 99 -510 73z"/> <path d="M12529 3675 c-3 -2 -34 -12 -70 -21 -204 -51 -399 -208 -491 -396 -79 -160 -98 -248 -98 -448 0 -114 4 -161 13 -175 8 -11 22 -45 31 -75 57 -176 188 -339 341 -426 142 -79 246 -105 425 -105 197 0 315 34 473 139 249 166 382 509 321 833 -17 91 -52 206 -65 215 -5 3 -9 12 -9 21 0 26 -91 156 -154 218 -101 100 -219 165 -368 205 -55 15 -107 20 -209 20 -75 0 -138 -2 -140 -5z"/> </g> </svg>