<?xml version="1.0" standalone="no"?> <!DOCTYPE svg PUBLIC "-//W3C//DTD SVG 20010904//EN" "http://www.w3.org/TR/2001/REC-SVG-20010904/DTD/svg10.dtd"> <svg version="1.0" xmlns="http://www.w3.org/2000/svg" width="1800.000000pt" height="540.000000pt" viewBox="0 0 1800.000000 540.000000" preserveAspectRatio="xMidYMid meet"> <g transform="translate(0.000000,540.000000) scale(0.100000,-0.100000)" fill="#ffffff" stroke="none"> <path d="M470 4670 c-129 -9 -189 -38 -296 -144 -133 -133 -119 85 -122 -1846 -3 -1803 -6 -1669 46 -1780 26 -53 129 -151 202 -190 l65 -35 1150 -6 c1516 -8 13879 -8 15105 0 l955 6 66 33 c129 63 228 189 249 318 6 36 10 677 10 1684 l0 1625 -24 50 c-52 110 -142 201 -252 256 l-49 24 -1125 6 c-1528 9 -15861 8 -15980 -1z m16499 -288 l533 -7 30 -35 c16 -19 36 -47 43 -61 12 -22 12 -280 5 -1628 l-10 -1602 -21 -30 c-11 -16 -39 -39 -62 -52 l-42 -22 -8460 0 c-4653 0 -8476 3 -8496 8 -20 4 -53 23 -75 42 l-39 35 -2 1626 c-3 1790 -8 1655 59 1708 l33 26 7985 -1 c4392 -1 8225 -4 8519 -7z"/> <path d="M1532 3540 c-18 -4 -36 -10 -39 -14 -10 -10 -5 -167 7 -181 6 -8 51 -15 123 -20 121 -8 154 -19 183 -62 18 -27 19 -55 19 -588 0 -525 -1 -562 -18 -587 -35 -51 -63 -62 -184 -67 -71 -4 -117 -11 -125 -19 -17 -17 -17 -167 0 -184 10 -10 152 -14 675 -16 621 -3 662 -2 674 14 15 21 18 161 3 184 -7 11 -39 16 -130 21 -135 7 -161 17 -192 80 -14 27 -18 59 -18 149 0 63 4 120 8 126 4 7 96 13 267 17 368 10 571 25 616 48 59 29 93 64 122 123 l27 55 0 314 c0 336 -7 406 -46 473 -28 48 -45 64 -99 95 -82 46 -125 48 -1010 47 -456 0 -845 -4 -863 -8z m1208 -218 c79 -7 95 -17 133 -74 15 -24 17 -55 17 -243 0 -123 -5 -235 -11 -259 -20 -80 -62 -93 -287 -88 l-82 2 2 327 3 328 30 6 c40 9 104 9 195 1z"/> <path d="M4620 3541 c-14 -4 -32 -20 -39 -36 -16 -33 -78 -202 -91 -250 -4 -16 -18 -57 -30 -90 -11 -33 -25 -73 -29 -90 -5 -16 -13 -41 -19 -55 -5 -14 -24 -70 -41 -125 -18 -55 -38 -116 -46 -135 -7 -19 -36 -105 -64 -190 -28 -85 -55 -168 -61 -185 -6 -16 -26 -77 -45 -135 -70 -217 -75 -221 -267 -228 -123 -4 -130 -6 -145 -29 -13 -19 -14 -39 -9 -96 4 -39 11 -76 17 -82 7 -7 211 -10 598 -10 480 0 591 3 605 14 12 10 16 32 16 92 0 93 -9 105 -84 114 -39 5 -64 16 -91 37 -36 30 -37 32 -32 92 4 63 48 200 73 225 11 12 61 16 243 19 297 6 291 7 320 -66 70 -177 75 -196 57 -231 -25 -46 -74 -71 -162 -79 l-78 -7 -9 -40 c-11 -51 -1 -166 15 -177 17 -10 1189 -10 1206 0 17 11 25 95 15 162 l-8 55 -128 7 c-168 9 -181 17 -224 130 -17 46 -39 110 -49 143 -9 33 -22 76 -30 95 -7 19 -27 82 -44 140 -18 58 -38 120 -46 138 -8 18 -14 39 -14 47 0 8 -6 29 -14 47 -7 18 -20 56 -28 83 -28 94 -81 260 -93 295 -7 19 -27 82 -45 140 -18 58 -38 121 -45 140 -7 19 -17 51 -22 70 -14 58 -23 59 -543 58 -256 0 -476 -3 -490 -7z m505 -461 c7 -19 27 -73 45 -120 17 -47 35 -98 40 -115 4 -16 12 -41 18 -55 64 -155 64 -156 15 -169 -70 -20 -297 -10 -320 13 -3 3 11 54 31 113 20 59 41 122 46 138 18 64 73 211 83 223 15 19 28 10 42 -28z"/> <path d="M6853 3540 c-13 -5 -23 -15 -24 -22 -3 -52 4 -174 9 -180 4 -4 60 -11 125 -14 l117 -7 41 -37 40 -38 -3 -558 c-2 -399 -7 -567 -15 -585 -25 -56 -64 -71 -194 -77 -140 -6 -135 0 -122 -127 l8 -80 609 -3 c450 -1 612 1 623 9 10 9 13 35 11 103 l-3 91 -121 6 c-127 7 -162 18 -186 63 -17 30 -24 396 -9 425 16 28 13 30 219 -165 182 -173 374 -356 382 -364 3 -3 46 -44 97 -92 l92 -88 423 0 c390 1 497 6 516 24 4 4 8 40 10 79 5 106 0 110 -136 118 -133 8 -177 28 -188 85 -3 19 -7 282 -8 584 l-1 550 37 36 c40 40 83 52 198 53 34 1 65 7 79 17 21 15 23 22 19 94 -1 43 -6 82 -10 85 -19 20 -138 24 -658 25 -427 0 -569 -3 -578 -12 -14 -14 -17 -194 -4 -202 4 -2 59 -8 122 -12 202 -12 202 -12 198 -354 -2 -203 -6 -255 -16 -255 -8 0 -201 188 -431 418 l-417 417 -415 -1 c-228 0 -424 -4 -436 -9z"/> <path d="M10084 3542 c-20 -12 -25 -50 -18 -122 5 -55 11 -73 26 -81 11 -6 69 -13 130 -16 108 -6 111 -7 143 -39 l33 -32 7 -164 c4 -90 6 -346 4 -568 -4 -386 -5 -406 -24 -432 -34 -46 -71 -59 -195 -66 l-115 -7 0 -100 0 -100 655 0 655 0 3 97 c3 114 16 103 -141 112 -108 6 -137 19 -169 79 -16 29 -17 83 -18 577 0 504 1 547 18 572 37 57 60 66 181 74 137 8 141 12 136 120 -2 41 -9 82 -16 90 -10 13 -97 14 -648 14 -350 -1 -642 -4 -647 -8z"/> <path d="M11920 3537 c-23 -11 -25 -19 -28 -83 -2 -39 2 -82 7 -96 9 -25 14 -26 118 -32 139 -9 145 -10 182 -45 l32 -30 -3 -568 c-2 -442 -6 -574 -16 -593 -24 -47 -67 -62 -190 -68 -104 -4 -115 -7 -128 -28 -20 -29 -9 -157 14 -176 12 -10 145 -13 615 -13 537 1 600 2 611 17 15 20 12 163 -3 182 -8 9 -48 15 -127 18 -114 5 -117 6 -148 37 l-31 31 0 223 c0 157 3 222 11 222 6 0 99 -84 205 -186 107 -102 228 -217 269 -255 41 -39 100 -95 131 -125 30 -30 84 -80 118 -112 l64 -58 457 3 c369 2 460 6 473 17 21 17 25 175 5 188 -7 4 -63 10 -125 14 -96 4 -116 8 -146 29 -20 14 -39 34 -43 45 -9 26 -18 1076 -10 1119 4 18 22 49 41 68 35 35 36 35 144 40 150 7 151 8 151 118 0 89 0 90 -27 97 -16 5 -298 8 -628 8 l-600 0 -3 -99 c-1 -55 1 -103 5 -107 5 -5 63 -11 131 -15 120 -7 123 -7 155 -39 32 -31 34 -39 40 -116 4 -46 7 -163 7 -260 0 -147 -3 -179 -15 -189 -14 -11 -75 45 -438 408 l-423 422 -414 0 c-314 0 -421 -3 -440 -13z"/> <path d="M15172 3543 c-12 -2 -27 -13 -33 -24 -14 -28 -1 -176 17 -183 7 -3 66 -8 131 -12 112 -7 119 -9 144 -35 15 -16 29 -43 33 -60 3 -17 6 -272 6 -566 0 -591 1 -582 -63 -616 -20 -10 -67 -19 -127 -22 -154 -10 -141 0 -138 -113 l3 -97 165 -7 c275 -12 1127 -5 1141 9 17 17 18 165 1 185 -9 12 -40 17 -125 20 -130 5 -156 17 -182 83 -14 35 -15 111 -13 592 l3 553 35 34 c34 34 37 35 140 42 145 9 150 13 150 119 0 83 -1 86 -26 95 -25 10 -1213 12 -1262 3z"/> </g> </svg>