<?xml version="1.0" standalone="no"?>
<!DOCTYPE svg PUBLIC "-//W3C//DTD SVG 20010904//EN"
 "http://www.w3.org/TR/2001/REC-SVG-20010904/DTD/svg10.dtd">
<svg version="1.0" xmlns="http://www.w3.org/2000/svg"
 width="1800.000000pt" height="540.000000pt" viewBox="0 0 1800.000000 540.000000"
 preserveAspectRatio="xMidYMid meet">
<g transform="translate(0.000000,540.000000) scale(0.100000,-0.100000)"
fill="#ffffff" stroke="none">
<path d="M16220 4656 c-25 -7 -79 -21 -120 -31 -166 -39 -309 -135 -395 -265
-79 -119 -104 -205 -105 -355 0 -235 91 -374 310 -469 64 -28 251 -81 342 -96
26 -5 56 -13 67 -19 11 -6 28 -11 38 -11 10 -1 31 -12 48 -25 42 -35 41 -87
-3 -126 -30 -27 -37 -29 -120 -29 -104 0 -157 23 -184 81 -31 65 -23 64 -331
67 -348 4 -334 10 -302 -143 70 -338 434 -511 960 -457 129 13 193 29 295 72
172 74 297 208 356 380 27 80 27 323 -1 395 -22 58 -65 118 -115 162 -36 31
-144 103 -156 103 -3 0 -20 6 -37 14 -80 35 -223 75 -268 76 -15 0 -49 6 -75
14 -27 8 -68 19 -92 26 -31 8 -48 20 -62 43 -27 44 -25 63 9 98 27 26 36 29
98 29 80 0 114 -18 147 -77 l22 -38 281 -3 c321 -3 313 -5 313 76 -2 181 -112
341 -295 430 -60 28 -118 47 -247 76 -82 19 -312 20 -378 2z"/>
<path d="M71 4631 c-8 -5 -18 -31 -22 -58 -4 -26 -12 -73 -17 -103 -22 -110
-32 -202 -32 -280 0 -76 1 -80 23 -81 12 -1 29 -2 37 -3 8 -2 90 -3 181 -4
129 -2 168 -5 172 -15 3 -8 1 -40 -3 -73 -18 -129 -32 -212 -45 -279 -8 -38
-17 -99 -20 -135 -3 -36 -10 -85 -15 -110 -9 -49 -32 -182 -55 -325 -7 -49
-20 -126 -27 -170 -7 -44 -13 -107 -13 -140 l0 -60 60 -6 c98 -11 571 -10 599
1 18 7 26 17 26 34 0 14 5 37 11 53 6 15 15 66 19 113 5 46 14 105 19 130 5
25 17 95 25 155 9 61 23 153 32 205 23 142 42 267 54 345 25 164 41 250 51
261 7 8 70 13 207 16 108 3 205 8 214 12 21 10 46 94 58 197 5 43 13 95 19
116 5 21 13 73 17 117 5 61 4 80 -7 87 -19 12 -1550 11 -1568 0z"/>
<path d="M1836 4597 c-9 -23 -16 -54 -16 -69 0 -14 -6 -59 -14 -99 -8 -41 -22
-128 -31 -194 -9 -66 -23 -148 -31 -182 -8 -34 -14 -80 -14 -101 0 -21 -7 -61
-15 -88 -8 -27 -15 -62 -15 -79 0 -35 -54 -379 -75 -480 -9 -38 -15 -85 -15
-102 0 -18 -7 -68 -15 -110 -34 -181 -45 -265 -35 -282 13 -26 75 -31 355 -31
240 0 311 7 326 32 4 7 13 44 19 83 6 38 16 95 22 125 6 30 14 84 18 120 4 36
12 92 18 125 6 33 14 81 17 107 11 89 18 92 212 96 196 5 198 4 190 -75 -6
-63 -24 -185 -37 -248 -24 -127 -42 -264 -38 -305 l3 -45 45 -6 c80 -12 604 1
617 15 7 6 22 66 33 131 11 66 25 145 32 175 6 30 14 87 18 125 4 39 13 99 19
135 19 103 39 226 57 345 8 61 22 140 30 176 8 37 14 84 14 104 0 20 7 67 15
104 7 36 21 113 30 171 9 58 23 143 31 190 9 47 14 105 12 130 l-3 45 -326 3
c-272 2 -328 0 -338 -12 -7 -8 -20 -61 -30 -118 -45 -250 -51 -287 -51 -319
-1 -46 -25 -146 -41 -165 -10 -12 -44 -14 -193 -12 l-181 3 -3 44 c-3 42 14
166 43 316 8 39 15 113 17 165 l3 95 -331 3 -331 2 -17 -43z"/>
<path d="M3826 4625 c-8 -9 -18 -32 -21 -53 -3 -20 -11 -57 -16 -82 -6 -25
-14 -76 -19 -115 -4 -38 -13 -99 -19 -135 -7 -36 -18 -107 -26 -157 -38 -242
-47 -292 -57 -348 -6 -33 -14 -89 -18 -125 -4 -36 -13 -90 -19 -120 -13 -67
-34 -197 -56 -345 -8 -60 -23 -141 -31 -180 -9 -38 -14 -92 -12 -120 l3 -50
245 -6 c395 -10 1128 2 1141 17 6 8 15 40 19 71 13 90 30 191 45 271 19 95 19
136 -2 153 -12 11 -86 15 -342 19 l-326 5 -3 23 c-5 33 26 119 46 127 9 3 136
8 282 11 255 4 266 5 283 25 9 12 17 32 17 46 0 24 14 109 46 281 12 65 13 86
4 98 -10 11 -52 14 -214 15 -110 1 -232 4 -271 8 l-70 6 -3 59 c-2 34 2 64 8
70 7 7 119 13 336 17 307 5 326 6 345 25 14 15 26 56 44 160 38 213 49 313 34
330 -10 12 -113 14 -685 14 -591 0 -674 -2 -688 -15z"/>
<path d="M5417 4622 c-19 -21 -27 -59 -52 -237 -9 -60 -20 -126 -25 -145 -6
-19 -10 -53 -10 -75 0 -22 -5 -56 -11 -75 -5 -19 -17 -82 -25 -140 -22 -167
-47 -324 -72 -465 -6 -33 -18 -112 -27 -175 -25 -170 -44 -290 -55 -337 -5
-23 -13 -67 -16 -97 -10 -83 -16 -81 346 -78 285 2 306 3 321 21 15 18 31 103
65 341 8 63 23 131 32 150 16 32 22 36 72 42 30 3 94 6 142 7 199 2 342 38
483 121 77 45 140 108 196 195 86 134 104 203 104 400 0 148 0 151 -32 214
-69 140 -193 244 -353 298 -122 40 -175 45 -625 50 -429 5 -441 5 -458 -15z
m773 -511 c62 -45 73 -128 29 -218 -30 -59 -78 -86 -167 -91 -102 -7 -106 6
-68 221 18 107 32 121 116 113 38 -4 75 -14 90 -25z"/>
<path d="M7197 4633 c-8 -14 -27 -107 -36 -173 -5 -36 -14 -94 -20 -130 -7
-36 -18 -105 -26 -155 -8 -49 -26 -166 -41 -260 -15 -93 -30 -192 -34 -220 -4
-27 -12 -77 -18 -110 -6 -33 -25 -152 -42 -265 -17 -113 -38 -236 -46 -275 -9
-41 -14 -107 -12 -160 l3 -90 115 -8 c165 -12 1086 0 1108 14 17 10 32 32 70
99 53 92 172 353 172 375 0 37 -25 40 -374 45 l-341 5 -3 23 c-2 12 4 51 12
86 9 34 16 80 16 102 0 21 7 75 15 119 8 44 29 166 45 270 16 105 36 231 44
280 9 50 20 124 27 165 6 41 17 111 25 155 21 122 40 115 -342 115 -172 0
-315 -3 -317 -7z"/>
<path d="M9248 4623 c-9 -10 -26 -40 -38 -68 -20 -44 -37 -82 -110 -240 -10
-22 -30 -65 -43 -95 -39 -87 -86 -187 -133 -288 -81 -169 -155 -326 -181 -382
-14 -30 -45 -97 -69 -147 -50 -105 -121 -257 -166 -353 -16 -36 -34 -72 -39
-80 -5 -8 -12 -22 -15 -30 -3 -8 -12 -30 -20 -48 -23 -52 -18 -80 14 -89 47
-14 544 -9 569 5 12 6 42 54 68 106 25 52 55 102 67 112 18 17 40 19 247 19
200 0 230 -2 254 -18 20 -13 27 -26 27 -50 0 -17 9 -63 18 -102 l18 -70 75 -8
c122 -13 560 -4 588 11 22 13 23 18 18 85 -2 40 -9 97 -16 127 -17 87 -38 224
-56 365 -9 72 -23 158 -31 192 -8 34 -14 77 -14 95 0 18 -7 69 -15 113 -25
138 -96 615 -109 737 -3 26 -12 63 -20 83 l-15 35 -429 0 c-396 0 -430 -1
-444 -17z m344 -682 c4 -51 12 -118 18 -149 5 -31 10 -109 10 -174 0 -139 11
-130 -155 -126 l-110 3 -3 35 c-2 19 3 49 11 65 9 17 30 68 47 115 18 47 40
103 50 125 46 99 70 158 70 169 0 18 23 37 40 34 11 -3 17 -25 22 -97z"/>
<path d="M10377 4633 c-12 -11 -8 -60 7 -90 8 -15 22 -48 32 -73 10 -25 30
-73 46 -108 15 -35 28 -67 28 -72 0 -5 7 -21 15 -37 8 -15 35 -82 61 -148 41
-108 92 -237 115 -290 28 -67 44 -108 66 -175 26 -80 26 -92 -2 -260 -28 -167
-37 -226 -46 -300 -5 -41 -15 -113 -23 -160 -7 -50 -9 -92 -4 -102 17 -35 81
-41 343 -34 138 4 264 11 282 17 23 7 35 20 47 50 9 22 16 49 16 60 0 11 7 57
15 102 27 153 37 222 45 302 17 178 51 256 209 483 58 84 113 164 121 177 25
41 247 366 299 440 102 142 121 174 121 199 l0 26 -300 0 c-207 0 -307 -4
-325 -12 -21 -9 -99 -113 -128 -168 -4 -8 -15 -27 -25 -42 -9 -15 -45 -72 -79
-126 -34 -55 -69 -104 -76 -111 -18 -14 -45 14 -57 61 -13 47 -88 276 -108
323 -32 80 -7 75 -367 75 -177 0 -325 -3 -328 -7z"/>
<path d="M12373 4623 c-19 -17 -53 -160 -53 -222 0 -13 -7 -60 -15 -105 -8
-44 -22 -126 -31 -181 -25 -155 -44 -272 -60 -365 -8 -47 -14 -98 -14 -115 0
-16 -6 -61 -15 -100 -17 -83 -38 -208 -60 -365 -9 -63 -23 -146 -31 -184 -19
-93 -18 -160 3 -177 13 -12 128 -14 657 -14 353 1 653 4 668 8 22 6 30 17 43
60 8 28 18 77 21 107 3 30 12 87 20 127 8 40 14 99 14 132 l0 59 -82 7 c-46 3
-193 9 -328 13 l-245 7 -3 76 c-2 61 0 79 14 90 13 11 76 15 290 17 188 3 276
8 282 16 8 10 16 45 52 241 6 28 13 75 16 106 10 90 14 89 -260 89 -129 0
-248 3 -266 6 -38 8 -48 30 -41 87 5 38 11 44 51 65 43 21 53 22 346 22 229 0
304 3 311 13 10 13 41 167 69 345 13 82 15 118 7 130 -9 16 -64 17 -675 20
-623 2 -667 1 -685 -15z"/>
<path d="M13959 4627 c-9 -8 -23 -59 -32 -113 -10 -55 -22 -124 -28 -154 -6
-30 -14 -90 -19 -132 -5 -43 -11 -82 -15 -88 -3 -5 -13 -65 -21 -132 -8 -68
-18 -143 -23 -168 -5 -25 -14 -81 -21 -125 -6 -44 -18 -108 -26 -142 -8 -34
-14 -79 -14 -100 0 -21 -5 -56 -10 -78 -5 -22 -19 -98 -30 -170 -12 -71 -28
-164 -36 -206 -8 -41 -14 -104 -12 -140 l3 -64 160 -8 c224 -11 462 -4 479 14
18 19 46 126 46 175 0 43 22 177 49 294 15 68 19 75 41 75 22 0 30 -13 71
-110 63 -149 133 -320 154 -377 9 -25 28 -56 41 -68 23 -22 25 -22 306 -17
156 3 293 8 306 12 26 9 30 56 8 102 -18 38 -37 82 -76 178 -18 44 -38 94 -46
110 -49 111 -104 266 -104 296 0 33 5 39 79 87 151 98 233 220 257 382 35 226
3 351 -124 482 -67 70 -160 124 -252 148 -156 40 -170 41 -636 47 -403 5 -462
4 -475 -10z m808 -542 c39 -41 43 -50 43 -96 0 -52 -24 -112 -56 -140 -27 -24
-85 -40 -158 -45 -89 -5 -100 6 -91 95 6 58 29 183 40 219 3 8 31 12 91 12
l87 0 44 -45z"/>
<path d="M17511 4602 c-100 -50 -180 -171 -181 -276 0 -80 30 -146 100 -216
57 -57 74 -68 135 -86 61 -19 70 -25 73 -47 2 -19 -5 -31 -27 -48 -78 -57 -4
-61 107 -6 87 44 161 113 211 197 23 38 48 70 56 70 12 0 15 20 15 110 0 92
-2 110 -15 110 -9 0 -19 8 -22 18 -18 48 -77 117 -128 151 -57 37 -110 51
-195 50 -61 0 -85 -5 -129 -27z"/>
<path d="M2038 2593 c-43 -3 -58 -8 -62 -21 -7 -26 -43 -233 -81 -467 -9 -55
-23 -133 -31 -173 -8 -40 -14 -88 -14 -108 0 -19 -6 -63 -14 -97 -8 -34 -22
-116 -31 -182 -22 -165 -44 -298 -61 -372 -8 -34 -14 -82 -14 -106 0 -24 -6
-66 -14 -93 -8 -27 -17 -86 -21 -130 -6 -68 -4 -83 8 -90 9 -5 159 -8 335 -6
l319 3 12 26 c7 15 16 61 21 102 5 42 14 92 20 111 5 19 10 51 10 71 0 35 36
225 46 241 17 28 56 -18 79 -92 4 -14 18 -47 30 -75 12 -27 29 -68 37 -90 9
-22 30 -73 47 -114 17 -40 31 -78 31 -84 0 -27 44 -98 63 -102 12 -3 161 -4
331 -3 350 3 344 2 314 75 -9 21 -29 72 -46 113 -73 182 -124 307 -138 333 -8
16 -14 36 -14 45 0 8 -6 23 -13 31 -18 21 -41 106 -34 125 3 8 36 32 74 54
111 66 207 179 246 289 29 85 36 329 12 405 -25 75 -50 120 -97 173 -60 68
-134 114 -268 167 -66 26 -249 38 -630 42 -217 2 -421 2 -452 -1z m684 -519
c24 -9 58 -32 76 -52 27 -30 32 -43 32 -87 0 -75 -38 -129 -108 -155 -109 -41
-191 -16 -178 53 3 18 10 70 17 117 19 132 59 162 161 124z"/>
<path d="M3813 2593 c-20 -14 -43 -79 -43 -120 0 -21 -5 -54 -10 -73 -6 -19
-15 -66 -20 -105 -10 -81 -53 -353 -75 -470 -8 -44 -15 -96 -15 -116 0 -20 -7
-58 -15 -85 -8 -27 -15 -63 -15 -80 0 -18 -6 -65 -14 -105 -8 -41 -22 -128
-31 -194 -9 -66 -23 -148 -31 -182 -8 -34 -14 -79 -14 -99 0 -20 -7 -63 -16
-96 -8 -33 -14 -74 -12 -92 l3 -31 332 -3 c325 -2 332 -2 351 19 22 23 32 61
32 120 0 21 7 71 15 111 16 79 63 368 71 433 3 22 11 76 19 120 8 44 28 170
45 280 17 110 37 232 46 270 8 39 14 88 14 110 0 22 5 56 10 75 21 69 41 269
30 290 -10 19 -22 20 -188 20 -97 0 -240 3 -317 6 -77 3 -145 2 -152 -3z"/>
<path d="M4822 2593 c-165 -4 -151 7 -171 -128 -7 -44 -18 -111 -26 -150 -7
-38 -21 -122 -30 -185 -9 -63 -23 -145 -31 -181 -8 -37 -14 -85 -14 -106 0
-22 -7 -62 -15 -89 -8 -27 -15 -64 -15 -82 0 -18 -6 -65 -14 -105 -7 -40 -21
-126 -31 -192 -9 -66 -23 -148 -31 -182 -8 -34 -14 -79 -14 -100 0 -21 -7 -62
-14 -90 -8 -29 -17 -95 -21 -146 -6 -77 -4 -95 8 -105 20 -17 1146 -13 1192 5
17 6 59 19 95 29 195 56 352 204 404 383 24 82 21 216 -6 287 -29 75 -112 161
-191 199 -49 23 -57 30 -45 40 15 15 73 50 106 65 43 18 131 117 156 173 54
122 56 277 6 389 -57 128 -195 221 -380 254 -79 13 -651 24 -918 17z m648
-461 c44 -21 74 -79 65 -122 -16 -72 -65 -101 -190 -115 -52 -5 -65 -3 -85 13
l-24 19 17 97 c8 54 21 104 28 112 17 21 144 19 189 -4z m-104 -658 c50 -24
74 -59 74 -109 0 -59 -23 -109 -67 -142 -33 -25 -45 -28 -133 -31 -116 -4
-129 3 -112 70 6 24 16 75 22 113 17 106 26 115 111 115 45 0 84 -6 105 -16z"/>
<path d="M6449 2590 c-23 -14 -35 -51 -54 -160 -8 -52 -20 -122 -27 -155 -6
-33 -14 -89 -18 -125 -4 -36 -13 -90 -19 -120 -6 -30 -18 -100 -27 -155 -8
-55 -23 -140 -32 -190 -25 -133 -24 -451 1 -520 30 -80 49 -116 96 -179 141
-188 381 -276 753 -276 204 0 345 23 468 78 19 8 42 19 50 23 8 5 24 13 35 18
11 5 47 31 80 58 167 136 253 320 306 653 5 30 15 98 24 150 8 52 22 142 30
200 8 58 19 121 25 140 5 19 10 52 10 72 0 21 6 73 14 115 31 166 48 290 44
328 -3 39 -4 40 -52 48 -27 4 -174 7 -328 5 -250 -3 -281 -5 -292 -20 -7 -9
-20 -63 -30 -120 -9 -57 -24 -137 -31 -178 -8 -42 -15 -90 -15 -108 0 -18 -6
-63 -14 -100 -8 -37 -22 -116 -31 -177 -9 -60 -23 -143 -31 -184 -8 -40 -14
-90 -14 -110 0 -20 -7 -58 -15 -85 -8 -27 -15 -60 -15 -73 0 -12 -14 -52 -30
-87 -40 -85 -78 -106 -187 -106 -66 0 -80 3 -110 26 -56 42 -67 76 -66 189 1
83 25 263 48 357 3 13 10 64 15 113 5 50 14 113 19 140 5 28 17 97 26 155 9
58 23 138 31 179 19 99 18 155 -3 172 -13 11 -80 15 -317 17 -188 1 -307 -1
-317 -8z"/>
<path d="M8490 2593 c-68 -5 -87 -22 -95 -82 -4 -25 -13 -77 -20 -116 -8 -38
-18 -101 -24 -140 -5 -38 -22 -140 -36 -225 -14 -85 -31 -186 -36 -225 -12
-86 -36 -234 -54 -340 -8 -44 -21 -125 -30 -180 -28 -181 -46 -289 -57 -345
-19 -100 -22 -181 -7 -191 8 -5 141 -9 297 -9 l283 0 13 32 c8 18 23 96 35
173 12 77 28 178 36 225 15 94 28 176 50 320 23 151 25 160 38 160 19 0 38
-42 142 -315 14 -38 33 -87 41 -107 8 -21 21 -56 29 -78 8 -22 22 -59 31 -82
25 -66 45 -120 59 -158 27 -74 50 -124 68 -146 l18 -24 303 0 c351 0 332 -5
346 102 5 35 13 79 19 98 6 19 11 48 11 65 0 16 6 68 14 115 9 47 22 132 31
190 9 58 23 139 30 180 18 102 40 242 60 380 26 179 44 289 60 361 8 37 15 86
15 109 0 23 8 80 17 126 24 124 28 122 -207 129 -102 4 -228 3 -280 -2 l-95
-8 -17 -70 c-9 -38 -24 -115 -33 -170 -8 -55 -22 -138 -30 -185 -8 -47 -15
-101 -15 -121 0 -20 -7 -56 -15 -79 -8 -23 -15 -60 -15 -81 0 -39 -15 -58 -32
-41 -9 9 -69 169 -88 237 -9 30 -82 250 -105 315 -7 19 -28 71 -47 115 l-34
80 -84 7 c-89 6 -495 7 -590 1z"/>
<path d="M10401 2581 c-11 -11 -22 -31 -25 -43 -4 -23 -25 -155 -52 -328 -8
-52 -22 -126 -30 -165 -8 -38 -14 -86 -14 -105 0 -20 -7 -62 -15 -93 -8 -32
-15 -71 -15 -87 0 -16 -6 -65 -14 -107 -8 -43 -22 -123 -30 -178 -24 -151 -44
-272 -56 -350 -6 -38 -17 -110 -26 -160 -25 -153 -28 -193 -14 -210 11 -13 96
-15 690 -15 544 0 680 3 688 13 6 7 14 33 17 57 3 25 12 79 20 120 8 41 22
127 30 190 20 142 21 140 -114 141 -272 2 -541 15 -552 26 -8 8 -8 27 3 75
l13 63 284 7 c156 4 289 9 297 12 7 3 16 22 19 43 3 21 10 63 16 93 16 88 41
263 41 289 0 34 -17 41 -112 42 -47 1 -168 4 -270 8 l-185 6 -3 31 c-2 18 1
47 6 65 l8 34 332 5 c385 6 368 1 382 106 4 33 12 79 18 104 20 84 44 267 38
287 -4 12 -14 24 -24 28 -9 5 -312 10 -673 13 l-657 4 -21 -21z"/>
<path d="M196 2571 c-10 -11 -22 -46 -26 -78 -11 -78 -29 -186 -41 -253 -17
-90 -21 -144 -10 -160 8 -12 48 -16 213 -20 l203 -5 -3 -79 c-2 -43 -9 -106
-17 -140 -8 -33 -15 -79 -15 -101 0 -22 -7 -65 -15 -95 -8 -30 -15 -68 -15
-85 0 -16 -6 -68 -15 -115 -8 -47 -21 -130 -30 -185 -8 -55 -22 -136 -30 -180
-8 -44 -15 -96 -15 -116 0 -19 -7 -59 -16 -88 -8 -29 -14 -69 -12 -89 l3 -37
295 -3 c365 -4 377 -2 397 45 8 20 18 72 23 117 5 45 27 189 49 321 23 131 41
253 41 270 0 16 6 62 14 100 8 39 22 117 31 175 33 218 38 246 52 268 13 22
17 22 213 22 184 0 202 2 219 19 24 24 41 82 41 142 0 25 6 68 14 95 8 27 20
93 26 146 10 78 10 101 0 113 -11 13 -109 15 -785 15 -751 0 -772 -1 -789 -19z"/>
</g>
</svg>
