<?xml version="1.0" standalone="no"?> <!DOCTYPE svg PUBLIC "-//W3C//DTD SVG 20010904//EN" "http://www.w3.org/TR/2001/REC-SVG-20010904/DTD/svg10.dtd"> <svg version="1.0" xmlns="http://www.w3.org/2000/svg" width="1800.000000pt" height="909.000000pt" viewBox="0 0 1800.000000 909.000000" preserveAspectRatio="xMidYMid meet"> <g transform="translate(0.000000,909.000000) scale(0.100000,-0.100000)" fill="#ffffff" stroke="none"> <path d="M17605 8949 c-27 -4 -70 -14 -95 -24 -25 -9 -54 -19 -65 -22 -32 -10 -222 -125 -320 -194 -98 -70 -325 -289 -396 -383 -52 -70 -179 -255 -179 -262 0 -2 -11 -23 -25 -45 -14 -22 -50 -88 -79 -147 -52 -104 -74 -151 -138 -297 -16 -38 -36 -83 -44 -98 -8 -16 -14 -33 -14 -39 0 -6 -13 -40 -30 -75 -16 -34 -30 -68 -30 -73 0 -5 -14 -40 -31 -77 -16 -38 -36 -81 -43 -98 -16 -36 -117 -239 -131 -263 -195 -331 -511 -608 -788 -692 -107 -32 -164 -40 -283 -40 -217 0 -479 58 -699 155 -36 15 -353 172 -375 185 -96 55 -194 117 -285 179 -156 105 -185 128 -465 368 -14 11 -63 54 -110 93 -47 40 -87 76 -90 79 -13 17 -283 245 -467 394 -101 82 -440 337 -448 337 -4 0 -32 19 -63 43 -51 38 -165 114 -213 142 -17 10 -230 137 -259 155 -15 9 -319 159 -375 185 -202 94 -569 195 -706 195 -67 0 -59 -8 -153 160 -27 47 -61 98 -76 114 -42 43 -69 31 -170 -75 -47 -49 -93 -89 -102 -89 -9 0 -48 38 -87 84 -39 46 -79 87 -87 90 -27 11 -50 6 -67 -11 -13 -16 -94 -160 -114 -203 -26 -58 -111 -146 -157 -163 -40 -16 -153 -97 -163 -119 -6 -13 -19 -57 -29 -98 -23 -104 -34 -121 -113 -184 -86 -69 -111 -107 -111 -173 0 -80 51 -140 190 -228 24 -15 85 -69 136 -120 111 -112 146 -126 253 -105 36 7 83 19 105 26 73 26 159 14 271 -37 71 -32 95 -66 102 -145 8 -96 -8 -147 -53 -175 -35 -21 -37 -22 -112 -6 -203 42 -315 49 -452 28 -216 -32 -360 -87 -463 -178 -36 -31 -97 -117 -97 -136 0 -7 -7 -30 -15 -52 -35 -97 -4 -207 85 -296 60 -61 99 -84 175 -105 64 -18 114 -18 156 0 55 23 75 54 94 141 10 44 25 92 33 108 31 52 116 33 347 -78 148 -71 258 -120 305 -135 14 -5 50 -18 80 -30 79 -30 163 -56 255 -76 112 -26 365 -26 450 0 131 38 246 108 340 205 21 23 47 41 56 41 39 0 99 -52 380 -326 242 -235 426 -372 649 -481 91 -44 109 -51 265 -106 175 -61 464 -127 559 -127 22 0 59 -5 81 -11 22 -5 155 -14 295 -18 243 -9 369 -24 421 -51 10 -6 24 -10 32 -10 17 0 145 -61 192 -91 17 -10 37 -22 45 -26 68 -31 230 -185 286 -271 20 -31 44 -68 53 -82 16 -26 104 -201 127 -255 66 -155 104 -249 104 -257 0 -11 125 -263 151 -303 10 -16 23 -39 29 -50 61 -115 284 -413 440 -589 141 -158 252 -270 323 -323 209 -159 315 -247 325 -268 9 -19 10 -63 6 -149 -7 -131 7 -341 33 -466 48 -241 146 -395 298 -469 126 -61 244 -74 289 -32 l26 24 0 206 c1 206 1 206 30 276 50 116 44 145 -56 312 -91 149 -113 219 -124 400 -7 105 -11 129 -34 167 -28 49 -90 104 -181 162 -82 52 -123 96 -191 211 -101 168 -103 181 -104 508 0 287 -8 393 -52 670 -48 307 -129 581 -219 743 -22 38 -84 119 -106 137 -19 16 -42 66 -36 81 5 13 107 94 118 94 14 0 177 141 255 220 139 141 206 243 285 435 46 111 81 191 100 228 8 16 15 32 15 37 0 10 66 152 153 330 81 164 209 379 279 466 118 147 346 327 526 414 386 188 492 256 587 382 18 23 73 141 89 193 20 64 21 180 1 219 -8 15 -15 34 -15 41 0 21 -94 112 -131 128 -46 19 -104 25 -164 16z"/> <path d="M0 2195 l0 -2175 593 2 592 3 3 534 c2 413 5 537 15 543 6 4 287 8 622 8 401 0 624 4 650 11 101 27 181 85 237 171 73 112 68 15 68 1449 0 1271 0 1291 -20 1350 -40 118 -104 192 -210 243 l-65 31 -1242 3 -1243 2 0 -2175z m1469 1615 c47 -23 77 -60 91 -109 8 -24 10 -341 8 -972 l-3 -935 -28 -42 c-48 -73 -93 -86 -294 -83 l-53 1 0 1073 c0 591 3 1077 7 1080 3 4 58 7 120 7 94 0 121 -4 152 -20z"/> <path d="M3170 4350 c-7 -13 -10 -632 -8 -2037 3 -1986 3 -2019 23 -2058 54 -111 122 -175 225 -214 55 -21 65 -21 1155 -21 1008 0 1103 1 1145 17 78 29 128 66 181 133 75 97 69 -92 67 2170 l-3 2025 -595 0 -595 0 -5 -1830 c-4 -1603 -7 -1833 -20 -1855 -44 -74 -112 -120 -178 -120 -55 0 -141 54 -167 105 -20 39 -20 64 -25 1870 l-5 1830 -592 3 c-581 2 -592 2 -603 -18z"/> <path d="M6635 4356 c-119 -38 -208 -120 -255 -233 l-30 -72 2 -2013 3 -2013 598 -3 597 -2 0 1808 c0 1629 2 1814 16 1863 19 63 25 73 78 111 34 24 48 28 106 28 58 0 72 -4 108 -30 23 -16 49 -44 59 -62 17 -31 18 -131 23 -1873 l5 -1840 595 0 595 0 5 1830 c5 1805 5 1831 25 1870 11 21 39 54 63 72 38 29 51 33 103 33 84 0 138 -30 179 -100 13 -22 16 -253 20 -1865 l5 -1840 597 -3 598 -2 5 22 c3 13 4 925 3 2028 l-3 2005 -33 65 c-57 113 -147 186 -267 219 -63 17 -3746 14 -3800 -3z"/> <path d="M11400 4353 c-94 -33 -175 -101 -232 -193 -8 -14 -22 -56 -32 -95 -15 -65 -16 -224 -14 -2055 l3 -1985 600 0 600 0 3 537 2 537 33 6 c17 3 102 5 187 3 l155 -3 5 -540 5 -540 600 0 600 0 0 2025 c0 1987 0 2027 -20 2070 -35 82 -109 163 -183 203 -90 48 -59 47 -1197 46 -946 0 -1075 -2 -1115 -16z m1208 -542 c42 -22 63 -43 86 -88 14 -29 16 -131 16 -1041 0 -929 -1 -1010 -16 -1016 -20 -8 -309 -7 -341 1 l-23 5 0 1003 c0 844 2 1008 14 1036 15 34 64 87 101 107 32 18 122 14 163 -7z"/> <path d="M14680 1071 c-75 -15 -173 -73 -245 -146 -172 -174 -210 -420 -99 -635 43 -81 164 -198 249 -240 l70 -34 155 -1 155 0 78 38 c88 43 186 132 231 210 53 90 76 173 76 277 0 195 -87 357 -250 460 -63 41 -107 59 -170 70 -53 10 -201 11 -250 1z m205 -91 c185 -31 324 -176 355 -373 30 -189 -73 -384 -248 -469 -63 -31 -74 -33 -172 -33 -121 0 -174 16 -256 76 -67 49 -107 99 -146 179 -29 60 -31 73 -32 175 -1 86 3 121 18 160 81 208 269 320 481 285z"/> <path d="M14621 846 c-8 -9 -11 -100 -9 -312 l3 -299 65 0 65 0 3 90 c2 49 6 93 10 97 5 5 41 -37 82 -92 41 -55 79 -100 85 -101 59 -5 120 -2 131 6 13 9 -22 63 -136 205 -28 34 -25 52 14 78 40 27 76 97 76 147 0 84 -51 147 -143 179 -62 21 -229 22 -246 2z m226 -133 c54 -36 12 -123 -59 -123 l-38 0 0 68 c0 38 3 72 7 76 10 9 62 -3 90 -21z"/> </g> </svg>