<?xml version="1.0" standalone="no"?> <!DOCTYPE svg PUBLIC "-//W3C//DTD SVG 20010904//EN" "http://www.w3.org/TR/2001/REC-SVG-20010904/DTD/svg10.dtd"> <svg version="1.0" xmlns="http://www.w3.org/2000/svg" width="1800.000000pt" height="540.000000pt" viewBox="0 0 1800.000000 540.000000" preserveAspectRatio="xMidYMid meet"> <g transform="translate(0.000000,540.000000) scale(0.100000,-0.100000)" fill="#ffffff" stroke="none"> <path d="M4046 4428 c-8 -30 -7 -189 1 -256 5 -44 13 -60 41 -88 34 -33 37 -34 118 -34 45 0 89 -3 98 -6 14 -6 16 -75 16 -680 l0 -674 -26 -6 c-14 -4 -52 -4 -84 -1 -64 5 -99 -7 -138 -49 -21 -22 -24 -36 -28 -152 -2 -70 -2 -144 2 -164 l6 -38 484 0 484 0 0 154 c0 167 -6 191 -58 230 -19 15 -42 19 -106 19 -44 0 -91 3 -103 8 l-23 9 0 292 c1 282 2 295 23 338 12 25 37 55 56 67 33 22 41 23 295 23 l261 0 37 -25 c23 -15 45 -43 58 -71 19 -43 20 -66 20 -330 0 -229 -3 -285 -14 -297 -10 -9 -43 -14 -110 -15 -153 -3 -166 -23 -166 -247 l0 -155 485 0 485 0 0 163 0 164 -37 36 c-32 33 -42 37 -92 39 -31 1 -69 1 -84 0 -15 -1 -36 2 -47 8 -18 10 -19 31 -22 473 l-3 462 -27 50 c-34 62 -45 75 -83 100 -79 52 -58 49 -432 50 l-351 0 -27 -25 c-37 -34 -52 -72 -60 -158 -9 -82 -18 -92 -84 -92 -36 0 -44 4 -61 33 -19 30 -20 51 -20 408 0 366 -1 377 -21 403 -43 54 -54 56 -367 56 l-290 0 -6 -22z"/> <path d="M12989 4433 c-14 -9 -34 -30 -45 -47 -18 -29 -19 -56 -22 -416 -4 -434 -1 -420 -77 -420 -65 0 -85 28 -85 119 0 72 -1 74 -39 112 -37 38 -41 39 -107 39 -38 0 -277 0 -532 0 -450 0 -465 -1 -505 -21 -57 -29 -115 -85 -138 -137 -19 -41 -20 -64 -17 -620 l3 -577 40 -60 c32 -48 52 -66 100 -90 l60 -30 725 -3 c539 -2 737 0 770 9 62 17 126 55 155 93 57 75 55 36 55 1094 l0 972 -157 -1 c-124 -1 -163 -4 -184 -16z m-108 -1062 l39 -44 0 -269 c0 -256 -1 -271 -20 -299 -12 -15 -34 -38 -51 -50 -29 -21 -35 -21 -476 -20 -420 2 -449 3 -477 21 -17 10 -40 34 -51 52 -18 31 -19 53 -19 294 l0 261 24 37 c47 68 34 66 539 63 l453 -2 39 -44z"/> <path d="M13777 4429 c-60 -45 -57 6 -57 -992 0 -781 2 -921 15 -964 19 -63 79 -133 142 -164 l48 -24 623 -3 622 -3 0 157 c0 167 -5 189 -56 227 -21 16 -59 18 -452 20 l-429 2 -36 28 c-72 55 -77 76 -77 340 0 264 4 286 67 334 l36 28 296 5 c316 5 316 5 356 58 18 24 20 43 20 182 l0 155 -260 2 -260 3 -35 -32 c-33 -31 -35 -36 -38 -108 -5 -97 -27 -129 -91 -132 -38 -1 -48 3 -67 28 l-24 29 -2 420 -3 420 -155 2 c-144 2 -157 1 -183 -18z"/> <path d="M15120 4281 c0 -114 3 -145 17 -169 22 -38 62 -62 103 -62 62 0 71 -13 64 -88 -12 -121 -90 -266 -167 -308 -14 -8 -17 -24 -18 -88 -1 -42 2 -80 5 -83 6 -6 130 76 168 112 16 14 45 49 67 78 113 151 139 256 140 565 l1 182 -190 0 -190 0 0 -139z"/> <path d="M17364 4346 c-9 -23 4 -36 36 -36 19 0 33 -7 40 -19 5 -11 10 -83 10 -160 l0 -141 25 0 25 0 0 143 c0 157 5 174 55 179 22 2 30 8 30 23 0 19 -8 20 -108 23 -88 2 -108 0 -113 -12z"/> <path d="M17667 4353 c-4 -3 -7 -87 -7 -185 l0 -179 23 3 c21 3 22 8 25 111 2 96 5 108 20 105 13 -2 20 -20 28 -68 12 -74 34 -142 49 -152 17 -12 32 14 50 87 48 192 75 205 75 35 l0 -120 35 0 35 0 0 185 0 185 -34 0 c-72 0 -79 -8 -105 -121 -13 -57 -27 -108 -31 -112 -12 -14 -49 55 -56 103 -3 25 -13 64 -21 88 -14 37 -19 42 -48 42 -17 0 -35 -3 -38 -7z"/> <path d="M2355 3821 c-68 -17 -125 -61 -174 -136 l-26 -40 0 -590 0 -590 33 -52 c29 -46 89 -103 107 -103 4 0 22 -7 41 -16 24 -12 51 -15 91 -12 52 5 60 9 95 48 36 40 38 46 38 111 0 58 4 72 26 98 34 41 67 40 110 -3 32 -32 34 -38 34 -99 0 -78 19 -118 68 -141 28 -14 92 -16 467 -16 l434 0 5 43 c3 23 5 90 3 148 -2 81 -7 114 -21 141 -37 68 -28 67 -556 70 -622 4 -565 -34 -565 375 l0 283 38 37 37 38 483 5 c543 6 525 3 564 82 19 37 22 60 22 171 0 70 -2 134 -5 142 -5 13 -90 15 -663 14 -361 -1 -669 -4 -686 -8z"/> <path d="M10137 3822 c-15 -3 -17 -21 -17 -150 0 -120 3 -153 18 -182 25 -50 70 -69 168 -70 53 0 85 -4 92 -13 7 -8 11 -131 12 -354 0 -300 -1 -343 -15 -357 -13 -12 -38 -16 -110 -16 l-93 0 -31 -35 c-17 -20 -33 -45 -36 -58 -3 -12 -4 -85 -3 -162 l3 -140 482 -3 483 -2 6 26 c10 40 -1 286 -14 311 -26 49 -67 65 -165 68 -51 1 -95 3 -99 4 -5 0 -8 229 -8 508 0 566 -1 573 -64 607 -28 15 -67 17 -312 19 -154 1 -288 1 -297 -1z"/> <path d="M17050 3822 c-45 -2 -62 -9 -92 -35 -37 -32 -38 -34 -42 -116 -6 -103 -22 -126 -88 -125 -59 2 -78 28 -78 107 0 74 -22 127 -62 150 -27 15 -73 17 -474 17 l-445 0 -55 -26 c-55 -26 -90 -63 -125 -131 -18 -35 -20 -60 -19 -301 0 -225 3 -268 17 -295 43 -83 78 -110 185 -141 48 -14 125 -16 562 -16 l505 0 34 -30 c46 -40 55 -94 28 -149 -13 -24 -30 -41 -45 -45 -14 -3 -301 -6 -639 -6 -520 -1 -617 -3 -627 -15 -8 -10 -11 -57 -8 -154 3 -122 6 -143 24 -168 35 -47 78 -63 177 -63 143 0 197 39 197 141 0 66 21 124 51 140 12 6 36 8 55 4 41 -7 64 -45 64 -107 1 -57 14 -114 32 -131 8 -8 28 -22 46 -31 28 -15 77 -16 454 -13 233 2 436 7 453 12 60 17 117 68 152 135 l33 65 -2 270 c-3 232 -5 274 -20 300 -9 17 -21 40 -27 52 -5 11 -40 36 -78 55 l-68 33 -540 5 c-297 3 -547 9 -555 13 -26 13 -60 72 -60 104 0 35 31 79 69 96 19 9 203 13 651 17 l625 5 3 132 c3 145 -8 189 -58 224 -27 18 -113 27 -210 21z"/> <path d="M204 3800 c-54 -24 -108 -79 -134 -136 -20 -43 -21 -60 -18 -317 3 -300 4 -303 73 -358 95 -76 115 -78 693 -79 559 0 537 3 567 -77 15 -39 15 -49 4 -80 -8 -20 -25 -44 -39 -55 -24 -18 -54 -18 -650 -19 -433 0 -628 -3 -637 -11 -10 -8 -13 -48 -13 -151 0 -121 3 -144 20 -171 31 -51 60 -61 180 -61 97 0 110 2 143 25 45 30 47 35 57 135 7 68 12 82 35 102 37 32 71 29 106 -8 26 -28 29 -38 29 -98 0 -77 13 -107 59 -138 l34 -23 422 0 c368 0 428 2 471 17 74 25 107 48 145 100 l34 48 3 285 c2 157 0 300 -3 318 -8 41 -56 97 -106 123 -65 33 -159 39 -639 39 -256 0 -483 5 -505 10 -67 15 -97 71 -76 142 23 75 3 72 706 78 l620 5 3 153 3 153 -35 35 -34 34 -117 0 c-168 0 -196 -19 -206 -142 -9 -106 -25 -128 -88 -128 -60 0 -81 25 -81 97 0 74 -17 120 -54 148 l-33 25 -449 -1 c-413 0 -452 -2 -490 -19z"/> <path d="M6504 3795 c-3 -14 -5 -86 -2 -160 3 -126 5 -136 28 -160 40 -43 73 -55 154 -55 41 0 81 -3 90 -6 14 -5 16 -47 16 -360 0 -411 12 -374 -122 -374 -81 0 -86 -1 -116 -31 -43 -42 -47 -61 -47 -224 l0 -140 488 -3 487 -2 0 144 c0 220 -23 254 -171 257 -46 1 -92 5 -101 10 -17 9 -18 33 -18 292 0 169 4 297 11 320 6 22 26 55 44 75 l33 37 274 3 274 3 41 -30 c30 -22 45 -42 52 -68 6 -21 11 -168 12 -328 1 -339 10 -315 -118 -315 l-83 0 -40 -40 -40 -40 0 -160 0 -160 485 0 485 0 0 154 c0 126 -3 160 -17 183 -26 47 -65 63 -148 63 -41 0 -85 4 -99 10 l-26 10 0 272 c1 334 10 382 84 427 32 20 47 21 297 21 l264 0 37 -30 c63 -52 68 -84 68 -407 l0 -283 -26 -10 c-14 -6 -59 -10 -101 -10 -60 0 -81 -4 -104 -21 -52 -37 -59 -63 -59 -229 l0 -150 485 0 485 0 0 156 c0 173 -6 196 -63 229 -23 14 -49 18 -104 17 -123 -4 -111 -53 -115 481 l-3 462 -25 48 c-29 58 -77 102 -137 128 -41 17 -73 19 -383 19 l-339 0 -41 -38 c-39 -38 -40 -40 -40 -109 0 -64 -3 -74 -29 -102 -29 -31 -67 -40 -105 -25 -17 7 -40 51 -51 98 -6 31 -64 115 -79 116 -5 0 -17 6 -25 13 -9 8 -36 21 -61 30 -39 15 -92 17 -376 17 l-331 0 -41 -30 -42 -30 0 -76 c0 -89 -20 -127 -71 -138 -73 -14 -109 25 -109 121 0 70 -14 100 -59 130 -33 23 -39 23 -327 23 l-294 0 -6 -25z"/> <path d="M9455 1729 c-71 -7 -113 -26 -150 -71 -56 -67 -60 -84 -60 -328 0 -158 4 -238 13 -268 17 -55 87 -127 138 -142 149 -43 276 -4 340 106 l26 45 0 247 c1 230 -1 251 -20 287 -51 99 -142 139 -287 124z m115 -149 l25 -19 0 -239 0 -240 -25 -21 c-36 -29 -91 -27 -129 5 l-31 26 0 228 0 228 31 26 c37 32 93 34 129 6z"/> <path d="M10570 1714 c-48 -21 -98 -71 -121 -121 -17 -37 -19 -66 -19 -273 0 -208 2 -235 20 -274 43 -95 156 -155 267 -142 112 13 204 77 220 155 5 20 8 146 8 281 l0 246 -35 48 c-53 73 -104 96 -215 96 -57 -1 -103 -6 -125 -16z m154 -118 c64 -27 66 -36 66 -279 l0 -219 -31 -29 c-37 -35 -91 -39 -129 -9 l-25 19 -3 223 c-2 122 -1 232 3 245 3 13 22 31 43 42 45 24 36 24 76 7z"/> <path d="M4045 1698 c-3 -13 -4 -192 -3 -398 l3 -375 49 -3 c27 -2 60 -1 73 3 l23 5 0 205 c0 112 4 206 9 209 9 6 31 -23 67 -89 51 -95 83 -152 103 -185 11 -19 23 -41 26 -47 21 -51 40 -84 57 -94 18 -12 105 -11 113 0 4 8 10 700 6 774 -1 16 -9 18 -68 15 l-68 -3 -3 -210 c-1 -115 -6 -213 -11 -218 -9 -9 -40 41 -126 208 -31 60 -60 114 -65 119 -6 6 -10 17 -10 25 0 8 -11 29 -26 48 -23 31 -29 33 -84 33 -54 0 -60 -2 -65 -22z"/> <path d="M4821 1706 c-11 -14 -40 -125 -76 -291 -9 -44 -20 -91 -25 -105 -4 -14 -18 -70 -30 -125 -12 -55 -28 -125 -37 -155 -8 -31 -13 -67 -11 -80 3 -22 8 -25 55 -28 73 -4 85 5 100 79 7 34 18 66 25 71 18 11 136 10 157 -2 11 -5 21 -26 25 -51 4 -22 13 -54 22 -70 13 -27 19 -29 72 -29 81 0 89 7 73 67 -7 26 -17 72 -22 102 -5 29 -14 62 -19 72 -6 10 -10 29 -10 42 0 14 -6 47 -14 73 -8 27 -19 72 -26 99 -6 28 -18 77 -26 110 -8 33 -19 87 -25 120 -7 33 -18 72 -26 88 -13 26 -16 27 -92 27 -55 0 -82 -4 -90 -14z m94 -270 c17 -25 49 -201 41 -223 -4 -8 -24 -13 -57 -13 l-51 0 5 53 c3 28 10 77 16 107 24 117 22 113 46 76z"/> <path d="M5124 1706 c-3 -7 -4 -38 -2 -67 l3 -54 80 -5 80 -5 3 -314 c1 -217 6 -319 14 -328 8 -10 30 -13 77 -11 l66 3 5 325 c3 179 7 326 8 328 1 1 35 2 75 2 43 0 78 5 85 12 13 13 16 85 6 112 -5 14 -37 16 -250 16 -198 0 -246 -3 -250 -14z"/> <path d="M5697 1713 c-4 -3 -7 -153 -7 -333 l0 -327 29 -40 c36 -50 72 -75 135 -97 61 -20 104 -20 175 -1 66 17 116 56 147 115 24 44 24 47 24 355 0 170 -4 316 -9 323 -5 9 -28 12 -77 10 l-69 -3 -5 -318 -5 -319 -24 -19 c-31 -25 -98 -25 -131 1 l-25 19 -5 318 c-3 175 -7 319 -8 321 -5 5 -139 1 -145 -5z"/> <path d="M6295 1707 c-3 -6 -4 -185 -3 -397 l3 -385 64 -3 c35 -2 68 1 72 5 5 5 9 74 10 153 0 84 5 150 11 158 6 7 35 12 73 12 85 0 95 -15 95 -144 0 -151 23 -186 120 -186 69 0 82 13 59 58 -7 15 -16 74 -19 132 -5 108 -7 114 -61 182 l-22 27 37 34 36 34 0 102 c0 130 -19 169 -97 206 -48 23 -62 25 -213 25 -119 0 -162 -3 -165 -13z m305 -137 c16 -16 20 -33 20 -93 0 -90 -13 -106 -92 -114 -78 -8 -88 5 -88 116 0 54 4 91 12 99 7 7 38 12 70 12 45 0 63 -5 78 -20z"/> <path d="M7037 1696 c-9 -13 -19 -44 -23 -68 -3 -24 -12 -65 -19 -93 -14 -53 -63 -259 -90 -385 -9 -41 -21 -86 -26 -100 -5 -14 -10 -47 -11 -75 l-3 -50 64 0 c71 0 72 0 90 80 17 71 23 75 106 75 81 0 89 -5 100 -65 3 -21 13 -52 21 -67 14 -26 19 -28 80 -28 78 0 81 5 61 92 -8 35 -29 126 -47 203 -18 77 -38 163 -45 190 -19 71 -35 141 -46 205 -18 101 -22 105 -115 108 -77 3 -82 1 -97 -22z m109 -277 c7 -24 20 -77 28 -118 20 -91 13 -103 -53 -99 -46 3 -46 3 -49 42 -2 21 4 56 12 77 9 22 16 57 16 78 0 82 27 93 46 20z"/> <path d="M7466 1705 c-8 -21 -8 -748 0 -769 5 -14 32 -16 199 -16 106 0 200 3 209 6 12 5 16 21 16 70 0 54 -3 64 -17 64 -10 1 -64 1 -120 1 -70 0 -105 4 -112 13 -7 8 -12 124 -13 327 l-3 314 -76 3 c-63 2 -78 0 -83 -13z"/> <path d="M8156 1704 c-3 -9 -6 -183 -6 -389 0 -319 2 -374 15 -385 11 -9 56 -11 172 -8 137 4 164 7 203 27 63 31 74 40 101 91 23 44 24 51 24 280 0 228 -1 236 -24 278 -53 96 -121 122 -327 122 -129 0 -153 -2 -158 -16z m306 -135 c41 -22 48 -59 48 -251 0 -164 -2 -186 -20 -215 -21 -35 -57 -47 -125 -41 l-40 3 -3 249 c-2 182 1 252 10 263 9 11 24 13 62 8 28 -4 59 -11 68 -16z"/> <path d="M8757 1713 c-4 -3 -7 -181 -7 -394 0 -344 2 -388 16 -393 27 -10 384 -7 405 4 15 9 19 22 19 65 0 32 -5 57 -12 62 -7 4 -69 10 -138 13 l-125 5 -3 88 c-2 56 1 94 8 103 8 9 40 14 93 16 l82 3 3 52 c3 52 3 52 -30 57 -18 4 -60 7 -93 9 l-60 2 -3 79 c-2 44 1 83 6 88 5 5 60 9 123 9 62 1 122 5 131 10 20 11 25 77 8 110 -10 18 -23 19 -214 19 -111 0 -206 -3 -209 -7z"/> <path d="M9847 1713 c-4 -3 -7 -181 -7 -394 l0 -389 26 -6 c14 -4 94 -4 177 -1 166 5 193 13 255 71 52 49 62 101 62 323 0 229 -8 269 -66 328 -61 63 -108 75 -289 75 -83 0 -155 -3 -158 -7z m322 -158 c23 -23 24 -28 26 -192 3 -281 -7 -306 -119 -301 l-61 3 -3 257 -2 257 22 4 c46 9 113 -5 137 -28z"/> <path d="M11035 1707 c-3 -6 -4 -185 -3 -397 l3 -385 54 -3 c105 -6 100 -15 103 166 l3 157 66 3 c95 4 103 -7 107 -154 4 -109 5 -115 32 -144 25 -27 34 -30 89 -30 70 0 84 14 57 55 -12 18 -16 48 -16 111 0 106 -15 160 -52 187 -34 26 -36 50 -3 71 58 38 61 250 4 313 -49 52 -95 63 -275 63 -123 0 -166 -3 -169 -13z m306 -127 c16 -9 19 -22 19 -95 0 -78 -2 -85 -26 -104 -29 -23 -92 -28 -125 -11 -17 9 -19 22 -19 103 0 59 4 97 12 105 15 15 112 16 139 2z"/> <path d="M11779 1693 c-6 -15 -16 -55 -23 -88 -18 -82 -35 -151 -52 -209 -8 -26 -14 -56 -14 -65 0 -9 -21 -99 -46 -200 -25 -101 -43 -190 -40 -197 7 -18 121 -19 133 -1 4 6 17 41 29 77 l20 65 82 3 c61 2 83 -1 87 -10 2 -7 12 -41 22 -76 20 -70 27 -75 109 -70 46 3 49 5 52 31 2 16 -8 75 -22 130 -13 56 -34 145 -46 197 -12 52 -28 120 -35 150 -8 30 -21 89 -31 130 -9 41 -22 93 -28 115 l-11 40 -88 3 -87 3 -11 -28z m112 -235 c10 -49 31 -183 32 -213 l2 -40 -52 -3 c-49 -3 -53 -1 -59 22 -3 14 -1 40 5 59 7 19 16 60 21 92 9 55 23 85 41 85 5 0 9 -1 10 -2z"/> <path d="M12217 1713 c-4 -3 -7 -181 -7 -394 0 -435 -7 -399 80 -399 37 0 51 4 58 18 5 9 7 101 5 204 -2 126 0 189 7 193 11 7 50 -21 50 -36 0 -5 41 -82 90 -171 50 -89 90 -165 90 -169 0 -17 47 -39 81 -39 74 0 69 -30 69 394 0 209 -4 387 -9 394 -5 9 -27 12 -72 10 l-64 -3 -5 -209 c-3 -126 -9 -211 -15 -212 -5 -2 -29 36 -53 84 -61 122 -145 282 -166 315 -16 24 -24 27 -75 27 -32 0 -61 -3 -64 -7z"/> <path d="M12804 1706 c-3 -7 -4 -38 -2 -67 l3 -54 77 -3 c47 -2 80 -8 87 -16 7 -8 12 -121 13 -327 l3 -314 70 0 70 0 5 325 5 325 85 5 85 5 0 65 0 65 -248 3 c-204 2 -248 0 -253 -12z"/> <path d="M44 1345 c-15 -59 -145 -55 1811 -55 1943 0 1821 -3 1813 52 l-3 23 -1807 3 -1808 2 -6 -25z"/> <path d="M13614 1355 c-4 -8 -3 -26 0 -40 l6 -25 1848 2 1847 3 0 35 0 35 -1848 3 c-1637 2 -1848 0 -1853 -13z"/> </g> </svg>