<?xml version="1.0" standalone="no"?> <!DOCTYPE svg PUBLIC "-//W3C//DTD SVG 20010904//EN" "http://www.w3.org/TR/2001/REC-SVG-20010904/DTD/svg10.dtd"> <svg version="1.0" xmlns="http://www.w3.org/2000/svg" width="1800.000000pt" height="540.000000pt" viewBox="0 0 1800.000000 540.000000" preserveAspectRatio="xMidYMid meet"> <g transform="translate(0.000000,540.000000) scale(0.100000,-0.100000)" fill="#ffffff" stroke="none"> <path d="M2505 5391 c8 -13 -16 -19 -130 -30 -55 -6 -131 -17 -170 -25 -123 -25 -201 -43 -236 -55 -189 -61 -255 -84 -263 -92 -6 -5 -16 -9 -24 -9 -24 0 -312 -147 -402 -205 -25 -16 -53 -34 -62 -40 -173 -103 -442 -348 -604 -550 -76 -95 -174 -230 -174 -239 0 -3 -13 -24 -29 -48 -53 -80 -201 -369 -201 -393 0 -4 -7 -21 -15 -38 -21 -46 -80 -233 -100 -319 -9 -40 -21 -87 -26 -105 -5 -17 -14 -67 -19 -110 -5 -43 -14 -96 -20 -118 -16 -66 -12 -589 5 -660 8 -33 14 -77 15 -98 0 -39 10 -85 56 -257 31 -118 38 -141 62 -210 47 -135 152 -360 213 -455 10 -16 22 -37 26 -45 25 -54 192 -277 282 -380 152 -172 402 -387 574 -492 108 -67 404 -218 427 -218 4 0 21 -6 37 -14 15 -8 44 -19 63 -26 82 -27 198 -63 235 -72 172 -42 240 -54 395 -70 129 -12 627 -4 690 13 25 6 70 14 100 19 88 12 216 45 335 87 39 13 84 28 100 33 81 21 359 158 495 244 267 167 565 445 735 686 68 95 147 214 156 235 5 11 19 36 30 55 64 105 156 319 205 475 19 61 42 130 50 155 8 25 14 57 14 72 0 15 4 38 10 53 5 14 19 90 31 168 30 199 31 561 1 757 -11 74 -25 148 -31 163 -6 16 -11 40 -11 55 0 15 -6 47 -14 72 -8 25 -29 92 -47 150 -18 58 -38 119 -45 135 -80 197 -117 274 -209 430 -176 300 -450 596 -753 813 -40 29 -74 52 -77 52 -2 0 -31 18 -64 40 -74 49 -305 170 -324 170 -8 0 -20 7 -27 15 -7 8 -21 15 -32 15 -11 0 -32 6 -46 14 -23 12 -109 42 -251 88 -35 11 -116 29 -236 54 -38 8 -115 19 -170 25 -114 11 -138 17 -130 30 4 5 -76 9 -200 9 -124 0 -204 -4 -200 -9z m95 -1441 c325 -14 732 -71 965 -134 28 -8 70 -19 95 -25 144 -37 345 -100 415 -130 11 -5 61 -26 110 -46 223 -93 455 -229 455 -268 0 -6 7 -18 16 -28 11 -12 15 -39 15 -102 1 -73 -3 -90 -24 -124 -74 -118 -213 -163 -324 -106 -269 138 -502 243 -540 243 -7 0 -27 6 -45 14 -29 12 -156 49 -298 86 -25 6 -67 15 -95 20 -27 4 -68 12 -90 18 -22 6 -92 18 -155 27 -63 9 -140 21 -169 26 -89 15 -432 34 -621 34 -183 0 -497 -18 -609 -35 -205 -31 -274 -44 -411 -80 -101 -26 -127 -31 -173 -37 -74 -9 -131 12 -192 72 -56 54 -77 103 -77 175 0 121 84 221 212 251 19 4 76 19 125 32 376 100 873 141 1415 117z m151 -945 c433 -68 566 -100 909 -220 25 -9 59 -22 75 -29 17 -8 64 -28 105 -46 169 -73 371 -185 403 -223 56 -68 72 -150 42 -220 -17 -41 -91 -117 -114 -117 -8 0 -29 -5 -47 -12 -26 -9 -42 -8 -86 6 -30 9 -63 23 -74 30 -28 20 -84 51 -183 101 -84 43 -331 145 -351 145 -5 0 -24 6 -42 14 -97 42 -448 121 -675 151 -309 40 -891 23 -1123 -33 -25 -6 -85 -21 -135 -32 -49 -11 -115 -27 -145 -36 -100 -27 -178 -2 -242 79 -31 38 -33 46 -33 118 0 76 1 78 40 125 53 61 101 82 310 130 79 19 134 29 225 43 41 7 102 17 135 23 165 31 814 33 1006 3z m-120 -865 c30 -5 95 -14 144 -19 50 -5 113 -14 140 -21 28 -6 84 -18 125 -27 83 -18 255 -68 370 -108 99 -35 422 -196 482 -239 38 -29 49 -44 62 -89 14 -49 14 -58 0 -100 -10 -31 -29 -57 -54 -77 -33 -26 -46 -30 -100 -30 -51 0 -71 5 -109 28 -44 27 -272 140 -336 167 -283 119 -694 195 -1065 195 -150 0 -439 -23 -570 -45 -47 -9 -94 -15 -105 -15 -21 0 -132 -22 -227 -46 -74 -18 -102 -18 -146 3 -112 51 -134 188 -44 273 31 30 51 39 122 54 47 10 113 24 147 32 34 8 77 14 96 14 19 0 56 7 83 15 27 8 74 15 104 16 30 0 96 7 145 14 110 15 657 19 736 5z"/> <path d="M13963 4135 c-65 -13 -116 -43 -167 -101 -40 -45 -58 -96 -63 -177 -6 -84 18 -148 80 -214 61 -65 114 -86 217 -86 88 -1 121 10 181 58 74 60 126 173 116 255 -15 128 -118 245 -232 264 -22 4 -47 8 -55 10 -8 2 -43 -2 -77 -9z"/> <path d="M15111 4019 c-122 -28 -202 -72 -272 -148 -33 -35 -59 -69 -59 -74 0 -6 -6 -18 -14 -26 -7 -9 -26 -52 -41 -96 -23 -65 -29 -105 -34 -215 l-6 -135 -107 -5 c-58 -3 -110 -9 -115 -13 -11 -11 -11 -383 0 -394 5 -4 57 -10 115 -13 l107 -5 3 -714 c1 -507 5 -718 13 -728 17 -20 417 -19 445 1 18 14 19 35 22 730 l2 716 190 0 190 0 30 -65 c16 -35 30 -67 30 -71 0 -4 9 -25 19 -48 11 -23 47 -108 81 -191 75 -184 83 -201 102 -245 9 -19 36 -84 61 -145 93 -227 229 -551 245 -584 28 -57 22 -110 -18 -161 -47 -60 -65 -73 -125 -86 -61 -12 -167 3 -238 35 -27 11 -55 21 -63 21 -13 0 -35 -42 -132 -253 -41 -90 -39 -99 24 -132 54 -28 97 -44 179 -66 93 -25 337 -27 411 -3 169 54 275 157 376 364 43 87 68 148 143 345 14 39 32 86 40 105 7 19 27 71 45 115 18 44 38 96 45 115 8 19 34 87 59 151 25 64 46 121 46 127 0 6 7 23 15 39 8 15 29 66 46 113 17 47 38 97 45 112 8 14 14 33 14 41 0 9 7 28 15 44 8 15 35 82 60 148 26 66 53 136 60 155 8 19 30 78 51 130 20 52 46 118 56 145 11 28 26 69 33 92 23 71 18 73 -223 73 -114 0 -217 -3 -229 -6 -14 -4 -26 -18 -32 -38 -5 -17 -26 -76 -46 -131 -21 -55 -39 -109 -42 -120 -3 -11 -9 -29 -14 -40 -4 -11 -15 -40 -24 -65 -8 -25 -33 -97 -55 -160 -22 -63 -46 -133 -54 -155 -20 -53 -108 -303 -154 -437 -20 -60 -41 -108 -47 -108 -9 0 -47 86 -92 205 -8 22 -21 53 -29 68 -8 16 -14 36 -14 46 0 9 -7 26 -15 37 -8 10 -15 25 -15 32 0 8 -6 28 -14 45 -7 18 -28 70 -45 117 -66 175 -88 231 -107 277 -8 17 -14 37 -14 45 0 7 -7 22 -15 32 -8 11 -15 26 -15 34 0 8 -6 28 -14 45 -14 34 -36 89 -62 160 -8 23 -24 58 -34 77 l-18 35 -358 5 -359 5 0 80 c1 100 29 159 90 190 52 26 171 27 277 3 42 -10 83 -15 91 -12 20 7 22 34 19 222 l-3 162 -28 15 c-42 21 -253 55 -340 54 -42 0 -114 -9 -160 -20z"/> <path d="M6980 3930 c-153 -27 -260 -68 -369 -140 -74 -49 -179 -162 -214 -230 -16 -30 -32 -62 -36 -70 -34 -61 -46 -140 -46 -290 0 -134 3 -163 22 -217 50 -138 123 -232 244 -313 58 -39 181 -100 200 -100 6 0 23 -6 37 -14 34 -17 161 -56 300 -90 211 -53 278 -74 369 -117 122 -57 171 -133 160 -250 -10 -112 -79 -188 -207 -229 -84 -26 -289 -28 -400 -4 -152 33 -287 101 -452 226 -42 32 -85 58 -95 58 -17 0 -39 -21 -111 -110 -20 -25 -65 -78 -99 -118 -78 -90 -80 -107 -15 -159 26 -21 49 -40 52 -43 7 -7 86 -62 118 -82 182 -114 414 -194 627 -217 309 -34 577 19 770 150 65 44 165 138 165 154 0 3 11 21 24 38 30 39 86 176 92 226 3 20 10 65 16 99 17 100 -15 289 -64 382 -27 52 -88 127 -141 173 -31 26 -58 47 -61 47 -3 0 -24 13 -48 28 -64 42 -141 76 -268 120 -98 34 -156 50 -222 62 -26 5 -56 13 -67 19 -11 6 -28 11 -39 11 -10 0 -61 14 -113 31 -165 54 -241 97 -285 163 -21 30 -24 47 -24 124 0 67 4 93 15 102 8 7 15 19 15 26 0 17 91 84 140 102 57 22 159 33 250 26 120 -8 215 -36 345 -100 78 -39 82 -41 173 -102 75 -50 81 -48 137 35 22 32 65 92 95 133 82 110 97 137 84 158 -18 28 -173 130 -269 177 -144 69 -266 105 -440 129 -146 20 -240 19 -365 -4z"/> <path d="M12642 3804 c-22 -15 -22 -19 -22 -250 l0 -234 -98 0 c-63 0 -102 -4 -110 -12 -18 -18 -17 -382 1 -396 7 -6 56 -13 108 -14 l94 -3 5 -510 c6 -539 9 -571 56 -688 48 -117 144 -208 264 -250 25 -9 89 -21 143 -28 83 -11 115 -10 210 3 111 15 233 54 270 86 15 13 17 37 17 204 0 217 10 202 -110 163 -57 -19 -95 -25 -165 -25 -80 0 -95 3 -128 25 -21 15 -45 44 -57 70 -19 42 -20 64 -20 484 0 241 3 446 6 455 5 14 35 16 233 16 163 0 230 3 239 12 18 18 17 382 -1 397 -9 7 -94 12 -243 13 l-229 3 -3 235 c-2 207 -4 237 -19 248 -12 9 -73 12 -218 12 -165 0 -204 -3 -223 -16z"/> <path d="M9160 3333 c-146 -52 -236 -105 -324 -189 -60 -58 -66 -52 -66 72 0 74 -3 93 -16 98 -20 8 -418 8 -438 0 -14 -6 -16 -121 -16 -1203 0 -918 3 -1200 12 -1209 17 -17 418 -17 441 1 15 11 17 47 17 368 1 206 5 361 11 370 8 12 12 11 27 -6 82 -96 250 -185 402 -215 125 -24 171 -25 265 -5 38 8 80 15 92 15 27 0 68 17 192 78 78 39 110 62 196 147 56 55 109 112 116 126 8 15 29 54 46 87 155 291 159 708 10 1007 -110 220 -297 379 -527 449 -90 27 -373 33 -440 9z m250 -422 c87 -31 118 -50 174 -105 52 -51 126 -164 126 -192 0 -8 8 -29 17 -47 14 -26 17 -60 17 -187 0 -127 -3 -161 -17 -187 -9 -18 -17 -40 -17 -50 0 -28 -95 -167 -140 -206 -136 -116 -344 -141 -515 -61 -203 94 -322 348 -282 599 17 106 36 158 81 228 67 106 152 171 281 215 54 19 214 14 275 -7z"/> <path d="M11135 3334 c-157 -47 -236 -81 -339 -148 -95 -61 -226 -196 -283 -291 -101 -168 -143 -321 -143 -519 0 -163 13 -231 77 -388 23 -58 94 -178 129 -219 65 -76 183 -180 259 -226 83 -51 230 -103 355 -127 427 -81 891 152 1075 539 78 166 90 225 89 435 0 137 -4 179 -22 244 -61 221 -200 416 -390 547 -102 70 -185 106 -351 154 -73 21 -384 20 -456 -1z m372 -424 c127 -40 210 -100 280 -205 76 -114 97 -201 90 -375 -6 -132 -28 -202 -94 -294 -79 -109 -177 -172 -318 -201 -263 -55 -517 106 -600 378 -13 45 -16 85 -13 195 2 76 8 146 15 157 6 11 19 40 29 65 36 88 131 196 209 238 117 62 282 80 402 42z"/> <path d="M13797 3313 c-4 -3 -7 -421 -7 -928 0 -703 3 -924 12 -933 17 -17 418 -17 441 1 16 11 18 73 17 932 0 718 -3 921 -13 927 -15 9 -441 11 -450 1z"/> <path d="M17547 3290 c-64 -33 -107 -75 -137 -133 -29 -54 -28 -201 0 -258 22 -42 95 -119 113 -119 6 0 19 -8 30 -17 16 -15 38 -18 122 -18 84 0 106 3 122 18 11 9 24 17 30 17 13 0 103 98 103 113 0 7 7 21 15 31 21 28 21 199 0 216 -8 7 -15 21 -15 32 0 10 -7 21 -15 24 -8 4 -15 11 -15 18 0 12 -63 59 -117 89 -23 12 -55 17 -106 17 -61 0 -82 -5 -130 -30z m238 -20 c45 -22 115 -87 115 -106 0 -6 7 -17 15 -24 11 -9 15 -34 15 -98 0 -106 -20 -153 -92 -216 -43 -38 -58 -45 -110 -50 -83 -10 -164 2 -194 28 -95 79 -119 126 -118 232 1 50 6 80 17 98 10 14 17 31 17 38 1 17 64 72 110 97 51 27 172 28 225 1z"/> <path d="M17564 3177 c-2 -7 -3 -74 -2 -148 3 -126 4 -134 23 -134 16 0 21 8 23 35 8 77 52 81 104 11 39 -52 75 -70 85 -44 3 9 2 21 -3 28 -5 7 -18 24 -28 39 l-19 27 32 32 c50 52 38 121 -26 156 -31 16 -182 15 -189 -2z m168 -54 c21 -19 23 -46 6 -61 -22 -17 -84 -25 -107 -13 -24 13 -30 76 -8 84 28 12 91 6 109 -10z"/> </g> </svg>