<?xml version="1.0" standalone="no"?> <!DOCTYPE svg PUBLIC "-//W3C//DTD SVG 20010904//EN" "http://www.w3.org/TR/2001/REC-SVG-20010904/DTD/svg10.dtd"> <svg version="1.0" xmlns="http://www.w3.org/2000/svg" width="1800.000000pt" height="540.000000pt" viewBox="0 0 1800.000000 540.000000" preserveAspectRatio="xMidYMid meet"> <g transform="translate(0.000000,540.000000) scale(0.100000,-0.100000)" fill="#ffffff" stroke="none"> <path d="M52 4183 c-5 -10 -10 -90 -11 -178 -1 -88 -6 -225 -11 -305 -5 -80 -10 -229 -10 -331 0 -214 -2 -210 85 -217 48 -4 55 -2 70 21 9 14 23 70 30 124 26 181 49 269 95 362 75 153 161 245 289 311 62 31 223 70 292 70 50 0 60 -3 71 -22 10 -18 13 -246 12 -1133 0 -610 -4 -1163 -8 -1228 -8 -114 -9 -120 -39 -154 -52 -59 -94 -73 -230 -73 l-118 0 -15 -35 c-19 -47 -18 -119 3 -136 13 -11 126 -15 619 -17 332 -2 618 1 636 6 33 8 33 8 36 78 4 96 -6 104 -143 104 -56 0 -117 5 -136 11 -52 18 -106 75 -120 128 -18 65 -25 2436 -8 2457 28 33 250 -1 365 -56 144 -69 265 -233 328 -445 10 -33 24 -80 32 -105 8 -25 14 -58 14 -75 1 -34 31 -164 43 -182 12 -19 108 -16 136 3 l24 17 -5 491 c-3 270 -9 499 -13 509 -7 16 -71 17 -1156 17 -1084 0 -1149 -1 -1157 -17z"/> <path d="M11175 4154 c-16 -2 -110 -8 -208 -15 -129 -8 -182 -16 -193 -26 -19 -19 -19 -126 0 -142 8 -7 40 -14 73 -17 69 -7 95 -21 128 -74 l25 -40 -1 -1127 c-1 -622 -6 -1189 -11 -1263 -6 -74 -11 -151 -12 -170 l-1 -35 50 -3 c91 -6 108 2 153 71 56 86 88 117 118 117 23 0 90 -42 119 -75 18 -19 139 -92 190 -113 96 -40 233 -52 351 -31 217 38 414 188 528 401 73 136 125 298 142 443 20 167 4 500 -27 595 -27 81 -71 196 -80 210 -5 8 -14 26 -20 39 -18 43 -109 159 -163 209 -50 45 -167 122 -186 122 -5 0 -24 6 -42 14 -54 23 -172 46 -236 46 -77 0 -202 -30 -267 -64 -27 -15 -72 -47 -100 -72 -67 -60 -92 -77 -105 -69 -7 4 -10 172 -10 513 0 388 -3 513 -13 532 -12 23 -18 25 -92 26 -44 1 -93 0 -110 -2z m710 -1067 c134 -42 212 -145 265 -352 34 -135 45 -254 45 -490 -1 -291 -23 -443 -90 -610 -64 -160 -174 -255 -294 -255 -37 0 -135 25 -177 45 -80 38 -188 199 -214 317 -5 24 -13 63 -19 88 -26 123 -36 240 -36 425 0 327 34 483 140 645 48 74 93 118 150 150 85 48 159 59 230 37z"/> <path d="M13140 4145 c-14 -8 -32 -14 -41 -15 -28 0 -108 -79 -129 -127 -54 -123 3 -279 121 -333 78 -35 194 -21 259 32 68 55 104 160 84 243 -24 101 -74 160 -164 194 -64 24 -95 26 -130 6z"/> <path d="M14289 4155 c-3 -2 -101 -9 -218 -14 -122 -5 -218 -14 -224 -20 -6 -6 -12 -34 -15 -63 -6 -76 13 -97 98 -105 81 -7 91 -12 129 -68 l31 -46 0 -1150 0 -1151 -34 -51 c-38 -57 -65 -70 -178 -82 l-58 -6 0 -74 c0 -57 3 -74 16 -79 9 -3 215 -6 459 -6 429 0 445 1 455 19 11 22 13 64 4 109 -6 28 -10 30 -63 36 -82 10 -139 28 -160 51 -47 52 -45 14 -51 1381 -4 1074 -7 1294 -19 1307 -10 13 -31 17 -91 17 -42 0 -79 -2 -81 -5z"/> <path d="M6096 4114 c-21 -21 -22 -126 -2 -144 8 -6 59 -14 113 -17 111 -7 150 -24 183 -80 18 -31 22 -60 30 -251 12 -272 12 -1489 0 -1758 -9 -217 -24 -295 -67 -352 -37 -49 -91 -79 -153 -87 -110 -13 -124 -27 -118 -121 3 -48 3 -49 43 -56 62 -11 800 -9 829 2 24 9 26 14 26 72 0 35 -4 68 -8 75 -4 6 -39 17 -77 23 -120 19 -186 56 -222 125 -43 81 -44 115 -50 1118 -4 620 -2 962 4 968 10 10 38 -58 62 -151 12 -46 32 -117 57 -205 8 -27 19 -66 24 -85 4 -19 13 -48 18 -65 6 -16 17 -56 26 -88 16 -58 38 -136 61 -217 8 -25 21 -71 29 -102 21 -75 39 -139 74 -263 16 -55 34 -118 39 -140 28 -109 86 -304 99 -333 8 -18 14 -44 14 -58 0 -14 4 -33 10 -43 5 -10 21 -61 35 -112 13 -52 34 -125 45 -164 12 -38 25 -86 30 -105 5 -19 18 -66 30 -105 12 -38 24 -82 27 -98 7 -37 39 -57 90 -57 78 0 87 8 122 117 17 54 31 105 31 112 0 7 7 34 15 60 17 52 63 213 90 311 9 36 23 81 30 100 13 36 32 104 41 150 3 14 19 70 36 125 16 55 36 123 44 150 8 28 28 97 44 155 38 131 56 195 75 262 8 29 28 100 45 158 17 58 37 129 45 158 8 28 21 76 30 105 8 28 22 79 31 112 23 83 42 151 61 215 9 30 17 61 19 68 2 6 11 12 20 12 16 0 17 -70 12 -1024 l-6 -1024 -23 -43 c-36 -64 -66 -81 -171 -95 -66 -9 -96 -18 -105 -30 -16 -22 -17 -126 -1 -142 14 -14 1024 -17 1046 -3 17 10 21 136 5 152 -6 6 -55 16 -109 23 -109 13 -142 28 -173 82 -20 34 -21 49 -22 1162 -1 620 1 1138 6 1152 24 79 95 123 215 133 91 8 100 17 100 103 0 47 -4 63 -16 68 -9 3 -192 6 -408 6 -362 0 -394 -1 -409 -17 -19 -21 -32 -62 -102 -308 -8 -27 -28 -97 -46 -155 -36 -122 -51 -174 -73 -250 -8 -30 -29 -102 -46 -160 -17 -58 -37 -127 -45 -155 -33 -116 -77 -262 -86 -290 -6 -16 -15 -48 -19 -71 -5 -22 -13 -51 -18 -65 -5 -13 -17 -49 -25 -79 -35 -121 -49 -167 -64 -220 -9 -30 -22 -71 -29 -90 -7 -19 -16 -53 -19 -75 -4 -24 -14 -46 -25 -53 -23 -14 -22 -14 -45 63 -9 33 -21 74 -27 90 -5 17 -16 55 -24 85 -8 30 -24 87 -35 125 -11 39 -27 93 -34 120 -8 28 -28 95 -43 150 -16 55 -37 129 -47 165 -9 36 -23 83 -30 105 -7 22 -20 69 -30 105 -10 36 -31 110 -47 165 -16 55 -35 123 -42 150 -17 61 -44 156 -61 210 -7 22 -19 65 -28 95 -74 262 -91 318 -103 338 l-14 22 -400 0 c-349 0 -401 -2 -414 -16z"/> <path d="M17639 3322 c-24 -16 -57 -46 -74 -68 -25 -33 -30 -50 -33 -111 -2 -39 1 -87 8 -107 36 -111 209 -173 315 -113 22 12 57 46 79 75 21 29 45 52 52 52 11 0 14 19 14 76 0 41 -4 73 -9 70 -5 -3 -27 19 -50 49 -79 105 -207 137 -302 77z m173 -62 c16 -1 49 -28 71 -60 20 -29 23 -120 5 -138 -31 -31 -74 10 -57 53 4 11 8 39 8 63 1 35 -3 44 -21 52 -13 6 -30 14 -38 19 -8 5 -24 12 -35 16 -16 5 -17 8 -5 15 10 6 23 4 37 -5 12 -8 28 -15 35 -15z m-177 -135 c0 -47 -3 -60 -16 -63 -20 -4 -32 46 -23 95 5 24 11 33 23 31 13 -3 16 -16 16 -63z m123 -77 c11 -13 24 -35 27 -50 6 -23 3 -28 -19 -34 -46 -11 -66 22 -50 84 4 12 10 22 13 22 4 0 17 -10 29 -22z"/> <path d="M9670 3291 c-90 -15 -251 -85 -320 -138 -100 -79 -270 -288 -270 -333 0 -9 -4 -20 -9 -25 -18 -18 -71 -200 -88 -300 -21 -123 -24 -389 -5 -490 32 -173 60 -261 120 -380 81 -160 256 -328 402 -383 138 -53 145 -54 350 -50 131 3 205 9 225 17 56 25 70 31 99 41 46 17 156 93 212 147 142 136 204 253 270 503 22 80 26 126 31 294 6 204 1 257 -37 416 -25 100 -50 165 -101 258 -109 201 -269 335 -484 407 -56 18 -318 29 -395 16z m254 -182 c172 -63 260 -211 308 -519 20 -130 17 -595 -5 -731 -34 -215 -111 -375 -214 -449 -140 -101 -332 -69 -446 73 -61 76 -110 208 -138 372 -19 108 -19 671 -1 770 53 286 156 441 331 496 60 18 86 16 165 -12z"/> <path d="M15500 3294 c-113 -23 -272 -115 -356 -205 -98 -107 -181 -255 -222 -394 -59 -201 -57 -185 -57 -450 0 -202 3 -262 17 -310 9 -33 21 -80 27 -105 24 -92 29 -107 73 -197 87 -178 205 -305 351 -376 129 -63 167 -69 365 -65 174 4 178 5 252 37 97 43 150 80 227 159 63 65 166 208 188 262 4 8 13 30 21 48 13 31 13 34 -11 56 -14 13 -45 31 -70 40 -54 21 -56 20 -107 -74 -50 -91 -111 -181 -139 -205 -95 -80 -145 -106 -237 -124 -71 -15 -121 -14 -185 3 -78 20 -115 42 -172 101 -106 109 -163 300 -180 597 -10 164 -72 148 579 148 479 0 545 2 556 15 11 13 10 41 -4 151 -24 201 -54 308 -121 444 -58 119 -89 166 -159 239 -82 85 -132 117 -289 185 -38 16 -292 31 -347 20z m281 -215 c63 -45 96 -85 131 -159 52 -109 88 -274 88 -407 0 -61 -3 -74 -19 -83 -21 -11 -647 -15 -675 -4 -21 8 -21 78 0 209 21 133 41 204 85 299 23 48 98 125 148 151 36 19 62 24 122 25 69 0 80 -3 120 -31z"/> <path d="M12930 3249 c-41 -4 -93 -12 -115 -16 -39 -9 -40 -9 -43 -58 -6 -87 -3 -90 95 -110 96 -20 124 -40 145 -104 15 -46 22 -856 11 -1201 -8 -229 -10 -248 -31 -282 -26 -41 -58 -56 -151 -68 -35 -5 -68 -13 -75 -20 -6 -6 -11 -39 -11 -72 0 -57 2 -62 25 -69 32 -9 857 -9 890 0 23 6 25 12 28 68 3 54 0 63 -20 77 -12 9 -41 16 -64 16 -46 0 -118 22 -138 43 -7 7 -22 29 -32 47 -17 33 -18 90 -23 885 -3 468 -10 856 -14 863 -9 14 -349 15 -477 1z"/> <path d="M0 2555 l0 -315 293 0 c215 0 296 3 305 12 17 17 17 589 0 606 -9 9 -90 12 -305 12 l-293 0 0 -315z"/> <path d="M1793 2858 c-11 -18 -17 -408 -8 -524 l7 -94 294 0 294 0 16 25 c14 22 16 58 12 299 -2 211 -6 277 -17 290 -12 14 -47 16 -302 16 -219 0 -290 -3 -296 -12z"/> <path d="M3535 2859 c-9 -14 -10 -593 -1 -607 5 -9 86 -12 297 -12 266 0 290 1 297 18 9 22 9 572 0 595 -7 16 -31 17 -297 17 -192 0 -292 -4 -296 -11z"/> <path d="M5290 2844 c-6 -14 -10 -149 -10 -309 0 -249 2 -284 16 -289 9 -3 143 -6 298 -6 206 0 285 3 294 12 9 9 12 89 12 299 0 248 -2 290 -16 303 -13 14 -55 16 -300 16 l-284 0 -10 -26z"/> <path d="M16933 2858 c-4 -7 -9 -138 -11 -291 -4 -244 -2 -280 12 -302 l16 -25 291 0 c258 0 290 2 296 16 9 23 10 575 1 597 -7 16 -31 17 -302 17 -225 0 -297 -3 -303 -12z"/> </g> </svg>