<?xml version="1.0" standalone="no"?> <!DOCTYPE svg PUBLIC "-//W3C//DTD SVG 20010904//EN" "http://www.w3.org/TR/2001/REC-SVG-20010904/DTD/svg10.dtd"> <svg version="1.0" xmlns="http://www.w3.org/2000/svg" width="1800.000000pt" height="630.000000pt" viewBox="0 0 1800.000000 630.000000" preserveAspectRatio="xMidYMid meet"> <g transform="translate(0.000000,630.000000) scale(0.100000,-0.100000)" fill="#ffffff" stroke="none"> <path d="M0 4168 c0 -2109 1 -2191 36 -2314 8 -28 14 -62 14 -75 0 -13 7 -44 15 -69 8 -25 23 -74 34 -110 11 -36 29 -90 41 -120 12 -30 25 -66 30 -80 7 -23 30 -71 78 -170 236 -482 670 -878 1177 -1073 62 -24 223 -74 290 -91 194 -47 277 -54 600 -54 373 0 447 10 735 99 58 18 114 39 125 46 11 7 25 13 31 13 7 0 59 23 116 51 110 53 119 59 185 101 23 16 44 28 48 28 17 0 240 177 311 248 64 62 64 61 64 -221 0 -183 3 -256 12 -265 19 -19 891 -17 907 2 8 10 10 820 9 3077 l-3 3064 -465 0 -465 0 -5 -2010 c-6 -2136 -4 -2049 -51 -2240 -32 -132 -110 -332 -167 -425 -18 -30 -38 -64 -45 -75 -85 -141 -265 -320 -430 -429 -62 -40 -228 -126 -245 -126 -6 0 -23 -6 -39 -14 -96 -48 -360 -96 -522 -96 -127 0 -382 38 -449 66 -18 8 -39 14 -47 14 -13 0 -32 7 -125 47 -244 106 -453 284 -608 516 -18 26 -32 50 -32 52 0 2 -13 26 -28 52 -25 43 -71 147 -107 243 -30 77 -58 194 -87 355 -10 54 -14 530 -18 2070 l-5 2000 -457 3 -458 2 0 -2092z"/> <path d="M5546 6244 c-3 -8 -6 -1389 -6 -3068 0 -2360 3 -3055 12 -3064 9 -9 119 -12 434 -12 232 0 429 3 438 6 14 5 16 38 16 259 0 158 4 256 10 260 5 3 45 -25 88 -62 149 -132 331 -252 517 -342 61 -30 117 -57 126 -62 9 -4 63 -23 120 -42 288 -94 365 -105 734 -105 357 0 453 13 730 100 116 37 141 46 255 102 47 22 92 43 101 46 24 8 218 126 275 168 185 134 361 301 485 457 104 132 279 413 279 449 0 7 4 16 9 22 5 5 21 38 37 74 59 141 77 195 114 345 46 184 40 149 70 458 10 105 8 153 -19 412 -15 144 -68 368 -119 500 -21 55 -68 168 -81 194 -5 9 -18 36 -30 61 -176 372 -517 743 -876 954 -93 55 -89 53 -180 98 -199 100 -246 117 -503 183 -74 19 -150 35 -170 35 -20 0 -73 7 -117 15 -107 19 -413 19 -520 0 -44 -8 -95 -15 -114 -15 -33 0 -56 -5 -221 -49 -310 -81 -636 -260 -901 -493 -37 -32 -72 -58 -78 -58 -8 0 -12 299 -13 1093 l-3 1092 -446 3 c-401 2 -447 1 -453 -14z m2637 -2368 c40 -8 90 -17 112 -20 125 -17 381 -127 530 -227 143 -97 349 -312 427 -447 43 -74 119 -225 128 -252 5 -14 18 -50 29 -80 28 -73 55 -189 76 -333 24 -161 16 -300 -31 -522 -58 -270 -220 -555 -433 -764 -71 -69 -207 -179 -241 -194 -8 -4 -28 -16 -45 -26 -16 -11 -64 -36 -105 -56 -41 -20 -88 -42 -103 -50 -16 -8 -35 -15 -42 -15 -8 0 -29 -6 -47 -14 -41 -18 -128 -40 -238 -61 -107 -21 -392 -16 -520 9 -82 16 -250 66 -287 85 -10 5 -60 30 -112 55 -146 72 -244 142 -376 265 -98 90 -205 225 -261 326 -103 188 -145 304 -188 518 -22 107 -22 449 -1 530 8 32 15 68 15 80 1 69 112 349 182 455 15 24 28 45 28 48 0 19 157 207 233 280 183 174 348 272 602 355 49 16 119 34 155 41 36 6 83 14 105 18 72 13 332 11 408 -4z"/> <path d="M12755 4678 c-135 -12 -275 -40 -455 -93 -78 -23 -311 -118 -336 -137 -6 -4 -31 -19 -55 -32 -214 -114 -363 -228 -548 -415 -87 -89 -261 -308 -292 -369 -8 -15 -26 -45 -40 -67 -39 -61 -171 -335 -182 -380 -3 -11 -15 -45 -27 -75 -22 -55 -26 -71 -54 -185 -31 -133 -35 -153 -48 -235 -20 -134 -22 -535 -3 -635 8 -45 15 -95 15 -111 0 -45 75 -334 108 -414 6 -14 20 -50 32 -80 29 -72 123 -259 157 -313 15 -23 32 -50 38 -59 111 -187 348 -445 545 -593 134 -101 218 -152 380 -231 52 -25 112 -54 133 -65 21 -10 45 -19 53 -19 9 0 28 -6 42 -14 52 -28 296 -95 387 -107 33 -4 78 -13 100 -20 29 -9 134 -13 375 -13 278 0 348 3 410 17 41 9 100 21 130 27 148 29 270 65 332 96 14 8 33 14 41 14 8 0 44 14 78 31 35 17 80 38 99 47 145 70 363 216 495 332 115 100 355 363 355 389 0 6 -107 91 -238 188 -131 98 -251 188 -268 201 -40 30 -133 92 -140 92 -7 0 -35 -29 -77 -82 -51 -63 -181 -195 -237 -240 -99 -78 -252 -167 -385 -224 -57 -24 -204 -65 -267 -75 -35 -5 -81 -13 -103 -19 -52 -12 -368 -12 -420 0 -22 5 -67 14 -100 20 -33 5 -103 23 -155 40 -430 139 -780 473 -937 895 -65 174 -84 263 -60 283 10 9 475 13 1818 14 l1804 3 3 155 c2 85 -2 209 -9 275 -6 66 -15 161 -19 210 -4 50 -12 110 -18 135 -6 25 -20 83 -31 130 -53 224 -139 441 -258 650 -38 67 -135 209 -173 254 -207 245 -353 370 -625 533 -20 11 -126 64 -214 105 -65 31 -141 59 -181 67 -19 4 -44 12 -55 18 -35 18 -316 72 -430 83 -127 12 -344 11 -490 -2z m505 -805 c171 -36 383 -120 451 -179 8 -8 19 -14 22 -14 12 0 160 -122 212 -174 104 -105 181 -211 247 -337 38 -73 57 -120 118 -289 7 -19 15 -50 17 -67 l5 -33 -1345 0 c-820 0 -1348 4 -1352 9 -3 5 1 25 9 43 7 18 22 60 32 93 17 58 65 174 85 205 5 8 13 25 19 37 18 42 93 158 138 213 214 262 449 410 777 491 114 28 438 29 565 2z"/> <path d="M17535 4633 c-54 -5 -179 -30 -240 -48 -222 -64 -427 -199 -571 -377 -59 -74 -83 -97 -96 -98 -5 0 -8 108 -8 239 0 139 -4 242 -9 246 -6 3 -202 5 -438 5 -393 0 -429 -1 -440 -17 -10 -13 -13 -472 -13 -2235 1 -1980 2 -2219 16 -2233 13 -13 72 -15 442 -15 235 0 432 4 439 8 9 6 13 324 16 1387 l3 1380 23 99 c12 55 26 107 32 117 5 10 9 25 9 34 0 15 73 172 108 232 73 124 216 256 356 328 168 86 273 106 589 112 l247 5 0 419 0 419 -212 -2 c-117 -1 -231 -3 -253 -5z"/> </g> </svg>