<?xml version="1.0" standalone="no"?> <!DOCTYPE svg PUBLIC "-//W3C//DTD SVG 20010904//EN" "http://www.w3.org/TR/2001/REC-SVG-20010904/DTD/svg10.dtd"> <svg version="1.0" xmlns="http://www.w3.org/2000/svg" width="1800.000000pt" height="1800.000000pt" viewBox="0 0 1800.000000 1800.000000" preserveAspectRatio="xMidYMid meet"> <g transform="translate(0.000000,1800.000000) scale(0.100000,-0.100000)" fill="#ffffff" stroke="none"> <path d="M10630 17985 c0 -8 -14 -17 -37 -21 -71 -13 -162 -65 -209 -120 -24 -28 -44 -55 -44 -59 0 -5 -13 -36 -29 -69 -48 -102 -61 -134 -61 -145 0 -6 -6 -25 -14 -43 -27 -61 -75 -204 -121 -363 -10 -33 -22 -71 -27 -84 -5 -14 -13 -43 -18 -65 -9 -41 -28 -120 -51 -206 -6 -25 -17 -67 -24 -95 -7 -27 -21 -88 -30 -135 -10 -47 -24 -110 -31 -140 -8 -30 -14 -68 -14 -86 0 -17 -7 -51 -15 -74 -8 -23 -15 -58 -15 -77 0 -19 -6 -62 -14 -96 -8 -34 -22 -111 -31 -172 -10 -60 -23 -142 -31 -182 -8 -40 -14 -86 -14 -103 0 -17 -7 -75 -15 -128 -25 -165 -45 -345 -45 -400 0 -68 26 -196 50 -242 22 -42 73 -92 117 -114 144 -72 421 85 530 301 57 113 79 192 128 458 9 50 23 118 31 152 8 34 14 76 14 93 0 17 7 59 15 93 64 274 73 310 91 357 7 19 20 57 30 83 27 77 44 63 104 -88 17 -44 38 -95 46 -113 8 -18 14 -38 14 -45 1 -7 9 -30 20 -52 11 -22 19 -46 20 -53 0 -7 4 -20 9 -30 5 -9 16 -35 24 -57 115 -306 223 -500 324 -581 78 -63 134 -84 223 -84 66 0 89 4 128 24 74 38 111 70 164 141 47 62 138 223 138 244 0 8 24 65 75 176 13 29 52 116 80 180 8 17 30 66 51 110 20 44 54 118 76 165 120 260 322 647 454 867 96 161 164 331 164 412 0 73 -25 127 -78 168 -119 91 -371 110 -509 39 -51 -27 -133 -124 -199 -237 -105 -177 -104 -176 -351 -676 -79 -160 -150 -296 -157 -302 -18 -15 -40 11 -60 69 -25 70 -84 249 -102 310 -9 30 -22 71 -29 90 -12 35 -30 94 -61 205 -9 33 -22 78 -29 100 -20 64 -43 147 -50 185 -13 69 -59 208 -91 275 -45 96 -179 202 -276 219 -24 4 -38 12 -38 21 0 12 -19 15 -100 15 -81 0 -100 -3 -100 -15z"/> <path d="M8455 17734 c-62 -13 -158 -39 -235 -64 -14 -4 -52 -16 -85 -25 -33 -10 -76 -23 -95 -30 -19 -7 -87 -29 -150 -50 -108 -34 -209 -69 -290 -100 -47 -18 -140 -54 -165 -64 -11 -5 -38 -15 -60 -24 -121 -46 -231 -91 -315 -130 -30 -14 -82 -36 -115 -50 -97 -42 -111 -48 -289 -137 -235 -117 -384 -220 -456 -315 -32 -41 -90 -143 -90 -157 0 -8 -4 -18 -10 -24 -17 -17 -51 -216 -45 -264 25 -193 85 -293 214 -357 51 -25 66 -28 161 -27 102 0 108 2 220 48 63 26 133 56 155 66 231 107 299 105 358 -10 26 -51 27 -61 28 -199 0 -80 4 -177 9 -216 6 -38 14 -173 20 -300 5 -126 14 -266 19 -310 6 -44 17 -147 26 -230 8 -82 22 -211 30 -285 32 -288 34 -281 -206 -625 -190 -272 -231 -477 -145 -728 48 -141 183 -257 301 -257 66 0 206 60 299 129 28 20 60 43 72 51 18 12 159 121 208 161 6 5 61 47 121 94 61 47 126 99 146 116 21 16 62 49 92 72 30 23 88 69 128 102 41 33 79 63 84 67 42 33 147 119 179 148 81 73 236 234 236 245 0 3 11 21 25 39 67 88 115 244 115 376 0 153 -46 249 -151 316 -42 27 -50 28 -159 28 -80 0 -137 -6 -188 -19 -71 -18 -73 -19 -105 -1 -61 36 -77 58 -116 166 -58 158 -104 607 -105 1010 0 422 25 557 129 684 40 49 91 90 250 201 218 152 287 221 347 343 94 194 80 367 -37 470 -81 71 -219 96 -360 66z"/> <path d="M13970 17195 c-14 -8 -31 -14 -38 -15 -23 0 -155 -92 -194 -135 -51 -55 -68 -93 -68 -157 0 -62 7 -75 101 -174 37 -40 70 -81 74 -93 19 -61 -69 -150 -395 -401 -24 -19 -51 -41 -60 -48 -8 -8 -67 -54 -130 -105 -300 -237 -411 -340 -492 -457 -56 -82 -75 -120 -94 -192 -33 -130 38 -234 195 -286 95 -32 250 -31 347 2 65 22 164 68 189 88 6 5 33 25 60 45 28 21 66 51 85 69 535 482 568 507 890 665 100 49 195 57 270 24 25 -11 99 -56 165 -101 144 -97 261 -165 334 -194 100 -39 317 -22 441 34 157 70 159 232 5 402 -166 183 -478 457 -675 592 -30 21 -92 64 -137 95 -110 76 -361 225 -448 267 -38 18 -78 37 -89 42 -85 42 -286 62 -336 33z"/> <path d="M4725 15883 c-151 -36 -284 -117 -453 -278 -111 -106 -150 -173 -179 -313 -14 -65 -14 -82 1 -175 23 -144 36 -207 52 -245 8 -18 14 -42 14 -54 0 -18 41 -159 71 -243 6 -16 15 -46 19 -65 5 -19 31 -100 59 -180 29 -80 77 -219 107 -310 31 -91 60 -169 65 -174 5 -6 9 -17 9 -25 0 -9 20 -65 44 -126 82 -206 99 -250 142 -373 39 -112 41 -123 25 -131 -12 -7 -30 -4 -57 8 -83 38 -250 122 -275 139 -15 9 -48 30 -75 47 -105 63 -254 168 -439 307 -215 162 -278 213 -359 293 -89 86 -193 161 -280 201 -51 23 -67 26 -135 22 -115 -7 -174 -39 -291 -158 -70 -72 -107 -120 -140 -181 l-45 -84 1 -125 c0 -123 1 -126 43 -230 23 -58 57 -136 76 -175 18 -38 57 -119 85 -180 116 -244 338 -677 422 -818 15 -26 28 -50 28 -52 0 -4 113 -199 130 -225 6 -8 13 -22 17 -30 3 -8 18 -33 33 -55 15 -22 38 -60 52 -85 60 -107 236 -383 404 -633 21 -32 46 -69 54 -82 8 -13 44 -66 81 -117 36 -51 87 -124 114 -163 27 -38 77 -108 111 -155 35 -47 80 -109 101 -138 200 -281 342 -397 499 -410 53 -4 69 0 135 30 127 59 194 148 256 343 21 66 21 249 0 326 -36 132 -62 188 -142 304 -127 185 -224 323 -244 351 -9 12 -22 30 -29 40 -7 11 -47 70 -90 132 -81 118 -230 341 -247 370 -6 9 -28 44 -50 77 -50 76 -62 95 -74 122 -5 11 -15 24 -20 28 -13 7 -15 55 -3 55 4 0 12 -4 18 -9 32 -29 866 -455 1039 -530 97 -42 185 -71 305 -101 132 -32 303 -14 420 44 212 106 274 348 170 666 -28 85 -42 117 -170 385 -34 72 -73 155 -87 185 -13 30 -40 87 -58 125 -19 39 -42 90 -53 115 -18 42 -46 105 -78 175 -50 112 -74 168 -74 175 0 5 -6 21 -14 37 -14 26 -90 210 -121 293 -8 19 -29 76 -48 125 -19 50 -42 113 -51 140 -9 28 -21 59 -26 70 -10 23 -87 255 -120 365 -78 258 -107 361 -159 570 -17 69 -38 146 -46 171 -8 26 -15 53 -15 60 0 13 -52 177 -84 264 -51 141 -128 241 -202 263 -40 12 -129 14 -169 5z"/> <path d="M14545 15034 c-229 -33 -312 -51 -377 -82 -88 -43 -146 -137 -132 -216 13 -84 56 -157 211 -364 128 -171 194 -278 323 -527 92 -177 89 -171 144 -254 27 -40 73 -99 103 -132 58 -62 186 -149 220 -149 11 0 40 -7 63 -15 59 -21 123 -19 198 7 75 25 123 75 154 160 23 63 20 119 -12 223 -28 93 -48 160 -65 218 -8 26 -21 71 -30 100 -27 86 -31 164 -10 187 23 25 29 25 93 -5 105 -49 167 -119 249 -280 72 -141 91 -179 109 -220 161 -372 315 -572 519 -671 52 -25 72 -29 145 -29 75 0 89 3 118 25 68 51 91 127 72 243 -9 61 -67 246 -140 451 -36 100 -60 187 -60 216 0 22 31 34 62 24 40 -12 118 -78 160 -133 37 -49 128 -218 128 -238 0 -4 13 -40 29 -78 16 -39 45 -120 65 -180 21 -61 40 -117 43 -125 25 -64 65 -181 72 -210 5 -19 19 -60 31 -90 12 -30 25 -66 30 -80 78 -223 204 -386 356 -461 53 -25 77 -31 135 -31 76 -1 112 16 135 61 7 13 17 28 23 34 16 16 13 138 -5 215 -21 90 -54 216 -72 277 -7 28 -23 84 -33 125 -11 41 -26 99 -34 128 -8 28 -21 76 -29 105 -15 55 -36 129 -62 212 -8 28 -19 67 -25 88 -5 21 -13 45 -18 55 -5 9 -17 35 -26 57 -26 63 -106 218 -121 236 -8 8 -14 19 -14 23 0 20 -167 224 -260 317 -190 192 -351 314 -575 436 -139 76 -470 213 -514 213 -9 0 -21 4 -27 10 -5 5 -30 14 -54 19 -25 5 -94 21 -155 36 -280 67 -377 78 -740 81 -219 2 -327 -2 -400 -12z"/> <path d="M1690 12591 c-129 -40 -276 -222 -386 -478 -54 -126 -70 -234 -55 -363 9 -75 16 -103 50 -185 21 -50 76 -154 102 -193 16 -24 29 -45 29 -47 0 -2 13 -23 29 -47 16 -24 39 -63 52 -88 12 -25 40 -71 61 -103 21 -32 38 -60 38 -62 0 -7 313 -477 400 -600 25 -35 88 -125 140 -200 52 -75 100 -142 106 -148 5 -7 32 -43 59 -82 27 -38 135 -185 240 -325 271 -361 386 -544 481 -765 44 -103 58 -279 28 -357 -37 -95 -97 -126 -204 -105 -85 16 -135 45 -291 166 -61 46 -547 539 -623 630 -33 41 -88 106 -122 145 -62 73 -207 261 -304 395 -353 485 -422 561 -547 597 -47 14 -57 13 -109 -2 -79 -23 -137 -84 -197 -206 -108 -224 -147 -476 -110 -726 18 -121 84 -304 145 -407 29 -48 81 -130 89 -139 5 -6 26 -33 46 -61 21 -27 41 -54 45 -60 5 -5 31 -39 60 -75 136 -174 271 -323 437 -484 186 -182 202 -198 251 -240 25 -22 75 -67 111 -100 117 -108 213 -193 259 -230 363 -290 594 -417 846 -465 181 -34 408 23 576 146 152 110 251 235 359 453 28 58 57 116 64 130 19 39 101 308 114 375 41 207 45 263 46 515 0 244 -11 376 -36 455 -6 17 -14 50 -19 75 -8 43 -45 151 -74 215 -7 17 -20 46 -29 65 -39 87 -117 240 -141 278 -14 23 -26 45 -26 49 0 5 -20 39 -45 76 -25 38 -45 71 -45 74 0 3 -20 34 -45 70 -25 35 -45 66 -45 69 0 5 -83 126 -120 174 -15 19 -89 127 -165 240 -76 112 -154 227 -173 255 -66 95 -156 220 -209 292 -29 40 -53 75 -53 78 0 4 -19 32 -42 63 -24 32 -47 65 -53 74 -5 9 -48 69 -95 135 -140 197 -358 519 -515 763 -111 172 -210 283 -265 293 -41 9 -87 8 -120 -2z"/> <path d="M15080 12503 c-66 -24 -132 -96 -157 -174 -36 -111 -48 -217 -34 -301 47 -280 149 -413 426 -562 28 -15 57 -31 65 -36 41 -26 171 -100 175 -100 3 0 23 -11 45 -25 22 -14 71 -42 108 -61 111 -60 264 -165 315 -217 37 -38 47 -55 47 -82 0 -63 -52 -77 -196 -51 -44 8 -133 21 -199 30 -66 9 -140 22 -165 28 -25 6 -115 13 -201 16 -136 3 -163 2 -222 -17 -102 -31 -168 -66 -233 -122 -77 -68 -108 -109 -151 -197 -59 -122 -77 -251 -49 -343 30 -97 66 -140 159 -187 74 -37 217 -61 372 -62 105 0 433 -34 520 -53 62 -14 154 -55 191 -85 41 -34 82 -103 98 -164 9 -39 20 -150 26 -288 19 -409 38 -519 137 -794 48 -133 132 -289 217 -401 187 -248 366 -367 571 -381 208 -15 364 64 515 261 41 53 122 203 146 270 53 147 105 323 128 435 8 41 20 98 26 125 42 206 37 603 -11 789 -12 45 -25 101 -30 126 -5 24 -14 49 -19 54 -6 6 -10 16 -10 24 0 42 -125 314 -202 440 -21 34 -38 66 -38 70 0 4 -20 38 -45 75 -25 38 -45 71 -45 73 0 7 -151 226 -199 289 -343 451 -673 794 -1053 1092 -29 23 -78 62 -109 86 -32 25 -81 63 -110 83 -30 21 -57 42 -60 47 -4 5 -15 14 -27 20 -11 7 -71 46 -133 88 -255 170 -451 230 -589 182z m1810 -2336 c15 -12 110 -151 110 -161 0 -3 13 -24 29 -48 43 -64 111 -196 132 -256 59 -172 8 -621 -93 -807 -9 -16 -33 -46 -53 -65 -30 -29 -43 -35 -80 -35 -28 0 -53 7 -71 20 -30 23 -95 138 -114 201 -19 67 -40 245 -40 349 0 181 44 633 70 713 28 87 71 121 110 89z"/> <path d="M14299 9466 c-32 -12 -68 -31 -81 -42 -113 -89 -208 -312 -208 -489 0 -62 25 -202 39 -220 5 -5 12 -21 16 -34 20 -67 140 -232 256 -356 49 -52 207 -237 282 -330 34 -42 138 -203 159 -245 29 -58 48 -123 48 -163 0 -37 -30 -109 -51 -122 -20 -13 -130 -7 -182 10 -116 39 -300 109 -392 150 -89 40 -179 75 -191 75 -7 0 -28 6 -46 14 -125 53 -349 66 -464 28 -83 -27 -128 -52 -195 -103 -225 -176 -271 -415 -110 -573 27 -27 59 -54 72 -61 72 -39 173 -85 188 -85 10 0 26 -7 37 -15 10 -8 27 -15 36 -15 10 0 34 -7 55 -16 76 -33 70 -31 238 -89 137 -47 158 -56 249 -100 154 -76 191 -121 190 -235 -1 -41 -7 -95 -13 -119 -7 -24 -16 -74 -21 -110 -4 -36 -13 -93 -19 -126 -49 -274 -56 -548 -20 -758 12 -67 25 -130 30 -139 5 -9 9 -24 9 -33 0 -9 7 -33 16 -53 56 -124 91 -194 123 -242 19 -30 40 -62 46 -72 41 -66 167 -197 248 -257 119 -88 210 -125 356 -145 209 -29 438 28 636 159 109 72 135 94 249 210 136 138 313 383 421 580 21 39 48 86 60 105 24 39 84 156 107 210 25 58 76 260 89 347 24 173 11 293 -52 463 -17 47 -38 103 -46 125 -7 22 -18 49 -23 60 -5 11 -19 43 -30 70 -97 224 -467 954 -557 1097 -13 21 -23 40 -23 43 0 5 -122 208 -180 300 -81 130 -130 203 -181 275 -33 47 -67 96 -77 110 -102 152 -413 522 -576 686 -239 240 -362 294 -517 230z m1139 -2690 c39 -20 63 -50 127 -156 112 -184 149 -292 150 -435 0 -108 -2 -115 -71 -260 -115 -240 -231 -410 -344 -504 -102 -85 -185 -110 -253 -74 -61 31 -83 54 -114 116 -43 88 -61 150 -68 242 -9 125 6 204 80 410 20 55 39 108 42 119 13 41 137 276 187 354 117 183 183 230 264 188z"/> <path d="M970 7139 c-91 -16 -160 -40 -255 -88 -73 -37 -108 -64 -182 -138 -51 -51 -93 -98 -93 -105 0 -6 -6 -19 -13 -27 -23 -26 -67 -142 -77 -201 -6 -30 -15 -84 -21 -119 -14 -80 -7 -503 10 -581 6 -30 20 -102 31 -160 10 -58 29 -148 41 -200 12 -52 25 -117 29 -145 5 -27 13 -63 18 -80 6 -16 18 -66 27 -110 9 -44 21 -93 27 -110 5 -16 13 -50 18 -75 15 -84 78 -238 137 -340 61 -104 175 -222 258 -266 11 -6 47 -26 80 -44 33 -18 71 -36 85 -41 14 -4 63 -22 110 -39 100 -37 188 -67 325 -108 183 -55 207 -62 222 -62 8 0 35 -6 61 -14 57 -17 164 -39 292 -61 52 -9 130 -23 173 -31 42 -8 99 -14 125 -14 26 0 85 -7 132 -16 129 -23 554 -24 636 -1 34 9 71 17 83 17 12 0 50 14 86 32 51 24 72 42 99 82 46 70 62 152 48 249 -6 39 -14 95 -17 122 -4 28 -10 66 -15 85 -5 19 -16 69 -25 110 -41 189 -113 420 -188 605 -59 145 -202 423 -253 492 -13 17 -24 34 -24 37 0 3 -28 45 -61 93 -277 397 -624 730 -1047 1007 -123 81 -273 152 -397 190 -33 10 -75 23 -94 28 -92 28 -303 42 -391 27z m628 -1054 c89 -36 207 -100 301 -164 46 -31 99 -66 117 -79 68 -45 269 -258 331 -349 63 -92 116 -188 141 -253 58 -153 72 -284 37 -332 -42 -56 -188 -49 -375 17 -19 7 -82 27 -140 45 -58 18 -114 37 -125 42 -11 4 -33 12 -50 17 -58 18 -180 62 -215 78 -225 104 -284 174 -348 413 -38 141 -46 195 -50 328 -3 120 -1 138 18 178 24 49 61 80 105 87 64 11 193 -4 253 -28z"/> <path d="M12485 6311 c-144 -30 -188 -46 -309 -109 -202 -107 -440 -337 -728 -706 -13 -16 -25 -34 -28 -40 -3 -6 -21 -36 -41 -66 -20 -30 -55 -91 -79 -135 -23 -44 -46 -84 -50 -90 -12 -18 -97 -229 -112 -280 -55 -179 -68 -251 -83 -452 -8 -105 -13 -204 -10 -220 3 -15 10 -116 15 -223 5 -107 14 -222 19 -255 6 -33 17 -107 26 -165 8 -58 22 -136 29 -175 8 -38 20 -95 26 -125 25 -129 51 -259 64 -320 15 -64 29 -138 47 -235 5 -27 13 -68 19 -90 5 -22 16 -76 25 -120 29 -143 46 -219 60 -270 7 -27 21 -86 30 -130 10 -44 29 -123 43 -175 13 -52 28 -108 32 -125 64 -258 216 -535 325 -593 77 -41 212 -33 325 21 157 74 247 166 305 312 51 127 46 346 -13 595 -6 25 -18 81 -28 125 -19 91 -69 300 -86 360 -6 22 -14 56 -18 75 -4 19 -20 82 -34 140 -15 58 -34 132 -42 165 -8 33 -21 81 -29 106 -8 26 -15 56 -15 67 0 12 -6 41 -14 64 -7 24 -28 106 -45 183 -18 77 -38 165 -46 195 -7 30 -18 82 -25 115 -6 33 -27 134 -46 225 -32 156 -34 176 -34 362 0 244 15 322 93 477 37 75 118 159 191 201 68 39 148 42 204 6 101 -64 202 -233 267 -446 77 -255 129 -466 185 -740 11 -58 27 -128 35 -156 8 -28 15 -66 15 -84 0 -19 6 -59 14 -89 14 -52 22 -95 62 -326 8 -49 21 -121 29 -160 7 -38 21 -113 30 -165 43 -239 69 -322 130 -415 45 -67 126 -115 195 -115 41 0 135 34 183 66 113 77 186 182 234 339 22 72 25 97 25 255 0 96 -5 200 -11 230 -6 30 -20 118 -31 195 -11 77 -27 176 -35 220 -8 44 -15 95 -15 114 0 18 -7 63 -15 100 -14 61 -42 226 -67 381 -5 36 -16 90 -23 120 -12 52 -19 83 -50 240 -15 77 -42 201 -62 285 -7 33 -16 71 -19 85 -14 69 -90 378 -110 450 -67 233 -199 502 -319 649 -111 136 -230 224 -350 257 -62 18 -207 26 -260 15z"/> <path d="M9895 4071 c-68 -17 -184 -89 -246 -151 -91 -91 -188 -261 -218 -380 -33 -131 -43 -227 -37 -365 3 -77 9 -258 12 -402 8 -296 2 -331 -63 -411 -30 -37 -133 -122 -147 -122 -2 0 -33 -19 -68 -42 -68 -46 -70 -47 -233 -132 -262 -138 -344 -194 -470 -321 -140 -140 -227 -278 -288 -455 -49 -144 -51 -159 -51 -365 0 -208 -2 -197 52 -370 37 -123 112 -242 200 -319 20 -17 41 -37 48 -44 30 -29 192 -102 275 -122 81 -20 107 -22 262 -17 169 5 264 19 422 63 33 9 74 19 90 23 17 5 46 13 65 19 74 24 247 82 280 93 53 18 251 98 283 115 16 8 34 14 41 14 7 0 44 21 83 48 201 133 250 318 240 892 -6 325 -21 665 -38 820 -6 52 -14 154 -19 225 -5 72 -14 164 -19 205 -6 41 -15 131 -21 200 -6 69 -17 190 -25 270 -8 80 -20 200 -25 266 -6 67 -15 145 -20 174 -6 29 -10 75 -10 102 0 27 -9 86 -21 131 -52 205 -95 288 -172 336 -37 22 -117 34 -162 22z m-461 -2532 c36 -29 57 -72 72 -152 27 -141 14 -376 -24 -436 -58 -93 -258 -181 -410 -181 -180 0 -292 95 -292 247 0 160 89 297 267 414 172 112 327 155 387 108z"/> <path d="M3850 3354 c-70 -30 -99 -115 -64 -190 23 -50 85 -121 397 -448 63 -66 81 -98 73 -131 -9 -35 -51 -50 -135 -49 -67 2 -86 7 -157 41 -44 22 -96 51 -114 64 -43 30 -203 163 -290 240 -179 158 -322 260 -425 301 -22 9 -72 22 -111 28 -163 29 -284 -25 -305 -135 -22 -119 24 -217 203 -425 146 -170 178 -207 193 -224 23 -25 93 -132 99 -152 4 -14 -2 -28 -20 -45 -23 -22 -34 -24 -112 -23 -73 0 -96 5 -144 28 -124 59 -360 270 -547 488 -124 145 -208 219 -305 267 -87 44 -216 81 -281 81 -44 0 -151 -20 -211 -41 -55 -18 -126 -74 -141 -110 -25 -59 -8 -149 41 -228 14 -22 26 -43 26 -46 0 -14 247 -330 340 -435 146 -164 206 -225 376 -379 220 -198 465 -387 594 -458 106 -57 153 -66 338 -60 219 6 329 29 622 129 63 22 129 44 147 49 18 5 35 14 38 19 4 6 13 10 21 10 9 0 45 14 81 30 35 17 67 30 70 30 6 0 317 154 343 170 8 5 72 42 142 84 149 89 345 220 408 273 162 136 270 309 256 405 -7 44 -47 122 -78 152 -62 60 -188 137 -478 294 -74 40 -261 153 -330 200 -256 175 -450 243 -560 196z"/> <path d="M7010 2620 c-90 -12 -150 -32 -204 -69 -101 -70 -172 -159 -399 -503 -276 -417 -421 -606 -656 -853 -42 -44 -99 -107 -126 -139 -90 -106 -160 -137 -317 -138 -102 0 -221 16 -349 48 -78 20 -150 17 -231 -7 -152 -46 -293 -136 -355 -227 -32 -46 -37 -61 -37 -107 2 -103 60 -157 264 -242 142 -59 174 -70 405 -138 59 -17 202 -53 265 -67 25 -5 70 -16 100 -23 131 -32 315 -70 430 -90 52 -9 122 -21 155 -27 115 -20 251 -30 490 -35 286 -6 414 6 489 46 48 25 166 128 166 144 0 5 11 23 24 40 44 58 66 122 66 187 0 158 -86 209 -440 260 -120 18 -177 33 -204 57 -59 51 -30 127 178 477 58 97 106 179 106 182 0 2 11 21 23 42 82 130 292 556 342 692 43 116 66 212 71 290 7 97 -17 143 -89 178 -60 29 -86 32 -167 22z"/> </g> </svg>